<?xml version="1.0" encoding="utf-8" standalone="no"?>
<!DOCTYPE svg PUBLIC "-//W3C//DTD SVG 1.1//EN"
  "http://www.w3.org/Graphics/SVG/1.1/DTD/svg11.dtd">
<svg xmlns:xlink="http://www.w3.org/1999/xlink" width="460.8pt" height="345.6pt" viewBox="0 0 460.8 345.6" xmlns="http://www.w3.org/2000/svg" version="1.1">
 <metadata>
  <rdf:RDF xmlns:dc="http://purl.org/dc/elements/1.1/" xmlns:cc="http://creativecommons.org/ns#" xmlns:rdf="http://www.w3.org/1999/02/22-rdf-syntax-ns#">
   <cc:Work>
    <dc:type rdf:resource="http://purl.org/dc/dcmitype/StillImage"/>
    <dc:date>2025-01-13T14:23:07.789713</dc:date>
    <dc:format>image/svg+xml</dc:format>
    <dc:creator>
     <cc:Agent>
      <dc:title>Matplotlib v3.9.1.post1, https://matplotlib.org/</dc:title>
     </cc:Agent>
    </dc:creator>
   </cc:Work>
  </rdf:RDF>
 </metadata>
 <defs>
  <style type="text/css">*{stroke-linejoin: round; stroke-linecap: butt}</style>
 </defs>
 <g id="figure_1">
  <g id="patch_1">
   <path d="M 0 345.6 
L 460.8 345.6 
L 460.8 0 
L 0 0 
L 0 345.6 
z
" style="fill: none"/>
  </g>
  <g id="axes_1">
   <g id="patch_2">
    <path d="M 57.6 307.584 
L 414.72 307.584 
L 414.72 41.472 
L 57.6 41.472 
L 57.6 307.584 
z
" style="fill: none"/>
   </g>
   <g id="PolyCollection_1">
    <defs>
     <path id="m09607d2179" d="M 73.832727 -292.032 
L 73.832727 -292.032 
L 74.180737 -292.032 
L 74.180737 -276.845314 
L 74.378255 -276.845314 
L 74.378255 -274.917992 
L 74.507961 -274.917992 
L 74.507961 -272.154435 
L 74.683262 -272.154435 
L 74.683262 -272.154435 
L 75.064766 -272.154435 
L 75.064766 -269.242465 
L 75.093268 -269.242465 
L 75.093268 -266.353186 
L 75.240662 -266.353186 
L 75.240662 -263.504217 
L 75.572909 -263.504217 
L 75.572909 -260.697213 
L 75.607232 -260.697213 
L 75.607232 -257.929742 
L 75.817459 -257.929742 
L 75.817459 -255.198472 
L 76.042394 -255.198472 
L 76.042394 -252.500119 
L 76.181419 -252.500119 
L 76.181419 -249.831713 
L 76.250034 -249.831713 
L 76.250034 -247.190653 
L 76.530101 -247.190653 
L 76.530101 -244.574679 
L 76.803613 -244.574679 
L 76.803613 -241.981837 
L 76.988564 -241.981837 
L 76.988564 -239.410427 
L 77.50725 -239.410427 
L 77.50725 -236.858973 
L 77.532307 -236.858973 
L 77.532307 -234.326179 
L 77.599537 -234.326179 
L 77.599537 -231.810909 
L 77.60509 -231.810909 
L 77.60509 -229.312156 
L 77.819044 -229.312156 
L 77.819044 -226.829031 
L 77.960916 -226.829031 
L 77.960916 -224.360739 
L 77.991465 -224.360739 
L 77.991465 -224.360739 
L 78.057189 -224.360739 
L 78.057189 -221.870368 
L 78.132412 -221.870368 
L 78.132412 -219.394427 
L 78.672268 -219.394427 
L 78.672268 -216.932252 
L 79.242738 -216.932252 
L 79.242738 -214.483248 
L 79.342393 -214.483248 
L 79.342393 -214.483248 
L 79.573519 -214.483248 
L 79.573519 -212.009367 
L 79.680353 -212.009367 
L 79.680353 -209.548486 
L 79.753959 -209.548486 
L 79.753959 -207.100101 
L 79.872586 -207.100101 
L 79.872586 -204.663756 
L 79.958178 -204.663756 
L 79.958178 -202.23904 
L 80.351589 -202.23904 
L 80.351589 -199.825582 
L 80.43914 -199.825582 
L 80.43914 -199.825582 
L 80.442526 -199.825582 
L 80.442526 -199.825582 
L 80.828601 -199.825582 
L 80.828601 -197.342277 
L 80.833222 -197.342277 
L 80.833222 -197.342277 
L 80.925376 -197.342277 
L 80.925376 -194.828534 
L 81.257442 -194.828534 
L 81.257442 -192.327455 
L 81.407536 -192.327455 
L 81.407536 -189.838645 
L 81.454098 -189.838645 
L 81.454098 -187.361745 
L 81.680207 -187.361745 
L 81.680207 -184.896434 
L 81.809805 -184.896434 
L 81.809805 -184.896434 
L 82.071585 -184.896434 
L 82.071585 -182.396659 
L 82.07743 -182.396659 
L 82.07743 -179.908765 
L 82.190137 -179.908765 
L 82.190137 -177.432471 
L 82.319351 -177.432471 
L 82.319351 -174.967523 
L 82.555654 -174.967523 
L 82.555654 -172.513696 
L 82.708664 -172.513696 
L 82.708664 -170.070786 
L 83.25449 -170.070786 
L 83.25449 -167.638612 
L 83.903094 -167.638612 
L 83.903094 -165.217012 
L 84.076415 -165.217012 
L 84.076415 -162.805842 
L 84.879845 -162.805842 
L 84.879845 -162.805842 
L 85.490407 -162.805842 
L 85.490407 -160.352771 
L 85.595498 -160.352771 
L 85.595498 -157.910785 
L 86.955928 -157.910785 
L 86.955928 -155.479761 
L 87.29753 -155.479761 
L 87.29753 -153.059593 
L 87.411483 -153.059593 
L 87.411483 -150.650193 
L 87.450412 -150.650193 
L 87.450412 -150.650193 
L 87.989212 -150.650193 
L 87.989212 -150.650193 
L 88.414406 -150.650193 
L 88.414406 -148.132058 
L 88.510129 -148.132058 
L 88.510129 -145.626706 
L 88.784515 -145.626706 
L 88.784515 -143.134038 
L 89.39828 -143.134038 
L 89.39828 -140.653975 
L 89.647128 -140.653975 
L 89.647128 -138.186461 
L 90.046798 -138.186461 
L 90.046798 -135.731462 
L 90.09722 -135.731462 
L 90.09722 -133.288965 
L 90.141674 -133.288965 
L 90.141674 -130.858977 
L 91.479919 -130.858977 
L 91.479919 -128.441527 
L 91.667152 -128.441527 
L 91.667152 -126.036664 
L 92.209585 -126.036664 
L 92.209585 -123.64446 
L 92.483628 -123.64446 
L 92.483628 -121.265006 
L 93.026664 -121.265006 
L 93.026664 -118.898418 
L 93.554249 -118.898418 
L 93.554249 -116.544836 
L 94.947015 -116.544836 
L 94.947015 -114.204423 
L 95.216407 -114.204423 
L 95.216407 -114.204423 
L 95.811874 -114.204423 
L 95.811874 -111.791298 
L 96.032012 -111.791298 
L 96.032012 -109.393655 
L 96.372018 -109.393655 
L 96.372018 -107.011738 
L 96.782044 -107.011738 
L 96.782044 -104.64583 
L 96.896434 -104.64583 
L 96.896434 -102.296257 
L 98.113081 -102.296257 
L 98.113081 -99.963391 
L 98.212486 -99.963391 
L 98.212486 -97.647654 
L 98.83626 -97.647654 
L 98.83626 -95.349522 
L 99.635743 -95.349522 
L 99.635743 -93.069537 
L 100.947206 -93.069537 
L 100.947206 -90.808306 
L 102.628621 -90.808306 
L 102.628621 -88.566518 
L 103.757968 -88.566518 
L 103.757968 -88.566518 
L 104.631815 -88.566518 
L 104.631815 -86.213614 
L 107.318069 -86.213614 
L 107.318069 -86.213614 
L 108.060645 -86.213614 
L 108.060645 -83.733135 
L 108.771925 -83.733135 
L 108.771925 -81.285992 
L 109.084221 -81.285992 
L 109.084221 -78.87368 
L 109.609071 -78.87368 
L 109.609071 -76.497973 
L 109.679052 -76.497973 
L 109.679052 -74.160986 
L 109.70592 -74.160986 
L 109.70592 -71.865242 
L 110.112253 -71.865242 
L 110.112253 -69.613781 
L 111.208537 -69.613781 
L 111.208537 -67.410291 
L 118.091391 -67.410291 
L 118.091391 -67.410291 
L 118.753414 -67.410291 
L 118.753414 -64.981017 
L 119.448247 -64.981017 
L 119.448247 -62.637771 
L 119.964746 -62.637771 
L 119.964746 -60.390535 
L 124.311838 -60.390535 
L 124.311838 -58.252825 
L 129.27785 -58.252825 
L 129.27785 -56.243526 
L 132.990147 -56.243526 
L 132.990147 -54.390248 
L 133.922573 -54.390248 
L 133.922573 -54.390248 
L 134.694964 -54.390248 
L 134.694964 -52.045571 
L 139.764779 -52.045571 
L 139.764779 -50.51846 
L 153.943941 -50.51846 
L 153.943941 -50.112 
L 153.943941 -50.112 
L 153.943941 -50.112 
L 153.943941 -68.825844 
L 139.764779 -68.825844 
L 139.764779 -73.777203 
L 134.694964 -73.777203 
L 134.694964 -78.305655 
L 133.922573 -78.305655 
L 133.922573 -78.305655 
L 132.990147 -78.305655 
L 132.990147 -82.335011 
L 129.27785 -82.335011 
L 129.27785 -86.239037 
L 124.311838 -86.239037 
L 124.311838 -90.038094 
L 119.964746 -90.038094 
L 119.964746 -93.746994 
L 119.448247 -93.746994 
L 119.448247 -97.376731 
L 118.753414 -97.376731 
L 118.753414 -100.935641 
L 118.091391 -100.935641 
L 118.091391 -100.935641 
L 111.208537 -100.935641 
L 111.208537 -104.235622 
L 110.112253 -104.235622 
L 110.112253 -107.494614 
L 109.70592 -107.494614 
L 109.70592 -110.715823 
L 109.679052 -110.715823 
L 109.679052 -113.901921 
L 109.609071 -113.901921 
L 109.609071 -117.05515 
L 109.084221 -117.05515 
L 109.084221 -120.177408 
L 108.771925 -120.177408 
L 108.771925 -123.270309 
L 108.060645 -123.270309 
L 108.060645 -126.335234 
L 107.318069 -126.335234 
L 107.318069 -126.335234 
L 104.631815 -126.335234 
L 104.631815 -129.263684 
L 103.757968 -129.263684 
L 103.757968 -129.263684 
L 102.628621 -129.263684 
L 102.628621 -132.072532 
L 100.947206 -132.072532 
L 100.947206 -134.864141 
L 99.635743 -134.864141 
L 99.635743 -137.639135 
L 98.83626 -137.639135 
L 98.83626 -140.398072 
L 98.212486 -140.398072 
L 98.212486 -143.141448 
L 98.113081 -143.141448 
L 98.113081 -145.86971 
L 96.896434 -145.86971 
L 96.896434 -148.583254 
L 96.782044 -148.583254 
L 96.782044 -151.282437 
L 96.372018 -151.282437 
L 96.372018 -153.967574 
L 96.032012 -153.967574 
L 96.032012 -156.638949 
L 95.811874 -156.638949 
L 95.811874 -159.29681 
L 95.216407 -159.29681 
L 95.216407 -159.29681 
L 94.947015 -159.29681 
L 94.947015 -161.880217 
L 93.554249 -161.880217 
L 93.554249 -164.451851 
L 93.026664 -164.451851 
L 93.026664 -167.011877 
L 92.483628 -167.011877 
L 92.483628 -169.56044 
L 92.209585 -169.56044 
L 92.209585 -172.097666 
L 91.667152 -172.097666 
L 91.667152 -174.623661 
L 91.479919 -174.623661 
L 91.479919 -177.138515 
L 90.141674 -177.138515 
L 90.141674 -179.642304 
L 90.09722 -179.642304 
L 90.09722 -182.135083 
L 90.046798 -182.135083 
L 90.046798 -184.616894 
L 89.647128 -184.616894 
L 89.647128 -187.087765 
L 89.39828 -187.087765 
L 89.39828 -189.547706 
L 88.784515 -189.547706 
L 88.784515 -191.996715 
L 88.510129 -191.996715 
L 88.510129 -194.434771 
L 88.414406 -194.434771 
L 88.414406 -196.861841 
L 87.989212 -196.861841 
L 87.989212 -196.861841 
L 87.450412 -196.861841 
L 87.450412 -196.861841 
L 87.411483 -196.861841 
L 87.411483 -199.201505 
L 87.29753 -199.201505 
L 87.29753 -201.531505 
L 86.955928 -201.531505 
L 86.955928 -203.851789 
L 85.595498 -203.851789 
L 85.595498 -206.162293 
L 85.490407 -206.162293 
L 85.490407 -208.462941 
L 84.879845 -208.462941 
L 84.879845 -208.462941 
L 84.076415 -208.462941 
L 84.076415 -210.721081 
L 83.903094 -210.721081 
L 83.903094 -212.969755 
L 83.25449 -212.969755 
L 83.25449 -215.208859 
L 82.708664 -215.208859 
L 82.708664 -217.438276 
L 82.555654 -217.438276 
L 82.555654 -219.657874 
L 82.319351 -219.657874 
L 82.319351 -221.867507 
L 82.190137 -221.867507 
L 82.190137 -224.067014 
L 82.07743 -224.067014 
L 82.07743 -226.256213 
L 82.071585 -226.256213 
L 82.071585 -228.434908 
L 81.809805 -228.434908 
L 81.809805 -228.434908 
L 81.680207 -228.434908 
L 81.680207 -230.576771 
L 81.454098 -230.576771 
L 81.454098 -232.708199 
L 81.407536 -232.708199 
L 81.407536 -234.828953 
L 81.257442 -234.828953 
L 81.257442 -236.938765 
L 80.925376 -236.938765 
L 80.925376 -239.037347 
L 80.833222 -239.037347 
L 80.833222 -239.037347 
L 80.828601 -239.037347 
L 80.828601 -241.10142 
L 80.442526 -241.10142 
L 80.442526 -241.10142 
L 80.43914 -241.10142 
L 80.43914 -241.10142 
L 80.351589 -241.10142 
L 80.351589 -243.110503 
L 79.958178 -243.110503 
L 79.958178 -245.108795 
L 79.872586 -245.108795 
L 79.872586 -247.095948 
L 79.753959 -247.095948 
L 79.753959 -249.071585 
L 79.680353 -249.071585 
L 79.680353 -251.035288 
L 79.573519 -251.035288 
L 79.573519 -252.986595 
L 79.342393 -252.986595 
L 79.342393 -252.986595 
L 79.242738 -252.986595 
L 79.242738 -254.906339 
L 78.672268 -254.906339 
L 78.672268 -256.813103 
L 78.132412 -256.813103 
L 78.132412 -258.706292 
L 78.057189 -258.706292 
L 78.057189 -260.585245 
L 77.991465 -260.585245 
L 77.991465 -260.585245 
L 77.960916 -260.585245 
L 77.960916 -262.432466 
L 77.819044 -262.432466 
L 77.819044 -264.264397 
L 77.60509 -264.264397 
L 77.60509 -266.08014 
L 77.599537 -266.08014 
L 77.599537 -267.878673 
L 77.532307 -267.878673 
L 77.532307 -269.658832 
L 77.50725 -269.658832 
L 77.50725 -271.419276 
L 76.988564 -271.419276 
L 76.988564 -273.158449 
L 76.803613 -273.158449 
L 76.803613 -274.874533 
L 76.530101 -274.874533 
L 76.530101 -276.565374 
L 76.250034 -276.565374 
L 76.250034 -278.228395 
L 76.181419 -278.228395 
L 76.181419 -279.860468 
L 76.042394 -279.860468 
L 76.042394 -281.457729 
L 75.817459 -281.457729 
L 75.817459 -283.015311 
L 75.607232 -283.015311 
L 75.607232 -284.526931 
L 75.572909 -284.526931 
L 75.572909 -285.984232 
L 75.240662 -285.984232 
L 75.240662 -287.375657 
L 75.093268 -287.375657 
L 75.093268 -288.684391 
L 75.064766 -288.684391 
L 75.064766 -289.884175 
L 74.683262 -289.884175 
L 74.683262 -289.884175 
L 74.507961 -289.884175 
L 74.507961 -290.924376 
L 74.378255 -290.924376 
L 74.378255 -291.720988 
L 74.180737 -291.720988 
L 74.180737 -292.032 
L 73.832727 -292.032 
z
" style="stroke: #1f77b4; stroke-opacity: 0.25"/>
    </defs>
    <g clip-path="url(#p66fd5d3ee8)">
     <use xlink:href="#m09607d2179" x="0" y="345.6" style="fill: #1f77b4; fill-opacity: 0.25; stroke: #1f77b4; stroke-opacity: 0.25"/>
    </g>
   </g>
   <g id="PolyCollection_2">
    <defs>
     <path id="m57e211df4c" d="M 73.832727 -292.032 
L 73.832727 -292.032 
L 73.875375 -292.032 
L 73.875375 -292.032 
L 73.875959 -292.032 
L 73.875959 -278.727189 
L 74.049969 -278.727189 
L 74.049969 -277.039316 
L 75.777624 -277.039316 
L 75.777624 -277.039316 
L 76.077934 -277.039316 
L 76.077934 -274.568399 
L 76.735729 -274.568399 
L 76.735729 -274.568399 
L 78.338347 -274.568399 
L 78.338347 -274.568399 
L 78.546962 -274.568399 
L 78.546962 -271.942498 
L 78.800576 -271.942498 
L 78.800576 -271.942498 
L 79.0837 -271.942498 
L 79.0837 -271.942498 
L 79.271991 -271.942498 
L 79.271991 -271.942498 
L 80.052349 -271.942498 
L 80.052349 -271.942498 
L 80.70908 -271.942498 
L 80.70908 -269.187465 
L 80.947861 -269.187465 
L 80.947861 -266.500373 
L 81.808607 -266.500373 
L 81.808607 -266.500373 
L 81.864727 -266.500373 
L 81.864727 -263.831466 
L 82.248469 -263.831466 
L 82.248469 -261.213236 
L 82.582238 -261.213236 
L 82.582238 -258.637707 
L 83.832634 -258.637707 
L 83.832634 -256.098961 
L 84.255374 -256.098961 
L 84.255374 -253.592445 
L 84.608218 -253.592445 
L 84.608218 -253.592445 
L 84.825833 -253.592445 
L 84.825833 -251.081722 
L 85.087947 -251.081722 
L 85.087947 -248.598504 
L 86.040288 -248.598504 
L 86.040288 -248.598504 
L 86.089176 -248.598504 
L 86.089176 -246.107381 
L 86.698801 -246.107381 
L 86.698801 -243.640254 
L 88.784049 -243.640254 
L 88.784049 -241.19499 
L 91.297654 -241.19499 
L 91.297654 -238.769803 
L 91.473776 -238.769803 
L 91.473776 -238.769803 
L 91.683293 -238.769803 
L 91.683293 -238.769803 
L 92.307572 -238.769803 
L 92.307572 -236.297586 
L 95.754577 -236.297586 
L 95.754577 -236.297586 
L 96.053242 -236.297586 
L 96.053242 -236.297586 
L 96.381348 -236.297586 
L 96.381348 -236.297586 
L 96.641371 -236.297586 
L 96.641371 -236.297586 
L 97.445576 -236.297586 
L 97.445576 -236.297586 
L 97.552012 -236.297586 
L 97.552012 -236.297586 
L 98.055383 -236.297586 
L 98.055383 -233.627607 
L 98.112968 -233.627607 
L 98.112968 -230.98355 
L 98.323847 -230.98355 
L 98.323847 -230.98355 
L 98.475776 -230.98355 
L 98.475776 -230.98355 
L 98.925315 -230.98355 
L 98.925315 -228.28338 
L 98.929689 -228.28338 
L 98.929689 -228.28338 
L 99.169749 -228.28338 
L 99.169749 -225.566314 
L 99.889649 -225.566314 
L 99.889649 -225.566314 
L 100.45722 -225.566314 
L 100.45722 -222.83071 
L 101.542555 -222.83071 
L 101.542555 -222.83071 
L 101.641438 -222.83071 
L 101.641438 -222.83071 
L 102.018916 -222.83071 
L 102.018916 -222.83071 
L 102.344334 -222.83071 
L 102.344334 -219.983263 
L 102.417614 -219.983263 
L 102.417614 -219.983263 
L 102.805358 -219.983263 
L 102.805358 -217.114266 
L 104.88582 -217.114266 
L 104.88582 -214.271275 
L 107.573002 -214.271275 
L 107.573002 -211.452419 
L 107.862263 -211.452419 
L 107.862263 -208.656093 
L 108.289124 -208.656093 
L 108.289124 -205.88091 
L 109.441791 -205.88091 
L 109.441791 -205.88091 
L 110.108125 -205.88091 
L 110.108125 -203.075807 
L 110.606089 -203.075807 
L 110.606089 -200.290924 
L 112.312148 -200.290924 
L 112.312148 -197.525217 
L 112.668499 -197.525217 
L 112.668499 -194.777769 
L 113.227978 -194.777769 
L 113.227978 -192.047772 
L 113.779134 -192.047772 
L 113.779134 -189.334508 
L 116.52957 -189.334508 
L 116.52957 -186.637339 
L 116.622462 -186.637339 
L 116.622462 -183.955697 
L 117.401066 -183.955697 
L 117.401066 -181.289077 
L 117.45758 -181.289077 
L 117.45758 -181.289077 
L 120.924469 -181.289077 
L 120.924469 -181.289077 
L 121.029705 -181.289077 
L 121.029705 -178.525311 
L 122.340691 -178.525311 
L 122.340691 -178.525311 
L 124.293166 -178.525311 
L 124.293166 -175.718269 
L 126.418267 -175.718269 
L 126.418267 -175.718269 
L 126.779404 -175.718269 
L 126.779404 -172.865641 
L 126.994859 -172.865641 
L 126.994859 -170.031376 
L 128.997064 -170.031376 
L 128.997064 -170.031376 
L 129.329507 -170.031376 
L 129.329507 -170.031376 
L 129.392534 -170.031376 
L 129.392534 -170.031376 
L 129.959844 -170.031376 
L 129.959844 -167.00367 
L 130.135591 -167.00367 
L 130.135591 -163.998484 
L 131.742499 -163.998484 
L 131.742499 -161.015102 
L 132.003483 -161.015102 
L 132.003483 -158.052895 
L 132.108263 -158.052895 
L 132.108263 -155.111313 
L 132.315039 -155.111313 
L 132.315039 -155.111313 
L 133.825592 -155.111313 
L 133.825592 -152.107457 
L 133.882514 -152.107457 
L 133.882514 -152.107457 
L 134.783315 -152.107457 
L 134.783315 -152.107457 
L 136.187306 -152.107457 
L 136.187306 -152.107457 
L 137.098564 -152.107457 
L 137.098564 -148.844681 
L 137.438924 -148.844681 
L 137.438924 -145.611142 
L 141.427136 -145.611142 
L 141.427136 -142.406072 
L 142.03609 -142.406072 
L 142.03609 -142.406072 
L 146.607096 -142.406072 
L 146.607096 -142.406072 
L 147.468331 -142.406072 
L 147.468331 -139.000377 
L 148.321779 -139.000377 
L 148.321779 -139.000377 
L 148.63941 -139.000377 
L 148.63941 -135.500588 
L 150.474234 -135.500588 
L 150.474234 -132.039126 
L 150.550826 -132.039126 
L 150.550826 -128.615139 
L 152.984829 -128.615139 
L 152.984829 -128.615139 
L 156.366496 -128.615139 
L 156.366496 -128.615139 
L 157.794897 -128.615139 
L 157.794897 -128.615139 
L 158.696783 -128.615139 
L 158.696783 -128.615139 
L 158.907479 -128.615139 
L 158.907479 -124.555919 
L 163.816398 -124.555919 
L 163.816398 -124.555919 
L 166.778207 -124.555919 
L 166.778207 -120.348486 
L 167.599576 -120.348486 
L 167.599576 -120.348486 
L 167.885217 -120.348486 
L 167.885217 -115.973838 
L 169.469278 -115.973838 
L 169.469278 -111.68671 
L 171.29502 -111.68671 
L 171.29502 -111.68671 
L 173.466053 -111.68671 
L 173.466053 -107.198008 
L 174.020926 -107.198008 
L 174.020926 -107.198008 
L 174.52191 -107.198008 
L 174.52191 -107.198008 
L 175.191658 -107.198008 
L 175.191658 -107.198008 
L 188.446807 -107.198008 
L 188.446807 -107.198008 
L 191.889624 -107.198008 
L 191.889624 -107.198008 
L 195.416768 -107.198008 
L 195.416768 -100.480149 
L 206.748139 -100.480149 
L 206.748139 -94.11795 
L 208.386447 -94.11795 
L 208.386447 -94.11795 
L 211.044992 -94.11795 
L 211.044992 -87.275274 
L 217.442508 -87.275274 
L 217.442508 -87.275274 
L 240.480299 -87.275274 
L 240.480299 -79.809165 
L 246.852344 -79.809165 
L 246.852344 -73.030676 
L 252.701286 -73.030676 
L 252.701286 -66.925578 
L 253.263333 -66.925578 
L 253.263333 -66.925578 
L 256.905791 -66.925578 
L 256.905791 -59.736663 
L 301.587272 -59.736663 
L 301.587272 -59.736663 
L 348.810268 -59.736663 
L 348.810268 -59.736663 
L 398.487273 -59.736663 
L 398.487273 -50.112 
L 398.487273 -50.112 
L 398.487273 -50.112 
L 398.487273 -111.286745 
L 348.810268 -111.286745 
L 348.810268 -111.286745 
L 301.587272 -111.286745 
L 301.587272 -111.286745 
L 256.905791 -111.286745 
L 256.905791 -120.173303 
L 253.263333 -120.173303 
L 253.263333 -120.173303 
L 252.701286 -120.173303 
L 252.701286 -127.873013 
L 246.852344 -127.873013 
L 246.852344 -135.098902 
L 240.480299 -135.098902 
L 240.480299 -141.848435 
L 217.442508 -141.848435 
L 217.442508 -141.848435 
L 211.044992 -141.848435 
L 211.044992 -147.908595 
L 208.386447 -147.908595 
L 208.386447 -147.908595 
L 206.748139 -147.908595 
L 206.748139 -153.439806 
L 195.416768 -153.439806 
L 195.416768 -158.725988 
L 191.889624 -158.725988 
L 191.889624 -158.725988 
L 188.446807 -158.725988 
L 188.446807 -158.725988 
L 175.191658 -158.725988 
L 175.191658 -158.725988 
L 174.52191 -158.725988 
L 174.52191 -158.725988 
L 174.020926 -158.725988 
L 174.020926 -158.725988 
L 173.466053 -158.725988 
L 173.466053 -162.994436 
L 171.29502 -162.994436 
L 171.29502 -162.994436 
L 169.469278 -162.994436 
L 169.469278 -167.054365 
L 167.885217 -167.054365 
L 167.885217 -171.051914 
L 167.599576 -171.051914 
L 167.599576 -171.051914 
L 166.778207 -171.051914 
L 166.778207 -174.874238 
L 163.816398 -174.874238 
L 163.816398 -174.874238 
L 158.907479 -174.874238 
L 158.907479 -178.541043 
L 158.696783 -178.541043 
L 158.696783 -178.541043 
L 157.794897 -178.541043 
L 157.794897 -178.541043 
L 156.366496 -178.541043 
L 156.366496 -178.541043 
L 152.984829 -178.541043 
L 152.984829 -178.541043 
L 150.550826 -178.541043 
L 150.550826 -181.814672 
L 150.474234 -181.814672 
L 150.474234 -185.060196 
L 148.63941 -185.060196 
L 148.63941 -188.277352 
L 148.321779 -188.277352 
L 148.321779 -188.277352 
L 147.468331 -188.277352 
L 147.468331 -191.397008 
L 146.607096 -191.397008 
L 146.607096 -191.397008 
L 142.03609 -191.397008 
L 142.03609 -191.397008 
L 141.427136 -191.397008 
L 141.427136 -194.365379 
L 137.438924 -194.365379 
L 137.438924 -197.312209 
L 137.098564 -197.312209 
L 137.098564 -200.237202 
L 136.187306 -200.237202 
L 136.187306 -200.237202 
L 134.783315 -200.237202 
L 134.783315 -200.237202 
L 133.882514 -200.237202 
L 133.882514 -200.237202 
L 133.825592 -200.237202 
L 133.825592 -202.984906 
L 132.315039 -202.984906 
L 132.315039 -202.984906 
L 132.108263 -202.984906 
L 132.108263 -205.668264 
L 132.003483 -205.668264 
L 132.003483 -208.335384 
L 131.742499 -208.335384 
L 131.742499 -210.98602 
L 130.135591 -210.98602 
L 130.135591 -213.619887 
L 129.959844 -213.619887 
L 129.959844 -216.236655 
L 129.392534 -216.236655 
L 129.392534 -216.236655 
L 129.329507 -216.236655 
L 129.329507 -216.236655 
L 128.997064 -216.236655 
L 128.997064 -216.236655 
L 126.994859 -216.236655 
L 126.994859 -218.72105 
L 126.779404 -218.72105 
L 126.779404 -221.19089 
L 126.418267 -221.19089 
L 126.418267 -221.19089 
L 124.293166 -221.19089 
L 124.293166 -223.61146 
L 122.340691 -223.61146 
L 122.340691 -223.61146 
L 121.029705 -223.61146 
L 121.029705 -225.985055 
L 120.924469 -225.985055 
L 120.924469 -225.985055 
L 117.45758 -225.985055 
L 117.45758 -225.985055 
L 117.401066 -225.985055 
L 117.401066 -228.283421 
L 116.622462 -228.283421 
L 116.622462 -230.569174 
L 116.52957 -230.569174 
L 116.52957 -232.842005 
L 113.779134 -232.842005 
L 113.779134 -235.101575 
L 113.227978 -235.101575 
L 113.227978 -237.347505 
L 112.668499 -237.347505 
L 112.668499 -239.579378 
L 112.312148 -239.579378 
L 112.312148 -241.796732 
L 110.606089 -241.796732 
L 110.606089 -243.999051 
L 110.108125 -243.999051 
L 110.108125 -246.185765 
L 109.441791 -246.185765 
L 109.441791 -246.185765 
L 108.289124 -246.185765 
L 108.289124 -248.332479 
L 107.862263 -248.332479 
L 107.862263 -250.463022 
L 107.573002 -250.463022 
L 107.573002 -252.576656 
L 104.88582 -252.576656 
L 104.88582 -254.672548 
L 102.805358 -254.672548 
L 102.805358 -256.749759 
L 102.417614 -256.749759 
L 102.417614 -256.749759 
L 102.344334 -256.749759 
L 102.344334 -258.78696 
L 102.018916 -258.78696 
L 102.018916 -258.78696 
L 101.641438 -258.78696 
L 101.641438 -258.78696 
L 101.542555 -258.78696 
L 101.542555 -258.78696 
L 100.45722 -258.78696 
L 100.45722 -260.747111 
L 99.889649 -260.747111 
L 99.889649 -260.747111 
L 99.169749 -260.747111 
L 99.169749 -262.670566 
L 98.929689 -262.670566 
L 98.929689 -262.670566 
L 98.925315 -262.670566 
L 98.925315 -264.557683 
L 98.475776 -264.557683 
L 98.475776 -264.557683 
L 98.323847 -264.557683 
L 98.323847 -264.557683 
L 98.112968 -264.557683 
L 98.112968 -266.392658 
L 98.055383 -266.392658 
L 98.055383 -268.207881 
L 97.552012 -268.207881 
L 97.552012 -268.207881 
L 97.445576 -268.207881 
L 97.445576 -268.207881 
L 96.641371 -268.207881 
L 96.641371 -268.207881 
L 96.381348 -268.207881 
L 96.381348 -268.207881 
L 96.053242 -268.207881 
L 96.053242 -268.207881 
L 95.754577 -268.207881 
L 95.754577 -268.207881 
L 92.307572 -268.207881 
L 92.307572 -269.915963 
L 91.683293 -269.915963 
L 91.683293 -269.915963 
L 91.473776 -269.915963 
L 91.473776 -269.915963 
L 91.297654 -269.915963 
L 91.297654 -271.57895 
L 88.784049 -271.57895 
L 88.784049 -273.222819 
L 86.698801 -273.222819 
L 86.698801 -274.845985 
L 86.089176 -274.845985 
L 86.089176 -276.446588 
L 86.040288 -276.446588 
L 86.040288 -276.446588 
L 85.087947 -276.446588 
L 85.087947 -278.011096 
L 84.825833 -278.011096 
L 84.825833 -279.548902 
L 84.608218 -279.548902 
L 84.608218 -279.548902 
L 84.255374 -279.548902 
L 84.255374 -281.046565 
L 83.832634 -281.046565 
L 83.832634 -282.511368 
L 82.582238 -282.511368 
L 82.582238 -283.93857 
L 82.248469 -283.93857 
L 82.248469 -285.322021 
L 81.864727 -285.322021 
L 81.864727 -286.653501 
L 81.808607 -286.653501 
L 81.808607 -286.653501 
L 80.947861 -286.653501 
L 80.947861 -287.91431 
L 80.70908 -287.91431 
L 80.70908 -289.096677 
L 80.052349 -289.096677 
L 80.052349 -289.096677 
L 79.271991 -289.096677 
L 79.271991 -289.096677 
L 79.0837 -289.096677 
L 79.0837 -289.096677 
L 78.800576 -289.096677 
L 78.800576 -289.096677 
L 78.546962 -289.096677 
L 78.546962 -290.154087 
L 78.338347 -290.154087 
L 78.338347 -290.154087 
L 76.735729 -290.154087 
L 76.735729 -290.154087 
L 76.077934 -290.154087 
L 76.077934 -291.06587 
L 75.777624 -291.06587 
L 75.777624 -291.06587 
L 74.049969 -291.06587 
L 74.049969 -291.760617 
L 73.875959 -291.760617 
L 73.875959 -292.032 
L 73.875375 -292.032 
L 73.875375 -292.032 
L 73.832727 -292.032 
z
" style="stroke: #ff7f0e; stroke-opacity: 0.25"/>
    </defs>
    <g clip-path="url(#p66fd5d3ee8)">
     <use xlink:href="#m57e211df4c" x="0" y="345.6" style="fill: #ff7f0e; fill-opacity: 0.25; stroke: #ff7f0e; stroke-opacity: 0.25"/>
    </g>
   </g>
   <g id="matplotlib.axis_1">
    <g id="xtick_1">
     <g id="line2d_1">
      <defs>
       <path id="mc7e8de1b32" d="M 0 0 
L 0 3.5 
" style="stroke: #000000; stroke-width: 0.8"/>
      </defs>
      <g>
       <use xlink:href="#mc7e8de1b32" x="73.832727" y="307.584" style="stroke: #000000; stroke-width: 0.8"/>
      </g>
     </g>
     <g id="text_1">
      <!-- 0 -->
      <g transform="translate(70.651477 322.182437) scale(0.1 -0.1)">
       <defs>
        <path id="DejaVuSans-30" d="M 2034 4250 
Q 1547 4250 1301 3770 
Q 1056 3291 1056 2328 
Q 1056 1369 1301 889 
Q 1547 409 2034 409 
Q 2525 409 2770 889 
Q 3016 1369 3016 2328 
Q 3016 3291 2770 3770 
Q 2525 4250 2034 4250 
z
M 2034 4750 
Q 2819 4750 3233 4129 
Q 3647 3509 3647 2328 
Q 3647 1150 3233 529 
Q 2819 -91 2034 -91 
Q 1250 -91 836 529 
Q 422 1150 422 2328 
Q 422 3509 836 4129 
Q 1250 4750 2034 4750 
z
" transform="scale(0.015625)"/>
       </defs>
       <use xlink:href="#DejaVuSans-30"/>
      </g>
     </g>
    </g>
    <g id="xtick_2">
     <g id="line2d_2">
      <g>
       <use xlink:href="#mc7e8de1b32" x="128.080758" y="307.584" style="stroke: #000000; stroke-width: 0.8"/>
      </g>
     </g>
     <g id="text_2">
      <!-- 5 -->
      <g transform="translate(124.899508 322.182437) scale(0.1 -0.1)">
       <defs>
        <path id="DejaVuSans-35" d="M 691 4666 
L 3169 4666 
L 3169 4134 
L 1269 4134 
L 1269 2991 
Q 1406 3038 1543 3061 
Q 1681 3084 1819 3084 
Q 2600 3084 3056 2656 
Q 3513 2228 3513 1497 
Q 3513 744 3044 326 
Q 2575 -91 1722 -91 
Q 1428 -91 1123 -41 
Q 819 9 494 109 
L 494 744 
Q 775 591 1075 516 
Q 1375 441 1709 441 
Q 2250 441 2565 725 
Q 2881 1009 2881 1497 
Q 2881 1984 2565 2268 
Q 2250 2553 1709 2553 
Q 1456 2553 1204 2497 
Q 953 2441 691 2322 
L 691 4666 
z
" transform="scale(0.015625)"/>
       </defs>
       <use xlink:href="#DejaVuSans-35"/>
      </g>
     </g>
    </g>
    <g id="xtick_3">
     <g id="line2d_3">
      <g>
       <use xlink:href="#mc7e8de1b32" x="182.328789" y="307.584" style="stroke: #000000; stroke-width: 0.8"/>
      </g>
     </g>
     <g id="text_3">
      <!-- 10 -->
      <g transform="translate(175.966289 322.182437) scale(0.1 -0.1)">
       <defs>
        <path id="DejaVuSans-31" d="M 794 531 
L 1825 531 
L 1825 4091 
L 703 3866 
L 703 4441 
L 1819 4666 
L 2450 4666 
L 2450 531 
L 3481 531 
L 3481 0 
L 794 0 
L 794 531 
z
" transform="scale(0.015625)"/>
       </defs>
       <use xlink:href="#DejaVuSans-31"/>
       <use xlink:href="#DejaVuSans-30" x="63.623047"/>
      </g>
     </g>
    </g>
    <g id="xtick_4">
     <g id="line2d_4">
      <g>
       <use xlink:href="#mc7e8de1b32" x="236.57682" y="307.584" style="stroke: #000000; stroke-width: 0.8"/>
      </g>
     </g>
     <g id="text_4">
      <!-- 15 -->
      <g transform="translate(230.21432 322.182437) scale(0.1 -0.1)">
       <use xlink:href="#DejaVuSans-31"/>
       <use xlink:href="#DejaVuSans-35" x="63.623047"/>
      </g>
     </g>
    </g>
    <g id="xtick_5">
     <g id="line2d_5">
      <g>
       <use xlink:href="#mc7e8de1b32" x="290.824851" y="307.584" style="stroke: #000000; stroke-width: 0.8"/>
      </g>
     </g>
     <g id="text_5">
      <!-- 20 -->
      <g transform="translate(284.462351 322.182437) scale(0.1 -0.1)">
       <defs>
        <path id="DejaVuSans-32" d="M 1228 531 
L 3431 531 
L 3431 0 
L 469 0 
L 469 531 
Q 828 903 1448 1529 
Q 2069 2156 2228 2338 
Q 2531 2678 2651 2914 
Q 2772 3150 2772 3378 
Q 2772 3750 2511 3984 
Q 2250 4219 1831 4219 
Q 1534 4219 1204 4116 
Q 875 4013 500 3803 
L 500 4441 
Q 881 4594 1212 4672 
Q 1544 4750 1819 4750 
Q 2544 4750 2975 4387 
Q 3406 4025 3406 3419 
Q 3406 3131 3298 2873 
Q 3191 2616 2906 2266 
Q 2828 2175 2409 1742 
Q 1991 1309 1228 531 
z
" transform="scale(0.015625)"/>
       </defs>
       <use xlink:href="#DejaVuSans-32"/>
       <use xlink:href="#DejaVuSans-30" x="63.623047"/>
      </g>
     </g>
    </g>
    <g id="xtick_6">
     <g id="line2d_6">
      <g>
       <use xlink:href="#mc7e8de1b32" x="345.072882" y="307.584" style="stroke: #000000; stroke-width: 0.8"/>
      </g>
     </g>
     <g id="text_6">
      <!-- 25 -->
      <g transform="translate(338.710382 322.182437) scale(0.1 -0.1)">
       <use xlink:href="#DejaVuSans-32"/>
       <use xlink:href="#DejaVuSans-35" x="63.623047"/>
      </g>
     </g>
    </g>
    <g id="xtick_7">
     <g id="line2d_7">
      <g>
       <use xlink:href="#mc7e8de1b32" x="399.320913" y="307.584" style="stroke: #000000; stroke-width: 0.8"/>
      </g>
     </g>
     <g id="text_7">
      <!-- 30 -->
      <g transform="translate(392.958413 322.182437) scale(0.1 -0.1)">
       <defs>
        <path id="DejaVuSans-33" d="M 2597 2516 
Q 3050 2419 3304 2112 
Q 3559 1806 3559 1356 
Q 3559 666 3084 287 
Q 2609 -91 1734 -91 
Q 1441 -91 1130 -33 
Q 819 25 488 141 
L 488 750 
Q 750 597 1062 519 
Q 1375 441 1716 441 
Q 2309 441 2620 675 
Q 2931 909 2931 1356 
Q 2931 1769 2642 2001 
Q 2353 2234 1838 2234 
L 1294 2234 
L 1294 2753 
L 1863 2753 
Q 2328 2753 2575 2939 
Q 2822 3125 2822 3475 
Q 2822 3834 2567 4026 
Q 2313 4219 1838 4219 
Q 1578 4219 1281 4162 
Q 984 4106 628 3988 
L 628 4550 
Q 988 4650 1302 4700 
Q 1616 4750 1894 4750 
Q 2613 4750 3031 4423 
Q 3450 4097 3450 3541 
Q 3450 3153 3228 2886 
Q 3006 2619 2597 2516 
z
" transform="scale(0.015625)"/>
       </defs>
       <use xlink:href="#DejaVuSans-33"/>
       <use xlink:href="#DejaVuSans-30" x="63.623047"/>
      </g>
     </g>
    </g>
    <g id="text_8">
     <!-- $t$ -->
     <g transform="translate(234.16 335.860562) scale(0.1 -0.1)">
      <defs>
       <path id="DejaVuSans-Oblique-74" d="M 2706 3500 
L 2619 3053 
L 1472 3053 
L 1100 1153 
Q 1081 1047 1072 975 
Q 1063 903 1063 863 
Q 1063 663 1183 572 
Q 1303 481 1569 481 
L 2150 481 
L 2053 0 
L 1503 0 
Q 991 0 739 200 
Q 488 400 488 806 
Q 488 878 497 964 
Q 506 1050 525 1153 
L 897 3053 
L 409 3053 
L 500 3500 
L 978 3500 
L 1172 4494 
L 1747 4494 
L 1556 3500 
L 2706 3500 
z
" transform="scale(0.015625)"/>
      </defs>
      <use xlink:href="#DejaVuSans-Oblique-74" transform="translate(0 0.78125)"/>
     </g>
    </g>
   </g>
   <g id="matplotlib.axis_2">
    <g id="ytick_1">
     <g id="line2d_8">
      <defs>
       <path id="md806189bae" d="M 0 0 
L -3.5 0 
" style="stroke: #000000; stroke-width: 0.8"/>
      </defs>
      <g>
       <use xlink:href="#md806189bae" x="57.6" y="295.488" style="stroke: #000000; stroke-width: 0.8"/>
      </g>
     </g>
     <g id="text_9">
      <!-- 0.0 -->
      <g transform="translate(34.696875 299.287219) scale(0.1 -0.1)">
       <defs>
        <path id="DejaVuSans-2e" d="M 684 794 
L 1344 794 
L 1344 0 
L 684 0 
L 684 794 
z
" transform="scale(0.015625)"/>
       </defs>
       <use xlink:href="#DejaVuSans-30"/>
       <use xlink:href="#DejaVuSans-2e" x="63.623047"/>
       <use xlink:href="#DejaVuSans-30" x="95.410156"/>
      </g>
     </g>
    </g>
    <g id="ytick_2">
     <g id="line2d_9">
      <g>
       <use xlink:href="#md806189bae" x="57.6" y="247.104" style="stroke: #000000; stroke-width: 0.8"/>
      </g>
     </g>
     <g id="text_10">
      <!-- 0.2 -->
      <g transform="translate(34.696875 250.903219) scale(0.1 -0.1)">
       <use xlink:href="#DejaVuSans-30"/>
       <use xlink:href="#DejaVuSans-2e" x="63.623047"/>
       <use xlink:href="#DejaVuSans-32" x="95.410156"/>
      </g>
     </g>
    </g>
    <g id="ytick_3">
     <g id="line2d_10">
      <g>
       <use xlink:href="#md806189bae" x="57.6" y="198.72" style="stroke: #000000; stroke-width: 0.8"/>
      </g>
     </g>
     <g id="text_11">
      <!-- 0.4 -->
      <g transform="translate(34.696875 202.519219) scale(0.1 -0.1)">
       <defs>
        <path id="DejaVuSans-34" d="M 2419 4116 
L 825 1625 
L 2419 1625 
L 2419 4116 
z
M 2253 4666 
L 3047 4666 
L 3047 1625 
L 3713 1625 
L 3713 1100 
L 3047 1100 
L 3047 0 
L 2419 0 
L 2419 1100 
L 313 1100 
L 313 1709 
L 2253 4666 
z
" transform="scale(0.015625)"/>
       </defs>
       <use xlink:href="#DejaVuSans-30"/>
       <use xlink:href="#DejaVuSans-2e" x="63.623047"/>
       <use xlink:href="#DejaVuSans-34" x="95.410156"/>
      </g>
     </g>
    </g>
    <g id="ytick_4">
     <g id="line2d_11">
      <g>
       <use xlink:href="#md806189bae" x="57.6" y="150.336" style="stroke: #000000; stroke-width: 0.8"/>
      </g>
     </g>
     <g id="text_12">
      <!-- 0.6 -->
      <g transform="translate(34.696875 154.135219) scale(0.1 -0.1)">
       <defs>
        <path id="DejaVuSans-36" d="M 2113 2584 
Q 1688 2584 1439 2293 
Q 1191 2003 1191 1497 
Q 1191 994 1439 701 
Q 1688 409 2113 409 
Q 2538 409 2786 701 
Q 3034 994 3034 1497 
Q 3034 2003 2786 2293 
Q 2538 2584 2113 2584 
z
M 3366 4563 
L 3366 3988 
Q 3128 4100 2886 4159 
Q 2644 4219 2406 4219 
Q 1781 4219 1451 3797 
Q 1122 3375 1075 2522 
Q 1259 2794 1537 2939 
Q 1816 3084 2150 3084 
Q 2853 3084 3261 2657 
Q 3669 2231 3669 1497 
Q 3669 778 3244 343 
Q 2819 -91 2113 -91 
Q 1303 -91 875 529 
Q 447 1150 447 2328 
Q 447 3434 972 4092 
Q 1497 4750 2381 4750 
Q 2619 4750 2861 4703 
Q 3103 4656 3366 4563 
z
" transform="scale(0.015625)"/>
       </defs>
       <use xlink:href="#DejaVuSans-30"/>
       <use xlink:href="#DejaVuSans-2e" x="63.623047"/>
       <use xlink:href="#DejaVuSans-36" x="95.410156"/>
      </g>
     </g>
    </g>
    <g id="ytick_5">
     <g id="line2d_12">
      <g>
       <use xlink:href="#md806189bae" x="57.6" y="101.952" style="stroke: #000000; stroke-width: 0.8"/>
      </g>
     </g>
     <g id="text_13">
      <!-- 0.8 -->
      <g transform="translate(34.696875 105.751219) scale(0.1 -0.1)">
       <defs>
        <path id="DejaVuSans-38" d="M 2034 2216 
Q 1584 2216 1326 1975 
Q 1069 1734 1069 1313 
Q 1069 891 1326 650 
Q 1584 409 2034 409 
Q 2484 409 2743 651 
Q 3003 894 3003 1313 
Q 3003 1734 2745 1975 
Q 2488 2216 2034 2216 
z
M 1403 2484 
Q 997 2584 770 2862 
Q 544 3141 544 3541 
Q 544 4100 942 4425 
Q 1341 4750 2034 4750 
Q 2731 4750 3128 4425 
Q 3525 4100 3525 3541 
Q 3525 3141 3298 2862 
Q 3072 2584 2669 2484 
Q 3125 2378 3379 2068 
Q 3634 1759 3634 1313 
Q 3634 634 3220 271 
Q 2806 -91 2034 -91 
Q 1263 -91 848 271 
Q 434 634 434 1313 
Q 434 1759 690 2068 
Q 947 2378 1403 2484 
z
M 1172 3481 
Q 1172 3119 1398 2916 
Q 1625 2713 2034 2713 
Q 2441 2713 2670 2916 
Q 2900 3119 2900 3481 
Q 2900 3844 2670 4047 
Q 2441 4250 2034 4250 
Q 1625 4250 1398 4047 
Q 1172 3844 1172 3481 
z
" transform="scale(0.015625)"/>
       </defs>
       <use xlink:href="#DejaVuSans-30"/>
       <use xlink:href="#DejaVuSans-2e" x="63.623047"/>
       <use xlink:href="#DejaVuSans-38" x="95.410156"/>
      </g>
     </g>
    </g>
    <g id="ytick_6">
     <g id="line2d_13">
      <g>
       <use xlink:href="#md806189bae" x="57.6" y="53.568" style="stroke: #000000; stroke-width: 0.8"/>
      </g>
     </g>
     <g id="text_14">
      <!-- 1.0 -->
      <g transform="translate(34.696875 57.367219) scale(0.1 -0.1)">
       <use xlink:href="#DejaVuSans-31"/>
       <use xlink:href="#DejaVuSans-2e" x="63.623047"/>
       <use xlink:href="#DejaVuSans-30" x="95.410156"/>
      </g>
     </g>
    </g>
    <g id="text_15">
     <!-- $S(t)$ -->
     <g transform="translate(28.617188 183.578) rotate(-90) scale(0.1 -0.1)">
      <defs>
       <path id="DejaVuSans-Oblique-53" d="M 3859 4513 
L 3738 3897 
Q 3422 4066 3111 4152 
Q 2800 4238 2509 4238 
Q 1944 4238 1609 3991 
Q 1275 3744 1275 3334 
Q 1275 3109 1398 2989 
Q 1522 2869 2034 2731 
L 2413 2638 
Q 3053 2472 3303 2217 
Q 3553 1963 3553 1503 
Q 3553 797 2998 353 
Q 2444 -91 1538 -91 
Q 1166 -91 791 -17 
Q 416 56 38 206 
L 166 856 
Q 513 641 861 531 
Q 1209 422 1556 422 
Q 2147 422 2503 684 
Q 2859 947 2859 1369 
Q 2859 1650 2717 1795 
Q 2575 1941 2106 2059 
L 1728 2156 
Q 1081 2325 845 2545 
Q 609 2766 609 3163 
Q 609 3859 1145 4304 
Q 1681 4750 2541 4750 
Q 2875 4750 3203 4690 
Q 3531 4631 3859 4513 
z
" transform="scale(0.015625)"/>
       <path id="DejaVuSans-28" d="M 1984 4856 
Q 1566 4138 1362 3434 
Q 1159 2731 1159 2009 
Q 1159 1288 1364 580 
Q 1569 -128 1984 -844 
L 1484 -844 
Q 1016 -109 783 600 
Q 550 1309 550 2009 
Q 550 2706 781 3412 
Q 1013 4119 1484 4856 
L 1984 4856 
z
" transform="scale(0.015625)"/>
       <path id="DejaVuSans-29" d="M 513 4856 
L 1013 4856 
Q 1481 4119 1714 3412 
Q 1947 2706 1947 2009 
Q 1947 1309 1714 600 
Q 1481 -109 1013 -844 
L 513 -844 
Q 928 -128 1133 580 
Q 1338 1288 1338 2009 
Q 1338 2731 1133 3434 
Q 928 4138 513 4856 
z
" transform="scale(0.015625)"/>
      </defs>
      <use xlink:href="#DejaVuSans-Oblique-53" transform="translate(0 0.125)"/>
      <use xlink:href="#DejaVuSans-28" transform="translate(63.476562 0.125)"/>
      <use xlink:href="#DejaVuSans-Oblique-74" transform="translate(102.490234 0.125)"/>
      <use xlink:href="#DejaVuSans-29" transform="translate(141.699219 0.125)"/>
     </g>
    </g>
   </g>
   <g id="line2d_14">
    <path d="M 73.832727 53.568 
L 74.180737 53.568 
L 74.180737 55.767273 
L 74.378255 55.767273 
L 74.378255 57.966545 
L 74.507961 57.966545 
L 74.507961 60.165818 
L 75.064766 60.165818 
L 75.093268 64.605859 
L 75.240662 64.605859 
L 75.240662 66.82588 
L 75.572909 66.82588 
L 75.607232 71.265921 
L 75.817459 71.265921 
L 75.817459 73.485942 
L 76.042394 73.485942 
L 76.042394 75.705962 
L 76.181419 75.705962 
L 76.250034 80.146003 
L 76.530101 80.146003 
L 76.530101 82.366024 
L 76.803613 82.366024 
L 76.803613 84.586045 
L 76.988564 84.586045 
L 76.988564 86.806065 
L 77.50725 86.806065 
L 77.60509 95.686148 
L 77.819044 95.686148 
L 77.819044 97.906168 
L 77.960916 97.906168 
L 78.057189 102.371727 
L 78.132412 102.371727 
L 78.132412 104.617265 
L 78.672268 104.617265 
L 78.672268 106.862803 
L 79.242738 106.862803 
L 79.242738 109.108341 
L 79.342393 109.108341 
L 79.573519 109.108341 
L 79.680353 113.654186 
L 79.753959 113.654186 
L 79.753959 115.927109 
L 79.872586 115.927109 
L 79.958178 120.472954 
L 80.351589 120.472954 
L 80.351589 122.745877 
L 80.442526 122.745877 
L 80.828601 122.745877 
L 80.925376 127.447005 
L 81.257442 127.447005 
L 81.257442 129.813779 
L 81.407536 129.813779 
L 81.454098 134.547328 
L 81.680207 134.547328 
L 81.680207 136.914103 
L 82.071585 136.914103 
L 82.07743 141.719372 
L 82.190137 141.719372 
L 82.190137 144.122007 
L 82.319351 144.122007 
L 82.319351 146.524642 
L 82.555654 146.524642 
L 82.555654 148.927277 
L 82.708664 148.927277 
L 82.708664 151.329912 
L 83.25449 151.329912 
L 83.25449 153.732547 
L 83.903094 153.732547 
L 83.903094 156.135181 
L 84.076415 156.135181 
L 84.076415 158.537816 
L 85.490407 158.537816 
L 85.595498 163.428894 
L 86.955928 163.428894 
L 86.955928 165.874433 
L 87.29753 165.874433 
L 87.29753 168.319972 
L 87.411483 168.319972 
L 87.411483 170.765511 
L 87.450412 170.765511 
L 88.414406 170.765511 
L 88.510129 175.856225 
L 88.784515 175.856225 
L 88.784515 178.401582 
L 89.39828 178.401582 
L 89.39828 180.946939 
L 89.647128 180.946939 
L 89.647128 183.492296 
L 90.046798 183.492296 
L 90.141674 191.128366 
L 91.479919 191.128366 
L 91.479919 193.673723 
L 91.667152 193.673723 
L 91.667152 196.21908 
L 92.209585 196.21908 
L 92.209585 198.764437 
L 92.483628 198.764437 
L 92.483628 201.309794 
L 93.026664 201.309794 
L 93.026664 203.855151 
L 93.554249 203.855151 
L 93.554249 206.400508 
L 94.947015 206.400508 
L 94.947015 208.945865 
L 95.811874 208.945865 
L 95.811874 211.568354 
L 96.032012 211.568354 
L 96.032012 214.190843 
L 96.372018 214.190843 
L 96.372018 216.813332 
L 96.782044 216.813332 
L 96.782044 219.435821 
L 96.896434 219.435821 
L 96.896434 222.05831 
L 98.113081 222.05831 
L 98.212486 227.303287 
L 98.83626 227.303287 
L 98.83626 229.925776 
L 99.635743 229.925776 
L 99.635743 232.548265 
L 100.947206 232.548265 
L 100.947206 235.170754 
L 102.628621 235.170754 
L 102.628621 237.793243 
L 104.631815 237.793243 
L 104.631815 240.540613 
L 108.060645 240.540613 
L 108.060645 243.43258 
L 108.771925 243.43258 
L 108.771925 246.324548 
L 109.084221 246.324548 
L 109.084221 249.216516 
L 109.609071 249.216516 
L 109.70592 257.892419 
L 110.112253 257.892419 
L 110.112253 260.784387 
L 111.208537 260.784387 
L 111.208537 263.676355 
L 118.753414 263.676355 
L 118.753414 266.857519 
L 119.448247 266.857519 
L 119.448247 270.038684 
L 119.964746 270.038684 
L 119.964746 273.219848 
L 124.311838 273.219848 
L 124.311838 276.401013 
L 129.27785 276.401013 
L 129.27785 279.582177 
L 132.990147 279.582177 
L 132.990147 282.763342 
L 134.694964 282.763342 
L 134.694964 287.004895 
L 139.764779 287.004895 
L 139.764779 291.246447 
L 153.943941 291.246447 
L 153.943941 295.488 
L 153.943941 295.488 
" clip-path="url(#p66fd5d3ee8)" style="fill: none; stroke: #1f77b4; stroke-width: 1.5; stroke-linecap: square"/>
   </g>
   <g id="line2d_15">
    <path d="M 73.832727 53.568 
L 73.875959 53.568 
L 73.875959 55.488 
L 74.049969 55.488 
L 74.049969 57.408 
L 76.077934 57.408 
L 76.077934 59.34361 
L 78.546962 59.34361 
L 78.546962 61.31148 
L 80.70908 61.31148 
L 80.70908 63.347797 
L 80.947861 63.347797 
L 80.947861 65.384115 
L 81.864727 65.384115 
L 81.864727 67.438614 
L 82.248469 67.438614 
L 82.248469 69.493113 
L 82.582238 69.493113 
L 82.582238 71.547612 
L 83.832634 71.547612 
L 83.832634 73.602111 
L 84.255374 73.602111 
L 84.255374 75.65661 
L 84.825833 75.65661 
L 84.825833 77.730491 
L 85.087947 77.730491 
L 85.087947 79.804372 
L 86.089176 79.804372 
L 86.089176 81.898388 
L 86.698801 81.898388 
L 86.698801 83.992403 
L 88.784049 83.992403 
L 88.784049 86.086419 
L 91.297654 86.086419 
L 91.297654 88.180435 
L 92.307572 88.180435 
L 92.307572 90.317626 
L 98.055383 90.317626 
L 98.112968 94.876968 
L 98.925315 94.876968 
L 98.925315 97.209654 
L 98.929689 97.209654 
L 99.169749 97.209654 
L 99.169749 99.570111 
L 100.45722 99.570111 
L 100.45722 101.959353 
L 102.344334 101.959353 
L 102.344334 104.44049 
L 102.417614 104.44049 
L 102.805358 104.44049 
L 102.805358 106.954273 
L 104.88582 106.954273 
L 104.88582 109.468056 
L 107.573002 109.468056 
L 107.573002 111.981839 
L 107.862263 111.981839 
L 107.862263 114.495622 
L 108.289124 114.495622 
L 108.289124 117.009405 
L 110.108125 117.009405 
L 110.108125 119.559099 
L 110.606089 119.559099 
L 110.606089 122.108794 
L 112.312148 122.108794 
L 112.312148 124.658488 
L 112.668499 124.658488 
L 112.668499 127.208182 
L 113.227978 127.208182 
L 113.227978 129.757876 
L 113.779134 129.757876 
L 113.779134 132.30757 
L 116.52957 132.30757 
L 116.622462 137.406959 
L 117.401066 137.406959 
L 117.45758 139.956653 
L 117.45758 139.956653 
L 121.029705 139.956653 
L 121.029705 142.592778 
L 124.293166 142.592778 
L 124.293166 145.27515 
L 126.779404 145.27515 
L 126.779404 148.006293 
L 126.994859 148.006293 
L 126.994859 150.737435 
L 129.959844 150.737435 
L 129.959844 153.632447 
L 130.135591 153.632447 
L 130.135591 156.527458 
L 131.742499 156.527458 
L 131.742499 159.422469 
L 132.003483 159.422469 
L 132.108263 165.212492 
L 133.825592 165.212492 
L 133.825592 168.173299 
L 133.882514 168.173299 
L 137.098564 168.173299 
L 137.098564 171.356166 
L 137.438924 171.356166 
L 137.438924 174.539034 
L 141.427136 174.539034 
L 141.427136 177.721901 
L 147.468331 177.721901 
L 147.468331 181.086647 
L 148.63941 181.086647 
L 148.63941 184.553355 
L 150.474234 184.553355 
L 150.550826 191.48677 
L 158.907479 191.48677 
L 158.907479 195.486817 
L 166.778207 195.486817 
L 166.778207 199.653533 
L 167.885217 199.653533 
L 167.885217 204.009645 
L 169.469278 204.009645 
L 169.469278 208.365758 
L 173.466053 208.365758 
L 173.466053 212.951139 
L 195.416768 212.951139 
L 195.416768 219.300128 
L 206.748139 219.300128 
L 206.748139 225.649117 
L 211.044992 225.649117 
L 211.044992 232.633006 
L 240.480299 232.633006 
L 240.480299 240.48988 
L 246.852344 240.48988 
L 246.852344 248.346754 
L 252.701286 248.346754 
L 252.701286 256.203629 
L 256.905791 256.203629 
L 256.905791 266.024721 
L 398.487273 266.024721 
L 398.487273 295.488 
L 398.487273 295.488 
" clip-path="url(#p66fd5d3ee8)" style="fill: none; stroke: #ff7f0e; stroke-width: 1.5; stroke-linecap: square"/>
   </g>
   <g id="patch_3">
    <path d="M 57.6 307.584 
L 57.6 41.472 
" style="fill: none; stroke: #000000; stroke-width: 0.8; stroke-linejoin: miter; stroke-linecap: square"/>
   </g>
   <g id="patch_4">
    <path d="M 414.72 307.584 
L 414.72 41.472 
" style="fill: none; stroke: #000000; stroke-width: 0.8; stroke-linejoin: miter; stroke-linecap: square"/>
   </g>
   <g id="patch_5">
    <path d="M 57.6 307.584 
L 414.72 307.584 
" style="fill: none; stroke: #000000; stroke-width: 0.8; stroke-linejoin: miter; stroke-linecap: square"/>
   </g>
   <g id="patch_6">
    <path d="M 57.6 41.472 
L 414.72 41.472 
" style="fill: none; stroke: #000000; stroke-width: 0.8; stroke-linejoin: miter; stroke-linecap: square"/>
   </g>
   <g id="text_16">
    <!-- Obesity effect on mortality when -->
    <g transform="translate(137.427188 22.034625) scale(0.12 -0.12)">
     <defs>
      <path id="DejaVuSans-4f" d="M 2522 4238 
Q 1834 4238 1429 3725 
Q 1025 3213 1025 2328 
Q 1025 1447 1429 934 
Q 1834 422 2522 422 
Q 3209 422 3611 934 
Q 4013 1447 4013 2328 
Q 4013 3213 3611 3725 
Q 3209 4238 2522 4238 
z
M 2522 4750 
Q 3503 4750 4090 4092 
Q 4678 3434 4678 2328 
Q 4678 1225 4090 567 
Q 3503 -91 2522 -91 
Q 1538 -91 948 565 
Q 359 1222 359 2328 
Q 359 3434 948 4092 
Q 1538 4750 2522 4750 
z
" transform="scale(0.015625)"/>
      <path id="DejaVuSans-62" d="M 3116 1747 
Q 3116 2381 2855 2742 
Q 2594 3103 2138 3103 
Q 1681 3103 1420 2742 
Q 1159 2381 1159 1747 
Q 1159 1113 1420 752 
Q 1681 391 2138 391 
Q 2594 391 2855 752 
Q 3116 1113 3116 1747 
z
M 1159 2969 
Q 1341 3281 1617 3432 
Q 1894 3584 2278 3584 
Q 2916 3584 3314 3078 
Q 3713 2572 3713 1747 
Q 3713 922 3314 415 
Q 2916 -91 2278 -91 
Q 1894 -91 1617 61 
Q 1341 213 1159 525 
L 1159 0 
L 581 0 
L 581 4863 
L 1159 4863 
L 1159 2969 
z
" transform="scale(0.015625)"/>
      <path id="DejaVuSans-65" d="M 3597 1894 
L 3597 1613 
L 953 1613 
Q 991 1019 1311 708 
Q 1631 397 2203 397 
Q 2534 397 2845 478 
Q 3156 559 3463 722 
L 3463 178 
Q 3153 47 2828 -22 
Q 2503 -91 2169 -91 
Q 1331 -91 842 396 
Q 353 884 353 1716 
Q 353 2575 817 3079 
Q 1281 3584 2069 3584 
Q 2775 3584 3186 3129 
Q 3597 2675 3597 1894 
z
M 3022 2063 
Q 3016 2534 2758 2815 
Q 2500 3097 2075 3097 
Q 1594 3097 1305 2825 
Q 1016 2553 972 2059 
L 3022 2063 
z
" transform="scale(0.015625)"/>
      <path id="DejaVuSans-73" d="M 2834 3397 
L 2834 2853 
Q 2591 2978 2328 3040 
Q 2066 3103 1784 3103 
Q 1356 3103 1142 2972 
Q 928 2841 928 2578 
Q 928 2378 1081 2264 
Q 1234 2150 1697 2047 
L 1894 2003 
Q 2506 1872 2764 1633 
Q 3022 1394 3022 966 
Q 3022 478 2636 193 
Q 2250 -91 1575 -91 
Q 1294 -91 989 -36 
Q 684 19 347 128 
L 347 722 
Q 666 556 975 473 
Q 1284 391 1588 391 
Q 1994 391 2212 530 
Q 2431 669 2431 922 
Q 2431 1156 2273 1281 
Q 2116 1406 1581 1522 
L 1381 1569 
Q 847 1681 609 1914 
Q 372 2147 372 2553 
Q 372 3047 722 3315 
Q 1072 3584 1716 3584 
Q 2034 3584 2315 3537 
Q 2597 3491 2834 3397 
z
" transform="scale(0.015625)"/>
      <path id="DejaVuSans-69" d="M 603 3500 
L 1178 3500 
L 1178 0 
L 603 0 
L 603 3500 
z
M 603 4863 
L 1178 4863 
L 1178 4134 
L 603 4134 
L 603 4863 
z
" transform="scale(0.015625)"/>
      <path id="DejaVuSans-74" d="M 1172 4494 
L 1172 3500 
L 2356 3500 
L 2356 3053 
L 1172 3053 
L 1172 1153 
Q 1172 725 1289 603 
Q 1406 481 1766 481 
L 2356 481 
L 2356 0 
L 1766 0 
Q 1100 0 847 248 
Q 594 497 594 1153 
L 594 3053 
L 172 3053 
L 172 3500 
L 594 3500 
L 594 4494 
L 1172 4494 
z
" transform="scale(0.015625)"/>
      <path id="DejaVuSans-79" d="M 2059 -325 
Q 1816 -950 1584 -1140 
Q 1353 -1331 966 -1331 
L 506 -1331 
L 506 -850 
L 844 -850 
Q 1081 -850 1212 -737 
Q 1344 -625 1503 -206 
L 1606 56 
L 191 3500 
L 800 3500 
L 1894 763 
L 2988 3500 
L 3597 3500 
L 2059 -325 
z
" transform="scale(0.015625)"/>
      <path id="DejaVuSans-20" transform="scale(0.015625)"/>
      <path id="DejaVuSans-66" d="M 2375 4863 
L 2375 4384 
L 1825 4384 
Q 1516 4384 1395 4259 
Q 1275 4134 1275 3809 
L 1275 3500 
L 2222 3500 
L 2222 3053 
L 1275 3053 
L 1275 0 
L 697 0 
L 697 3053 
L 147 3053 
L 147 3500 
L 697 3500 
L 697 3744 
Q 697 4328 969 4595 
Q 1241 4863 1831 4863 
L 2375 4863 
z
" transform="scale(0.015625)"/>
      <path id="DejaVuSans-63" d="M 3122 3366 
L 3122 2828 
Q 2878 2963 2633 3030 
Q 2388 3097 2138 3097 
Q 1578 3097 1268 2742 
Q 959 2388 959 1747 
Q 959 1106 1268 751 
Q 1578 397 2138 397 
Q 2388 397 2633 464 
Q 2878 531 3122 666 
L 3122 134 
Q 2881 22 2623 -34 
Q 2366 -91 2075 -91 
Q 1284 -91 818 406 
Q 353 903 353 1747 
Q 353 2603 823 3093 
Q 1294 3584 2113 3584 
Q 2378 3584 2631 3529 
Q 2884 3475 3122 3366 
z
" transform="scale(0.015625)"/>
      <path id="DejaVuSans-6f" d="M 1959 3097 
Q 1497 3097 1228 2736 
Q 959 2375 959 1747 
Q 959 1119 1226 758 
Q 1494 397 1959 397 
Q 2419 397 2687 759 
Q 2956 1122 2956 1747 
Q 2956 2369 2687 2733 
Q 2419 3097 1959 3097 
z
M 1959 3584 
Q 2709 3584 3137 3096 
Q 3566 2609 3566 1747 
Q 3566 888 3137 398 
Q 2709 -91 1959 -91 
Q 1206 -91 779 398 
Q 353 888 353 1747 
Q 353 2609 779 3096 
Q 1206 3584 1959 3584 
z
" transform="scale(0.015625)"/>
      <path id="DejaVuSans-6e" d="M 3513 2113 
L 3513 0 
L 2938 0 
L 2938 2094 
Q 2938 2591 2744 2837 
Q 2550 3084 2163 3084 
Q 1697 3084 1428 2787 
Q 1159 2491 1159 1978 
L 1159 0 
L 581 0 
L 581 3500 
L 1159 3500 
L 1159 2956 
Q 1366 3272 1645 3428 
Q 1925 3584 2291 3584 
Q 2894 3584 3203 3211 
Q 3513 2838 3513 2113 
z
" transform="scale(0.015625)"/>
      <path id="DejaVuSans-6d" d="M 3328 2828 
Q 3544 3216 3844 3400 
Q 4144 3584 4550 3584 
Q 5097 3584 5394 3201 
Q 5691 2819 5691 2113 
L 5691 0 
L 5113 0 
L 5113 2094 
Q 5113 2597 4934 2840 
Q 4756 3084 4391 3084 
Q 3944 3084 3684 2787 
Q 3425 2491 3425 1978 
L 3425 0 
L 2847 0 
L 2847 2094 
Q 2847 2600 2669 2842 
Q 2491 3084 2119 3084 
Q 1678 3084 1418 2786 
Q 1159 2488 1159 1978 
L 1159 0 
L 581 0 
L 581 3500 
L 1159 3500 
L 1159 2956 
Q 1356 3278 1631 3431 
Q 1906 3584 2284 3584 
Q 2666 3584 2933 3390 
Q 3200 3197 3328 2828 
z
" transform="scale(0.015625)"/>
      <path id="DejaVuSans-72" d="M 2631 2963 
Q 2534 3019 2420 3045 
Q 2306 3072 2169 3072 
Q 1681 3072 1420 2755 
Q 1159 2438 1159 1844 
L 1159 0 
L 581 0 
L 581 3500 
L 1159 3500 
L 1159 2956 
Q 1341 3275 1631 3429 
Q 1922 3584 2338 3584 
Q 2397 3584 2469 3576 
Q 2541 3569 2628 3553 
L 2631 2963 
z
" transform="scale(0.015625)"/>
      <path id="DejaVuSans-61" d="M 2194 1759 
Q 1497 1759 1228 1600 
Q 959 1441 959 1056 
Q 959 750 1161 570 
Q 1363 391 1709 391 
Q 2188 391 2477 730 
Q 2766 1069 2766 1631 
L 2766 1759 
L 2194 1759 
z
M 3341 1997 
L 3341 0 
L 2766 0 
L 2766 531 
Q 2569 213 2275 61 
Q 1981 -91 1556 -91 
Q 1019 -91 701 211 
Q 384 513 384 1019 
Q 384 1609 779 1909 
Q 1175 2209 1959 2209 
L 2766 2209 
L 2766 2266 
Q 2766 2663 2505 2880 
Q 2244 3097 1772 3097 
Q 1472 3097 1187 3025 
Q 903 2953 641 2809 
L 641 3341 
Q 956 3463 1253 3523 
Q 1550 3584 1831 3584 
Q 2591 3584 2966 3190 
Q 3341 2797 3341 1997 
z
" transform="scale(0.015625)"/>
      <path id="DejaVuSans-6c" d="M 603 4863 
L 1178 4863 
L 1178 0 
L 603 0 
L 603 4863 
z
" transform="scale(0.015625)"/>
      <path id="DejaVuSans-77" d="M 269 3500 
L 844 3500 
L 1563 769 
L 2278 3500 
L 2956 3500 
L 3675 769 
L 4391 3500 
L 4966 3500 
L 4050 0 
L 3372 0 
L 2619 2869 
L 1863 0 
L 1184 0 
L 269 3500 
z
" transform="scale(0.015625)"/>
      <path id="DejaVuSans-68" d="M 3513 2113 
L 3513 0 
L 2938 0 
L 2938 2094 
Q 2938 2591 2744 2837 
Q 2550 3084 2163 3084 
Q 1697 3084 1428 2787 
Q 1159 2491 1159 1978 
L 1159 0 
L 581 0 
L 581 4863 
L 1159 4863 
L 1159 2956 
Q 1366 3272 1645 3428 
Q 1925 3584 2291 3584 
Q 2894 3584 3203 3211 
Q 3513 2838 3513 2113 
z
" transform="scale(0.015625)"/>
     </defs>
     <use xlink:href="#DejaVuSans-4f"/>
     <use xlink:href="#DejaVuSans-62" x="78.710938"/>
     <use xlink:href="#DejaVuSans-65" x="142.1875"/>
     <use xlink:href="#DejaVuSans-73" x="203.710938"/>
     <use xlink:href="#DejaVuSans-69" x="255.810547"/>
     <use xlink:href="#DejaVuSans-74" x="283.59375"/>
     <use xlink:href="#DejaVuSans-79" x="322.802734"/>
     <use xlink:href="#DejaVuSans-20" x="381.982422"/>
     <use xlink:href="#DejaVuSans-65" x="413.769531"/>
     <use xlink:href="#DejaVuSans-66" x="475.292969"/>
     <use xlink:href="#DejaVuSans-66" x="510.498047"/>
     <use xlink:href="#DejaVuSans-65" x="545.703125"/>
     <use xlink:href="#DejaVuSans-63" x="607.226562"/>
     <use xlink:href="#DejaVuSans-74" x="662.207031"/>
     <use xlink:href="#DejaVuSans-20" x="701.416016"/>
     <use xlink:href="#DejaVuSans-6f" x="733.203125"/>
     <use xlink:href="#DejaVuSans-6e" x="794.384766"/>
     <use xlink:href="#DejaVuSans-20" x="857.763672"/>
     <use xlink:href="#DejaVuSans-6d" x="889.550781"/>
     <use xlink:href="#DejaVuSans-6f" x="986.962891"/>
     <use xlink:href="#DejaVuSans-72" x="1048.144531"/>
     <use xlink:href="#DejaVuSans-74" x="1089.257812"/>
     <use xlink:href="#DejaVuSans-61" x="1128.466797"/>
     <use xlink:href="#DejaVuSans-6c" x="1189.746094"/>
     <use xlink:href="#DejaVuSans-69" x="1217.529297"/>
     <use xlink:href="#DejaVuSans-74" x="1245.3125"/>
     <use xlink:href="#DejaVuSans-79" x="1284.521484"/>
     <use xlink:href="#DejaVuSans-20" x="1343.701172"/>
     <use xlink:href="#DejaVuSans-77" x="1375.488281"/>
     <use xlink:href="#DejaVuSans-68" x="1457.275391"/>
     <use xlink:href="#DejaVuSans-65" x="1520.654297"/>
     <use xlink:href="#DejaVuSans-6e" x="1582.177734"/>
    </g>
    <!-- Family History = 0 &amp; Smoking = 0 -->
    <g transform="translate(133.709063 35.472) scale(0.12 -0.12)">
     <defs>
      <path id="DejaVuSans-46" d="M 628 4666 
L 3309 4666 
L 3309 4134 
L 1259 4134 
L 1259 2759 
L 3109 2759 
L 3109 2228 
L 1259 2228 
L 1259 0 
L 628 0 
L 628 4666 
z
" transform="scale(0.015625)"/>
      <path id="DejaVuSans-48" d="M 628 4666 
L 1259 4666 
L 1259 2753 
L 3553 2753 
L 3553 4666 
L 4184 4666 
L 4184 0 
L 3553 0 
L 3553 2222 
L 1259 2222 
L 1259 0 
L 628 0 
L 628 4666 
z
" transform="scale(0.015625)"/>
      <path id="DejaVuSans-3d" d="M 678 2906 
L 4684 2906 
L 4684 2381 
L 678 2381 
L 678 2906 
z
M 678 1631 
L 4684 1631 
L 4684 1100 
L 678 1100 
L 678 1631 
z
" transform="scale(0.015625)"/>
      <path id="DejaVuSans-26" d="M 1556 2509 
Q 1272 2256 1139 2004 
Q 1006 1753 1006 1478 
Q 1006 1022 1337 719 
Q 1669 416 2169 416 
Q 2466 416 2725 514 
Q 2984 613 3213 813 
L 1556 2509 
z
M 1997 2859 
L 3584 1234 
Q 3769 1513 3872 1830 
Q 3975 2147 3994 2503 
L 4575 2503 
Q 4538 2091 4375 1687 
Q 4213 1284 3922 891 
L 4794 0 
L 4006 0 
L 3559 459 
Q 3234 181 2878 45 
Q 2522 -91 2113 -91 
Q 1359 -91 881 339 
Q 403 769 403 1441 
Q 403 1841 612 2192 
Q 822 2544 1241 2853 
Q 1091 3050 1012 3245 
Q 934 3441 934 3628 
Q 934 4134 1281 4442 
Q 1628 4750 2203 4750 
Q 2463 4750 2720 4694 
Q 2978 4638 3244 4525 
L 3244 3956 
Q 2972 4103 2725 4179 
Q 2478 4256 2266 4256 
Q 1938 4256 1733 4082 
Q 1528 3909 1528 3634 
Q 1528 3475 1620 3314 
Q 1713 3153 1997 2859 
z
" transform="scale(0.015625)"/>
      <path id="DejaVuSans-53" d="M 3425 4513 
L 3425 3897 
Q 3066 4069 2747 4153 
Q 2428 4238 2131 4238 
Q 1616 4238 1336 4038 
Q 1056 3838 1056 3469 
Q 1056 3159 1242 3001 
Q 1428 2844 1947 2747 
L 2328 2669 
Q 3034 2534 3370 2195 
Q 3706 1856 3706 1288 
Q 3706 609 3251 259 
Q 2797 -91 1919 -91 
Q 1588 -91 1214 -16 
Q 841 59 441 206 
L 441 856 
Q 825 641 1194 531 
Q 1563 422 1919 422 
Q 2459 422 2753 634 
Q 3047 847 3047 1241 
Q 3047 1584 2836 1778 
Q 2625 1972 2144 2069 
L 1759 2144 
Q 1053 2284 737 2584 
Q 422 2884 422 3419 
Q 422 4038 858 4394 
Q 1294 4750 2059 4750 
Q 2388 4750 2728 4690 
Q 3069 4631 3425 4513 
z
" transform="scale(0.015625)"/>
      <path id="DejaVuSans-6b" d="M 581 4863 
L 1159 4863 
L 1159 1991 
L 2875 3500 
L 3609 3500 
L 1753 1863 
L 3688 0 
L 2938 0 
L 1159 1709 
L 1159 0 
L 581 0 
L 581 4863 
z
" transform="scale(0.015625)"/>
      <path id="DejaVuSans-67" d="M 2906 1791 
Q 2906 2416 2648 2759 
Q 2391 3103 1925 3103 
Q 1463 3103 1205 2759 
Q 947 2416 947 1791 
Q 947 1169 1205 825 
Q 1463 481 1925 481 
Q 2391 481 2648 825 
Q 2906 1169 2906 1791 
z
M 3481 434 
Q 3481 -459 3084 -895 
Q 2688 -1331 1869 -1331 
Q 1566 -1331 1297 -1286 
Q 1028 -1241 775 -1147 
L 775 -588 
Q 1028 -725 1275 -790 
Q 1522 -856 1778 -856 
Q 2344 -856 2625 -561 
Q 2906 -266 2906 331 
L 2906 616 
Q 2728 306 2450 153 
Q 2172 0 1784 0 
Q 1141 0 747 490 
Q 353 981 353 1791 
Q 353 2603 747 3093 
Q 1141 3584 1784 3584 
Q 2172 3584 2450 3431 
Q 2728 3278 2906 2969 
L 2906 3500 
L 3481 3500 
L 3481 434 
z
" transform="scale(0.015625)"/>
     </defs>
     <use xlink:href="#DejaVuSans-46"/>
     <use xlink:href="#DejaVuSans-61" x="48.394531"/>
     <use xlink:href="#DejaVuSans-6d" x="109.673828"/>
     <use xlink:href="#DejaVuSans-69" x="207.085938"/>
     <use xlink:href="#DejaVuSans-6c" x="234.869141"/>
     <use xlink:href="#DejaVuSans-79" x="262.652344"/>
     <use xlink:href="#DejaVuSans-20" x="321.832031"/>
     <use xlink:href="#DejaVuSans-48" x="353.619141"/>
     <use xlink:href="#DejaVuSans-69" x="428.814453"/>
     <use xlink:href="#DejaVuSans-73" x="456.597656"/>
     <use xlink:href="#DejaVuSans-74" x="508.697266"/>
     <use xlink:href="#DejaVuSans-6f" x="547.90625"/>
     <use xlink:href="#DejaVuSans-72" x="609.087891"/>
     <use xlink:href="#DejaVuSans-79" x="650.201172"/>
     <use xlink:href="#DejaVuSans-20" x="709.380859"/>
     <use xlink:href="#DejaVuSans-3d" x="741.167969"/>
     <use xlink:href="#DejaVuSans-20" x="824.957031"/>
     <use xlink:href="#DejaVuSans-30" x="856.744141"/>
     <use xlink:href="#DejaVuSans-20" x="920.367188"/>
     <use xlink:href="#DejaVuSans-26" x="952.154297"/>
     <use xlink:href="#DejaVuSans-20" x="1030.132812"/>
     <use xlink:href="#DejaVuSans-53" x="1061.919922"/>
     <use xlink:href="#DejaVuSans-6d" x="1125.396484"/>
     <use xlink:href="#DejaVuSans-6f" x="1222.808594"/>
     <use xlink:href="#DejaVuSans-6b" x="1283.990234"/>
     <use xlink:href="#DejaVuSans-69" x="1341.900391"/>
     <use xlink:href="#DejaVuSans-6e" x="1369.683594"/>
     <use xlink:href="#DejaVuSans-67" x="1433.0625"/>
     <use xlink:href="#DejaVuSans-20" x="1496.539062"/>
     <use xlink:href="#DejaVuSans-3d" x="1528.326172"/>
     <use xlink:href="#DejaVuSans-20" x="1612.115234"/>
     <use xlink:href="#DejaVuSans-30" x="1643.902344"/>
    </g>
   </g>
   <g id="legend_1">
    <g id="patch_7">
     <path d="M 316.421562 78.82825 
L 407.72 78.82825 
Q 409.72 78.82825 409.72 76.82825 
L 409.72 48.472 
Q 409.72 46.472 407.72 46.472 
L 316.421562 46.472 
Q 314.421562 46.472 314.421562 48.472 
L 314.421562 76.82825 
Q 314.421562 78.82825 316.421562 78.82825 
z
" style="fill: #ffffff; opacity: 0.8; stroke: #cccccc; stroke-linejoin: miter"/>
    </g>
    <g id="line2d_16">
     <path d="M 318.421562 54.570437 
L 328.421562 54.570437 
L 328.421562 54.570437 
L 338.421562 54.570437 
L 338.421562 54.570437 
" style="fill: none; stroke: #1f77b4; stroke-width: 1.5; stroke-linecap: square"/>
    </g>
    <g id="text_17">
     <!-- Obesity = 1 -->
     <g transform="translate(346.421562 58.070437) scale(0.1 -0.1)">
      <use xlink:href="#DejaVuSans-4f"/>
      <use xlink:href="#DejaVuSans-62" x="78.710938"/>
      <use xlink:href="#DejaVuSans-65" x="142.1875"/>
      <use xlink:href="#DejaVuSans-73" x="203.710938"/>
      <use xlink:href="#DejaVuSans-69" x="255.810547"/>
      <use xlink:href="#DejaVuSans-74" x="283.59375"/>
      <use xlink:href="#DejaVuSans-79" x="322.802734"/>
      <use xlink:href="#DejaVuSans-20" x="381.982422"/>
      <use xlink:href="#DejaVuSans-3d" x="413.769531"/>
      <use xlink:href="#DejaVuSans-20" x="497.558594"/>
      <use xlink:href="#DejaVuSans-31" x="529.345703"/>
     </g>
    </g>
    <g id="line2d_17">
     <path d="M 318.421562 69.248562 
L 328.421562 69.248562 
L 328.421562 69.248562 
L 338.421562 69.248562 
L 338.421562 69.248562 
" style="fill: none; stroke: #ff7f0e; stroke-width: 1.5; stroke-linecap: square"/>
    </g>
    <g id="text_18">
     <!-- Obesity = 0 -->
     <g transform="translate(346.421562 72.748562) scale(0.1 -0.1)">
      <use xlink:href="#DejaVuSans-4f"/>
      <use xlink:href="#DejaVuSans-62" x="78.710938"/>
      <use xlink:href="#DejaVuSans-65" x="142.1875"/>
      <use xlink:href="#DejaVuSans-73" x="203.710938"/>
      <use xlink:href="#DejaVuSans-69" x="255.810547"/>
      <use xlink:href="#DejaVuSans-74" x="283.59375"/>
      <use xlink:href="#DejaVuSans-79" x="322.802734"/>
      <use xlink:href="#DejaVuSans-20" x="381.982422"/>
      <use xlink:href="#DejaVuSans-3d" x="413.769531"/>
      <use xlink:href="#DejaVuSans-20" x="497.558594"/>
      <use xlink:href="#DejaVuSans-30" x="529.345703"/>
     </g>
    </g>
   </g>
  </g>
 </g>
 <defs>
  <clipPath id="p66fd5d3ee8">
   <rect x="57.6" y="41.472" width="357.12" height="266.112"/>
  </clipPath>
 </defs>
</svg>
