<?xml version="1.0" encoding="utf-8" standalone="no"?>
<!DOCTYPE svg PUBLIC "-//W3C//DTD SVG 1.1//EN"
  "http://www.w3.org/Graphics/SVG/1.1/DTD/svg11.dtd">
<svg xmlns:xlink="http://www.w3.org/1999/xlink" width="460.8pt" height="345.6pt" viewBox="0 0 460.8 345.6" xmlns="http://www.w3.org/2000/svg" version="1.1">
 <metadata>
  <rdf:RDF xmlns:dc="http://purl.org/dc/elements/1.1/" xmlns:cc="http://creativecommons.org/ns#" xmlns:rdf="http://www.w3.org/1999/02/22-rdf-syntax-ns#">
   <cc:Work>
    <dc:type rdf:resource="http://purl.org/dc/dcmitype/StillImage"/>
    <dc:date>2025-01-13T14:23:08.490836</dc:date>
    <dc:format>image/svg+xml</dc:format>
    <dc:creator>
     <cc:Agent>
      <dc:title>Matplotlib v3.9.1.post1, https://matplotlib.org/</dc:title>
     </cc:Agent>
    </dc:creator>
   </cc:Work>
  </rdf:RDF>
 </metadata>
 <defs>
  <style type="text/css">*{stroke-linejoin: round; stroke-linecap: butt}</style>
 </defs>
 <g id="figure_1">
  <g id="patch_1">
   <path d="M 0 345.6 
L 460.8 345.6 
L 460.8 0 
L 0 0 
L 0 345.6 
z
" style="fill: none"/>
  </g>
  <g id="axes_1">
   <g id="patch_2">
    <path d="M 57.6 307.584 
L 414.72 307.584 
L 414.72 41.472 
L 57.6 41.472 
L 57.6 307.584 
z
" style="fill: none"/>
   </g>
   <g id="PolyCollection_1">
    <defs>
     <path id="m23c52ce09c" d="M 73.832727 -292.032 
L 73.832727 -292.032 
L 74.118839 -292.032 
L 74.118839 -278.623339 
L 74.280247 -278.623339 
L 74.280247 -276.922255 
L 74.774282 -276.922255 
L 74.774282 -274.479161 
L 74.857105 -274.479161 
L 74.857105 -271.9502 
L 75.157252 -271.9502 
L 75.157252 -269.430506 
L 75.706489 -269.430506 
L 75.706489 -266.940501 
L 76.288416 -266.940501 
L 76.288416 -264.48372 
L 76.92121 -264.48372 
L 76.92121 -262.059078 
L 78.395916 -262.059078 
L 78.395916 -259.66424 
L 79.351769 -259.66424 
L 79.351769 -257.29669 
L 79.36822 -257.29669 
L 79.36822 -254.954061 
L 79.374381 -254.954061 
L 79.374381 -252.634233 
L 80.55844 -252.634233 
L 80.55844 -250.335343 
L 80.670312 -250.335343 
L 80.670312 -248.05576 
L 81.442343 -248.05576 
L 81.442343 -245.79406 
L 81.500071 -245.79406 
L 81.500071 -243.548996 
L 81.806494 -243.548996 
L 81.806494 -241.31947 
L 81.878135 -241.31947 
L 81.878135 -239.104517 
L 82.247195 -239.104517 
L 82.247195 -236.903277 
L 82.363666 -236.903277 
L 82.363666 -234.714989 
L 82.60129 -234.714989 
L 82.60129 -232.538969 
L 82.825742 -232.538969 
L 82.825742 -230.374606 
L 83.457487 -230.374606 
L 83.457487 -228.221351 
L 83.573239 -228.221351 
L 83.573239 -226.078704 
L 83.658604 -226.078704 
L 83.658604 -223.946217 
L 83.891921 -223.946217 
L 83.891921 -221.823478 
L 84.001425 -221.823478 
L 84.001425 -219.710115 
L 84.383828 -219.710115 
L 84.383828 -217.605788 
L 84.497537 -217.605788 
L 84.497537 -215.510183 
L 85.206088 -215.510183 
L 85.206088 -213.423016 
L 86.633083 -213.423016 
L 86.633083 -211.344022 
L 86.681817 -211.344022 
L 86.681817 -209.27296 
L 86.763856 -209.27296 
L 86.763856 -207.209606 
L 86.767704 -207.209606 
L 86.767704 -205.153755 
L 87.432301 -205.153755 
L 87.432301 -205.153755 
L 87.561027 -205.153755 
L 87.561027 -203.077354 
L 88.322034 -203.077354 
L 88.322034 -201.008518 
L 88.651843 -201.008518 
L 88.651843 -198.947062 
L 90.15638 -198.947062 
L 90.15638 -196.892813 
L 90.69153 -196.892813 
L 90.69153 -196.892813 
L 92.181024 -196.892813 
L 92.181024 -194.816323 
L 92.205381 -194.816323 
L 92.205381 -192.74716 
L 92.270793 -192.74716 
L 92.270793 -190.685167 
L 93.05444 -190.685167 
L 93.05444 -188.6302 
L 93.616168 -188.6302 
L 93.616168 -186.582128 
L 93.638593 -186.582128 
L 93.638593 -184.540827 
L 93.708966 -184.540827 
L 93.708966 -182.506185 
L 94.200573 -182.506185 
L 94.200573 -180.4781 
L 95.007358 -180.4781 
L 95.007358 -180.4781 
L 95.295378 -180.4781 
L 95.295378 -180.4781 
L 96.554131 -180.4781 
L 96.554131 -178.39144 
L 96.715502 -178.39144 
L 96.715502 -176.312026 
L 97.051989 -176.312026 
L 97.051989 -174.239745 
L 98.603264 -174.239745 
L 98.603264 -172.174496 
L 98.61813 -172.174496 
L 98.61813 -170.116187 
L 98.824629 -170.116187 
L 98.824629 -170.116187 
L 101.652474 -170.116187 
L 101.652474 -168.029013 
L 104.585252 -168.029013 
L 104.585252 -165.949098 
L 104.865445 -165.949098 
L 104.865445 -163.876358 
L 105.456674 -163.876358 
L 105.456674 -161.81072 
L 106.232267 -161.81072 
L 106.232267 -159.752119 
L 106.683674 -159.752119 
L 106.683674 -159.752119 
L 107.119568 -159.752119 
L 107.119568 -157.661452 
L 107.197274 -157.661452 
L 107.197274 -155.578239 
L 108.104365 -155.578239 
L 108.104365 -153.502425 
L 108.256747 -153.502425 
L 108.256747 -153.502425 
L 108.428469 -153.502425 
L 108.428469 -151.391918 
L 108.517048 -151.391918 
L 108.517048 -149.289306 
L 108.736309 -149.289306 
L 108.736309 -147.194546 
L 108.86144 -147.194546 
L 108.86144 -145.107601 
L 108.932058 -145.107601 
L 108.932058 -143.028445 
L 109.500717 -143.028445 
L 109.500717 -140.957061 
L 109.845414 -140.957061 
L 109.845414 -138.893439 
L 109.968013 -138.893439 
L 109.968013 -136.837579 
L 110.182807 -136.837579 
L 110.182807 -134.78949 
L 110.90612 -134.78949 
L 110.90612 -134.78949 
L 111.085742 -134.78949 
L 111.085742 -132.699274 
L 111.156773 -132.699274 
L 111.156773 -132.699274 
L 111.370747 -132.699274 
L 111.370747 -130.564383 
L 111.819849 -130.564383 
L 111.819849 -128.438906 
L 112.543483 -128.438906 
L 112.543483 -128.438906 
L 114.298698 -128.438906 
L 114.298698 -126.264917 
L 116.28169 -126.264917 
L 116.28169 -124.101382 
L 117.176868 -124.101382 
L 117.176868 -121.948339 
L 117.990741 -121.948339 
L 117.990741 -119.805841 
L 118.317242 -119.805841 
L 118.317242 -117.673959 
L 118.93924 -117.673959 
L 118.93924 -115.55278 
L 120.365904 -115.55278 
L 120.365904 -113.442409 
L 120.718403 -113.442409 
L 120.718403 -111.342968 
L 122.442165 -111.342968 
L 122.442165 -109.254602 
L 122.556403 -109.254602 
L 122.556403 -107.177473 
L 124.436065 -107.177473 
L 124.436065 -105.111765 
L 125.09452 -105.111765 
L 125.09452 -103.057687 
L 126.311605 -103.057687 
L 126.311605 -101.015474 
L 126.528405 -101.015474 
L 126.528405 -98.985386 
L 127.604036 -98.985386 
L 127.604036 -96.967715 
L 129.844924 -96.967715 
L 129.844924 -94.962786 
L 132.143004 -94.962786 
L 132.143004 -92.970958 
L 133.770312 -92.970958 
L 133.770312 -90.992633 
L 134.653614 -90.992633 
L 134.653614 -89.028258 
L 134.748759 -89.028258 
L 134.748759 -87.078329 
L 135.369455 -87.078329 
L 135.369455 -85.143402 
L 135.400851 -85.143402 
L 135.400851 -83.224097 
L 135.418625 -83.224097 
L 135.418625 -83.224097 
L 135.6531 -83.224097 
L 135.6531 -81.209303 
L 136.750672 -81.209303 
L 136.750672 -79.215327 
L 137.592146 -79.215327 
L 137.592146 -77.243186 
L 139.568052 -77.243186 
L 139.568052 -75.294048 
L 140.379426 -75.294048 
L 140.379426 -73.369259 
L 143.256372 -73.369259 
L 143.256372 -73.369259 
L 146.430065 -73.369259 
L 146.430065 -71.31105 
L 147.302277 -71.31105 
L 147.302277 -71.31105 
L 148.316674 -71.31105 
L 148.316674 -69.091053 
L 151.665194 -69.091053 
L 151.665194 -66.923787 
L 158.732058 -66.923787 
L 158.732058 -64.813345 
L 161.729662 -64.813345 
L 161.729662 -62.764912 
L 161.902373 -62.764912 
L 161.902373 -60.785142 
L 164.822923 -60.785142 
L 164.822923 -58.882741 
L 164.973505 -58.882741 
L 164.973505 -57.069403 
L 169.38714 -57.069403 
L 169.38714 -57.069403 
L 171.240835 -57.069403 
L 171.240835 -54.912223 
L 175.869249 -54.912223 
L 175.869249 -53.021143 
L 190.570287 -53.021143 
L 190.570287 -51.470945 
L 193.999262 -51.470945 
L 193.999262 -51.470945 
L 249.340712 -51.470945 
L 249.340712 -50.112 
L 249.340712 -50.112 
L 249.340712 -50.112 
L 249.340712 -69.731932 
L 193.999262 -69.731932 
L 193.999262 -69.731932 
L 190.570287 -69.731932 
L 190.570287 -73.887838 
L 175.869249 -73.887838 
L 175.869249 -77.806175 
L 171.240835 -77.806175 
L 171.240835 -81.520419 
L 169.38714 -81.520419 
L 169.38714 -81.520419 
L 164.973505 -81.520419 
L 164.973505 -84.83947 
L 164.822923 -84.83947 
L 164.822923 -88.084486 
L 161.902373 -88.084486 
L 161.902373 -91.264894 
L 161.729662 -91.264894 
L 161.729662 -94.3879 
L 158.732058 -94.3879 
L 158.732058 -97.459114 
L 151.665194 -97.459114 
L 151.665194 -100.482976 
L 148.316674 -100.482976 
L 148.316674 -103.463043 
L 147.302277 -103.463043 
L 147.302277 -103.463043 
L 146.430065 -103.463043 
L 146.430065 -106.265122 
L 143.256372 -106.265122 
L 143.256372 -106.265122 
L 140.379426 -106.265122 
L 140.379426 -108.917988 
L 139.568052 -108.917988 
L 139.568052 -111.549598 
L 137.592146 -111.549598 
L 137.592146 -114.161149 
L 136.750672 -114.161149 
L 136.750672 -116.753687 
L 135.6531 -116.753687 
L 135.6531 -119.328127 
L 135.418625 -119.328127 
L 135.418625 -119.328127 
L 135.400851 -119.328127 
L 135.400851 -121.798396 
L 135.369455 -121.798396 
L 135.369455 -124.254723 
L 134.748759 -124.254723 
L 134.748759 -126.697663 
L 134.653614 -126.697663 
L 134.653614 -129.12772 
L 133.770312 -129.12772 
L 133.770312 -131.545343 
L 132.143004 -131.545343 
L 132.143004 -133.950939 
L 129.844924 -133.950939 
L 129.844924 -136.344878 
L 127.604036 -136.344878 
L 127.604036 -138.727492 
L 126.528405 -138.727492 
L 126.528405 -141.099083 
L 126.311605 -141.099083 
L 126.311605 -143.459925 
L 125.09452 -143.459925 
L 125.09452 -145.810266 
L 124.436065 -145.810266 
L 124.436065 -148.15033 
L 122.556403 -148.15033 
L 122.556403 -150.480321 
L 122.442165 -150.480321 
L 122.442165 -152.800422 
L 120.718403 -152.800422 
L 120.718403 -155.110799 
L 120.365904 -155.110799 
L 120.365904 -157.411601 
L 118.93924 -157.411601 
L 118.93924 -159.702959 
L 118.317242 -159.702959 
L 118.317242 -161.984992 
L 117.990741 -161.984992 
L 117.990741 -164.257804 
L 117.176868 -164.257804 
L 117.176868 -166.521485 
L 116.28169 -166.521485 
L 116.28169 -168.776113 
L 114.298698 -168.776113 
L 114.298698 -171.021753 
L 112.543483 -171.021753 
L 112.543483 -171.021753 
L 111.819849 -171.021753 
L 111.819849 -173.218511 
L 111.370747 -173.218511 
L 111.370747 -175.407073 
L 111.156773 -175.407073 
L 111.156773 -175.407073 
L 111.085742 -175.407073 
L 111.085742 -177.550687 
L 110.90612 -177.550687 
L 110.90612 -177.550687 
L 110.182807 -177.550687 
L 110.182807 -179.651938 
L 109.968013 -179.651938 
L 109.968013 -181.746193 
L 109.845414 -181.746193 
L 109.845414 -183.833472 
L 109.500717 -183.833472 
L 109.500717 -185.913788 
L 108.932058 -185.913788 
L 108.932058 -187.987148 
L 108.86144 -187.987148 
L 108.86144 -190.053554 
L 108.736309 -190.053554 
L 108.736309 -192.112999 
L 108.517048 -192.112999 
L 108.517048 -194.16547 
L 108.428469 -194.16547 
L 108.428469 -196.210948 
L 108.256747 -196.210948 
L 108.256747 -196.210948 
L 108.104365 -196.210948 
L 108.104365 -198.221525 
L 107.197274 -198.221525 
L 107.197274 -200.225451 
L 107.119568 -200.225451 
L 107.119568 -202.222692 
L 106.683674 -202.222692 
L 106.683674 -202.222692 
L 106.232267 -202.222692 
L 106.232267 -204.187591 
L 105.456674 -204.187591 
L 105.456674 -206.146076 
L 104.865445 -206.146076 
L 104.865445 -208.098102 
L 104.585252 -208.098102 
L 104.585252 -210.043616 
L 101.652474 -210.043616 
L 101.652474 -211.98256 
L 98.824629 -211.98256 
L 98.824629 -211.98256 
L 98.61813 -211.98256 
L 98.61813 -213.892086 
L 98.603264 -213.892086 
L 98.603264 -215.795223 
L 97.051989 -215.795223 
L 97.051989 -217.691898 
L 96.715502 -217.691898 
L 96.715502 -219.582032 
L 96.554131 -219.582032 
L 96.554131 -221.465537 
L 95.295378 -221.465537 
L 95.295378 -221.465537 
L 95.007358 -221.465537 
L 95.007358 -221.465537 
L 94.200573 -221.465537 
L 94.200573 -223.301968 
L 93.708966 -223.301968 
L 93.708966 -225.132143 
L 93.638593 -225.132143 
L 93.638593 -226.955966 
L 93.616168 -226.955966 
L 93.616168 -228.773333 
L 93.05444 -228.773333 
L 93.05444 -230.584132 
L 92.270793 -230.584132 
L 92.270793 -232.388242 
L 92.205381 -232.388242 
L 92.205381 -234.185531 
L 92.181024 -234.185531 
L 92.181024 -235.975856 
L 90.69153 -235.975856 
L 90.69153 -235.975856 
L 90.15638 -235.975856 
L 90.15638 -237.741974 
L 88.651843 -237.741974 
L 88.651843 -239.501078 
L 88.322034 -239.501078 
L 88.322034 -241.252998 
L 87.561027 -241.252998 
L 87.561027 -242.997553 
L 87.432301 -242.997553 
L 87.432301 -242.997553 
L 86.767704 -242.997553 
L 86.767704 -244.718854 
L 86.763856 -244.718854 
L 86.763856 -246.432642 
L 86.681817 -246.432642 
L 86.681817 -248.138697 
L 86.633083 -248.138697 
L 86.633083 -249.836779 
L 85.206088 -249.836779 
L 85.206088 -251.526629 
L 84.497537 -251.526629 
L 84.497537 -253.207962 
L 84.383828 -253.207962 
L 84.383828 -254.88047 
L 84.001425 -254.88047 
L 84.001425 -256.543814 
L 83.891921 -256.543814 
L 83.891921 -258.197623 
L 83.658604 -258.197623 
L 83.658604 -259.841488 
L 83.573239 -259.841488 
L 83.573239 -261.47496 
L 83.457487 -261.47496 
L 83.457487 -263.097539 
L 82.825742 -263.097539 
L 82.825742 -264.708672 
L 82.60129 -264.708672 
L 82.60129 -266.307739 
L 82.363666 -266.307739 
L 82.363666 -267.894048 
L 82.247195 -267.894048 
L 82.247195 -269.466815 
L 81.878135 -269.466815 
L 81.878135 -271.025155 
L 81.806494 -271.025155 
L 81.806494 -272.568055 
L 81.500071 -272.568055 
L 81.500071 -274.094354 
L 81.442343 -274.094354 
L 81.442343 -275.602702 
L 80.670312 -275.602702 
L 80.670312 -277.091524 
L 80.55844 -277.091524 
L 80.55844 -278.558957 
L 79.374381 -278.558957 
L 79.374381 -280.002771 
L 79.36822 -280.002771 
L 79.36822 -281.42026 
L 79.351769 -281.42026 
L 79.351769 -282.808083 
L 78.395916 -282.808083 
L 78.395916 -284.162034 
L 76.92121 -284.162034 
L 76.92121 -285.476684 
L 76.288416 -285.476684 
L 76.288416 -286.744814 
L 75.706489 -286.744814 
L 75.706489 -287.956447 
L 75.157252 -287.956447 
L 75.157252 -289.097071 
L 74.857105 -289.097071 
L 74.857105 -290.144036 
L 74.774282 -290.144036 
L 74.774282 -291.058094 
L 74.280247 -291.058094 
L 74.280247 -291.758438 
L 74.118839 -291.758438 
L 74.118839 -292.032 
L 73.832727 -292.032 
z
" style="stroke: #1f77b4; stroke-opacity: 0.25"/>
    </defs>
    <g clip-path="url(#pa4e7b2d1f1)">
     <use xlink:href="#m23c52ce09c" x="0" y="345.6" style="fill: #1f77b4; fill-opacity: 0.25; stroke: #1f77b4; stroke-opacity: 0.25"/>
    </g>
   </g>
   <g id="PolyCollection_2">
    <defs>
     <path id="mc54554a25a" d="M 73.832727 -292.032 
L 73.832727 -292.032 
L 73.840937 -292.032 
L 73.840937 -279.318019 
L 73.899358 -279.318019 
L 73.899358 -277.705292 
L 74.099527 -277.705292 
L 74.099527 -275.387641 
L 74.9875 -275.387641 
L 74.9875 -272.988022 
L 75.423951 -272.988022 
L 75.423951 -272.988022 
L 75.904901 -272.988022 
L 75.904901 -270.563412 
L 77.240397 -270.563412 
L 77.240397 -268.171819 
L 77.474244 -268.171819 
L 77.474244 -265.814511 
L 77.477462 -265.814511 
L 77.477462 -263.48942 
L 78.5575 -263.48942 
L 78.5575 -263.48942 
L 79.139991 -263.48942 
L 79.139991 -261.165803 
L 79.375608 -261.165803 
L 79.375608 -258.87095 
L 79.604946 -258.87095 
L 79.604946 -256.601877 
L 79.751958 -256.601877 
L 79.751958 -254.356076 
L 79.803892 -254.356076 
L 79.803892 -252.131427 
L 80.933198 -252.131427 
L 80.933198 -249.926128 
L 81.156379 -249.926128 
L 81.156379 -249.926128 
L 83.435413 -249.926128 
L 83.435413 -249.926128 
L 83.539625 -249.926128 
L 83.539625 -247.68677 
L 83.551637 -247.68677 
L 83.551637 -245.465946 
L 84.380662 -245.465946 
L 84.380662 -245.465946 
L 85.586852 -245.465946 
L 85.586852 -245.465946 
L 89.258599 -245.465946 
L 89.258599 -243.208933 
L 89.4649 -243.208933 
L 89.4649 -240.969619 
L 90.874253 -240.969619 
L 90.874253 -238.746665 
L 90.985106 -238.746665 
L 90.985106 -236.538922 
L 91.327918 -236.538922 
L 91.327918 -236.538922 
L 93.57767 -236.538922 
L 93.57767 -236.538922 
L 94.302049 -236.538922 
L 94.302049 -236.538922 
L 94.353957 -236.538922 
L 94.353957 -234.262503 
L 96.035597 -234.262503 
L 96.035597 -232.001813 
L 96.110256 -232.001813 
L 96.110256 -229.755821 
L 96.701515 -229.755821 
L 96.701515 -227.52363 
L 97.736731 -227.52363 
L 97.736731 -225.304453 
L 99.736104 -225.304453 
L 99.736104 -225.304453 
L 99.94725 -225.304453 
L 99.94725 -223.068823 
L 100.691833 -223.068823 
L 100.691833 -220.845559 
L 101.371923 -220.845559 
L 101.371923 -218.634051 
L 102.388454 -218.634051 
L 102.388454 -216.433754 
L 103.294571 -216.433754 
L 103.294571 -214.244181 
L 103.347788 -214.244181 
L 103.347788 -212.064891 
L 103.413424 -212.064891 
L 103.413424 -209.895487 
L 103.478143 -209.895487 
L 103.478143 -209.895487 
L 103.696432 -209.895487 
L 103.696432 -207.705596 
L 104.99778 -207.705596 
L 104.99778 -205.52545 
L 105.824635 -205.52545 
L 105.824635 -203.354713 
L 107.212012 -203.354713 
L 107.212012 -201.193083 
L 107.517863 -201.193083 
L 107.517863 -199.040282 
L 107.785757 -199.040282 
L 107.785757 -196.896057 
L 108.525572 -196.896057 
L 108.525572 -194.760176 
L 108.708171 -194.760176 
L 108.708171 -194.760176 
L 109.736925 -194.760176 
L 109.736925 -194.760176 
L 110.117933 -194.760176 
L 110.117933 -192.567427 
L 110.121366 -192.567427 
L 110.121366 -190.383644 
L 112.548666 -190.383644 
L 112.548666 -188.208598 
L 112.899738 -188.208598 
L 112.899738 -186.042076 
L 113.216743 -186.042076 
L 113.216743 -183.883886 
L 116.758698 -183.883886 
L 116.758698 -181.733852 
L 117.130966 -181.733852 
L 117.130966 -179.591812 
L 117.219042 -179.591812 
L 117.219042 -179.591812 
L 117.914883 -179.591812 
L 117.914883 -177.421752 
L 118.856744 -177.421752 
L 118.856744 -175.259931 
L 119.862773 -175.259931 
L 119.862773 -173.106205 
L 121.347113 -173.106205 
L 121.347113 -170.960444 
L 123.739062 -170.960444 
L 123.739062 -168.822532 
L 123.809457 -168.822532 
L 123.809457 -166.692361 
L 124.287123 -166.692361 
L 124.287123 -164.569836 
L 125.872898 -164.569836 
L 125.872898 -162.454873 
L 126.684721 -162.454873 
L 126.684721 -160.347394 
L 126.916131 -160.347394 
L 126.916131 -158.247335 
L 129.446673 -158.247335 
L 129.446673 -156.154636 
L 131.097532 -156.154636 
L 131.097532 -154.06925 
L 131.264406 -154.06925 
L 131.264406 -151.991134 
L 132.352131 -151.991134 
L 132.352131 -149.920255 
L 132.530501 -149.920255 
L 132.530501 -147.856588 
L 132.695218 -147.856588 
L 132.695218 -145.800115 
L 133.495266 -145.800115 
L 133.495266 -143.750825 
L 134.459429 -143.750825 
L 134.459429 -141.708714 
L 134.960849 -141.708714 
L 134.960849 -139.673787 
L 136.978552 -139.673787 
L 136.978552 -137.646055 
L 139.665887 -137.646055 
L 139.665887 -135.625536 
L 140.313899 -135.625536 
L 140.313899 -135.625536 
L 142.374024 -135.625536 
L 142.374024 -133.564071 
L 144.900181 -133.564071 
L 144.900181 -131.51056 
L 146.106346 -131.51056 
L 146.106346 -129.465035 
L 149.166165 -129.465035 
L 149.166165 -129.465035 
L 149.276421 -129.465035 
L 149.276421 -129.465035 
L 149.456375 -129.465035 
L 149.456375 -127.318512 
L 154.452863 -127.318512 
L 154.452863 -125.181786 
L 155.654157 -125.181786 
L 155.654157 -123.054901 
L 160.434456 -123.054901 
L 160.434456 -123.054901 
L 161.338828 -123.054901 
L 161.338828 -120.875603 
L 161.741448 -120.875603 
L 161.741448 -118.707379 
L 161.776576 -118.707379 
L 161.776576 -116.550304 
L 162.771063 -116.550304 
L 162.771063 -114.404475 
L 164.245316 -114.404475 
L 164.245316 -112.270005 
L 164.306758 -112.270005 
L 164.306758 -112.270005 
L 165.639109 -112.270005 
L 165.639109 -112.270005 
L 168.617931 -112.270005 
L 168.617931 -109.994836 
L 170.506032 -109.994836 
L 170.506032 -107.734554 
L 174.845914 -107.734554 
L 174.845914 -105.489327 
L 176.371258 -105.489327 
L 176.371258 -103.259359 
L 179.739704 -103.259359 
L 179.739704 -101.044888 
L 179.919547 -101.044888 
L 179.919547 -98.846197 
L 182.637205 -98.846197 
L 182.637205 -96.663611 
L 184.860418 -96.663611 
L 184.860418 -94.497502 
L 185.556044 -94.497502 
L 185.556044 -92.348297 
L 185.691802 -92.348297 
L 185.691802 -92.348297 
L 186.977577 -92.348297 
L 186.977577 -92.348297 
L 189.898592 -92.348297 
L 189.898592 -92.348297 
L 192.647825 -92.348297 
L 192.647825 -89.852471 
L 193.444584 -89.852471 
L 193.444584 -87.387227 
L 200.553872 -87.387227 
L 200.553872 -84.953335 
L 200.755488 -84.953335 
L 200.755488 -82.55174 
L 202.148985 -82.55174 
L 202.148985 -80.183588 
L 215.040669 -80.183588 
L 215.040669 -77.850255 
L 215.511448 -77.850255 
L 215.511448 -75.553393 
L 217.075098 -75.553393 
L 217.075098 -73.294983 
L 219.718036 -73.294983 
L 219.718036 -73.294983 
L 222.990188 -73.294983 
L 222.990188 -70.859547 
L 228.459096 -70.859547 
L 228.459096 -68.483343 
L 236.174166 -68.483343 
L 236.174166 -66.17077 
L 236.240806 -66.17077 
L 236.240806 -63.927427 
L 264.941296 -63.927427 
L 264.941296 -61.760531 
L 265.533706 -61.760531 
L 265.533706 -61.760531 
L 271.08704 -61.760531 
L 271.08704 -61.760531 
L 278.977511 -61.760531 
L 278.977511 -58.744164 
L 289.461972 -58.744164 
L 289.461972 -56.034515 
L 297.516308 -56.034515 
L 297.516308 -53.678625 
L 343.503342 -53.678625 
L 343.503342 -51.764405 
L 361.416558 -51.764405 
L 361.416558 -50.469822 
L 398.487273 -50.469822 
L 398.487273 -50.469822 
L 398.487273 -68.251807 
L 398.487273 -68.251807 
L 398.487273 -68.251807 
L 361.416558 -68.251807 
L 361.416558 -73.428918 
L 343.503342 -73.428918 
L 343.503342 -78.335607 
L 297.516308 -78.335607 
L 297.516308 -82.929942 
L 289.461972 -82.929942 
L 289.461972 -87.254094 
L 278.977511 -87.254094 
L 278.977511 -91.338684 
L 271.08704 -91.338684 
L 271.08704 -91.338684 
L 265.533706 -91.338684 
L 265.533706 -91.338684 
L 264.941296 -91.338684 
L 264.941296 -94.787593 
L 236.240806 -94.787593 
L 236.240806 -98.172917 
L 236.174166 -98.172917 
L 236.174166 -101.500769 
L 228.459096 -101.500769 
L 228.459096 -104.775971 
L 222.990188 -104.775971 
L 222.990188 -108.002371 
L 219.718036 -108.002371 
L 219.718036 -108.002371 
L 217.075098 -108.002371 
L 217.075098 -111.035054 
L 215.511448 -111.035054 
L 215.511448 -114.035397 
L 215.040669 -114.035397 
L 215.040669 -117.005187 
L 202.148985 -117.005187 
L 202.148985 -119.94594 
L 200.755488 -119.94594 
L 200.755488 -122.858938 
L 200.553872 -122.858938 
L 200.553872 -125.745271 
L 193.444584 -125.745271 
L 193.444584 -128.605863 
L 192.647825 -128.605863 
L 192.647825 -131.44149 
L 189.898592 -131.44149 
L 189.898592 -131.44149 
L 186.977577 -131.44149 
L 186.977577 -131.44149 
L 185.691802 -131.44149 
L 185.691802 -131.44149 
L 185.556044 -131.44149 
L 185.556044 -134.001588 
L 184.860418 -134.001588 
L 184.860418 -136.547088 
L 182.637205 -136.547088 
L 182.637205 -139.078401 
L 179.919547 -139.078401 
L 179.919547 -141.595891 
L 179.739704 -141.595891 
L 179.739704 -144.099885 
L 176.371258 -144.099885 
L 176.371258 -146.590672 
L 174.845914 -146.590672 
L 174.845914 -149.068507 
L 170.506032 -149.068507 
L 170.506032 -151.533617 
L 168.617931 -151.533617 
L 168.617931 -153.986197 
L 165.639109 -153.986197 
L 165.639109 -153.986197 
L 164.306758 -153.986197 
L 164.306758 -153.986197 
L 164.245316 -153.986197 
L 164.245316 -156.319754 
L 162.771063 -156.319754 
L 162.771063 -158.643423 
L 161.776576 -158.643423 
L 161.776576 -160.957335 
L 161.741448 -160.957335 
L 161.741448 -163.261601 
L 161.338828 -163.261601 
L 161.338828 -165.556322 
L 160.434456 -165.556322 
L 160.434456 -165.556322 
L 155.654157 -165.556322 
L 155.654157 -167.798044 
L 154.452863 -167.798044 
L 154.452863 -170.031164 
L 149.456375 -170.031164 
L 149.456375 -172.255743 
L 149.276421 -172.255743 
L 149.276421 -172.255743 
L 149.166165 -172.255743 
L 149.166165 -172.255743 
L 146.106346 -172.255743 
L 146.106346 -174.395269 
L 144.900181 -174.395269 
L 144.900181 -176.527564 
L 142.374024 -176.527564 
L 142.374024 -178.652668 
L 140.313899 -178.652668 
L 140.313899 -178.652668 
L 139.665887 -178.652668 
L 139.665887 -180.736594 
L 136.978552 -180.736594 
L 136.978552 -182.813865 
L 134.960849 -182.813865 
L 134.960849 -184.884502 
L 134.459429 -184.884502 
L 134.459429 -186.948521 
L 133.495266 -186.948521 
L 133.495266 -189.005932 
L 132.695218 -189.005932 
L 132.695218 -191.056736 
L 132.530501 -191.056736 
L 132.530501 -193.100932 
L 132.352131 -193.100932 
L 132.352131 -195.138511 
L 131.264406 -195.138511 
L 131.264406 -197.169458 
L 131.097532 -197.169458 
L 131.097532 -199.193753 
L 129.446673 -199.193753 
L 129.446673 -201.211368 
L 126.916131 -201.211368 
L 126.916131 -203.222271 
L 126.684721 -203.222271 
L 126.684721 -205.226421 
L 125.872898 -205.226421 
L 125.872898 -207.223774 
L 124.287123 -207.223774 
L 124.287123 -209.214275 
L 123.809457 -209.214275 
L 123.809457 -211.197866 
L 123.739062 -211.197866 
L 123.739062 -213.174479 
L 121.347113 -213.174479 
L 121.347113 -215.144038 
L 119.862773 -215.144038 
L 119.862773 -217.106462 
L 118.856744 -217.106462 
L 118.856744 -219.061658 
L 117.914883 -219.061658 
L 117.914883 -221.009527 
L 117.219042 -221.009527 
L 117.219042 -221.009527 
L 117.130966 -221.009527 
L 117.130966 -222.928158 
L 116.758698 -222.928158 
L 116.758698 -224.839574 
L 113.216743 -224.839574 
L 113.216743 -226.743655 
L 112.899738 -226.743655 
L 112.899738 -228.640273 
L 112.548666 -228.640273 
L 112.548666 -230.529284 
L 110.121366 -230.529284 
L 110.121366 -232.410536 
L 110.117933 -232.410536 
L 110.117933 -234.283861 
L 109.736925 -234.283861 
L 109.736925 -234.283861 
L 108.708171 -234.283861 
L 108.708171 -234.283861 
L 108.525572 -234.283861 
L 108.525572 -236.111866 
L 107.785757 -236.111866 
L 107.785757 -237.932215 
L 107.517863 -237.932215 
L 107.517863 -239.744722 
L 107.212012 -239.744722 
L 107.212012 -241.549186 
L 105.824635 -241.549186 
L 105.824635 -243.345387 
L 104.99778 -243.345387 
L 104.99778 -245.133089 
L 103.696432 -245.133089 
L 103.696432 -246.912034 
L 103.478143 -246.912034 
L 103.478143 -246.912034 
L 103.413424 -246.912034 
L 103.413424 -248.666005 
L 103.347788 -248.666005 
L 103.347788 -250.410958 
L 103.294571 -250.410958 
L 103.294571 -252.146577 
L 102.388454 -252.146577 
L 102.388454 -253.872515 
L 101.371923 -253.872515 
L 101.371923 -255.588393 
L 100.691833 -255.588393 
L 100.691833 -257.293792 
L 99.94725 -257.293792 
L 99.94725 -258.988253 
L 99.736104 -258.988253 
L 99.736104 -258.988253 
L 97.736731 -258.988253 
L 97.736731 -260.657602 
L 96.701515 -260.657602 
L 96.701515 -262.315315 
L 96.110256 -262.315315 
L 96.110256 -263.960791 
L 96.035597 -263.960791 
L 96.035597 -265.593358 
L 94.353957 -265.593358 
L 94.353957 -267.212262 
L 94.302049 -267.212262 
L 94.302049 -267.212262 
L 93.57767 -267.212262 
L 93.57767 -267.212262 
L 91.327918 -267.212262 
L 91.327918 -267.212262 
L 90.985106 -267.212262 
L 90.985106 -268.781083 
L 90.874253 -268.781083 
L 90.874253 -270.335704 
L 89.4649 -270.335704 
L 89.4649 -271.875153 
L 89.258599 -271.875153 
L 89.258599 -273.398312 
L 85.586852 -273.398312 
L 85.586852 -273.398312 
L 84.380662 -273.398312 
L 84.380662 -273.398312 
L 83.551637 -273.398312 
L 83.551637 -274.883223 
L 83.539625 -274.883223 
L 83.539625 -276.350022 
L 83.435413 -276.350022 
L 83.435413 -276.350022 
L 81.156379 -276.350022 
L 81.156379 -276.350022 
L 80.933198 -276.350022 
L 80.933198 -277.778067 
L 79.803892 -277.778067 
L 79.803892 -279.185441 
L 79.751958 -279.185441 
L 79.751958 -280.56996 
L 79.604946 -280.56996 
L 79.604946 -281.92897 
L 79.375608 -281.92897 
L 79.375608 -283.259192 
L 79.139991 -283.259192 
L 79.139991 -284.556491 
L 78.5575 -284.556491 
L 78.5575 -284.556491 
L 77.477462 -284.556491 
L 77.477462 -285.80832 
L 77.474244 -285.80832 
L 77.474244 -287.015681 
L 77.240397 -287.015681 
L 77.240397 -288.16897 
L 75.904901 -288.16897 
L 75.904901 -289.254208 
L 75.423951 -289.254208 
L 75.423951 -289.254208 
L 74.9875 -289.254208 
L 74.9875 -290.244935 
L 74.099527 -290.244935 
L 74.099527 -291.110036 
L 73.899358 -291.110036 
L 73.899358 -291.772993 
L 73.840937 -291.772993 
L 73.840937 -292.032 
L 73.832727 -292.032 
z
" style="stroke: #ff7f0e; stroke-opacity: 0.25"/>
    </defs>
    <g clip-path="url(#pa4e7b2d1f1)">
     <use xlink:href="#mc54554a25a" x="0" y="345.6" style="fill: #ff7f0e; fill-opacity: 0.25; stroke: #ff7f0e; stroke-opacity: 0.25"/>
    </g>
   </g>
   <g id="matplotlib.axis_1">
    <g id="xtick_1">
     <g id="line2d_1">
      <defs>
       <path id="m6b8af1de51" d="M 0 0 
L 0 3.5 
" style="stroke: #000000; stroke-width: 0.8"/>
      </defs>
      <g>
       <use xlink:href="#m6b8af1de51" x="73.832727" y="307.584" style="stroke: #000000; stroke-width: 0.8"/>
      </g>
     </g>
     <g id="text_1">
      <!-- 0 -->
      <g transform="translate(70.651477 322.182437) scale(0.1 -0.1)">
       <defs>
        <path id="DejaVuSans-30" d="M 2034 4250 
Q 1547 4250 1301 3770 
Q 1056 3291 1056 2328 
Q 1056 1369 1301 889 
Q 1547 409 2034 409 
Q 2525 409 2770 889 
Q 3016 1369 3016 2328 
Q 3016 3291 2770 3770 
Q 2525 4250 2034 4250 
z
M 2034 4750 
Q 2819 4750 3233 4129 
Q 3647 3509 3647 2328 
Q 3647 1150 3233 529 
Q 2819 -91 2034 -91 
Q 1250 -91 836 529 
Q 422 1150 422 2328 
Q 422 3509 836 4129 
Q 1250 4750 2034 4750 
z
" transform="scale(0.015625)"/>
       </defs>
       <use xlink:href="#DejaVuSans-30"/>
      </g>
     </g>
    </g>
    <g id="xtick_2">
     <g id="line2d_2">
      <g>
       <use xlink:href="#m6b8af1de51" x="141.576694" y="307.584" style="stroke: #000000; stroke-width: 0.8"/>
      </g>
     </g>
     <g id="text_2">
      <!-- 2 -->
      <g transform="translate(138.395444 322.182437) scale(0.1 -0.1)">
       <defs>
        <path id="DejaVuSans-32" d="M 1228 531 
L 3431 531 
L 3431 0 
L 469 0 
L 469 531 
Q 828 903 1448 1529 
Q 2069 2156 2228 2338 
Q 2531 2678 2651 2914 
Q 2772 3150 2772 3378 
Q 2772 3750 2511 3984 
Q 2250 4219 1831 4219 
Q 1534 4219 1204 4116 
Q 875 4013 500 3803 
L 500 4441 
Q 881 4594 1212 4672 
Q 1544 4750 1819 4750 
Q 2544 4750 2975 4387 
Q 3406 4025 3406 3419 
Q 3406 3131 3298 2873 
Q 3191 2616 2906 2266 
Q 2828 2175 2409 1742 
Q 1991 1309 1228 531 
z
" transform="scale(0.015625)"/>
       </defs>
       <use xlink:href="#DejaVuSans-32"/>
      </g>
     </g>
    </g>
    <g id="xtick_3">
     <g id="line2d_3">
      <g>
       <use xlink:href="#m6b8af1de51" x="209.32066" y="307.584" style="stroke: #000000; stroke-width: 0.8"/>
      </g>
     </g>
     <g id="text_3">
      <!-- 4 -->
      <g transform="translate(206.13941 322.182437) scale(0.1 -0.1)">
       <defs>
        <path id="DejaVuSans-34" d="M 2419 4116 
L 825 1625 
L 2419 1625 
L 2419 4116 
z
M 2253 4666 
L 3047 4666 
L 3047 1625 
L 3713 1625 
L 3713 1100 
L 3047 1100 
L 3047 0 
L 2419 0 
L 2419 1100 
L 313 1100 
L 313 1709 
L 2253 4666 
z
" transform="scale(0.015625)"/>
       </defs>
       <use xlink:href="#DejaVuSans-34"/>
      </g>
     </g>
    </g>
    <g id="xtick_4">
     <g id="line2d_4">
      <g>
       <use xlink:href="#m6b8af1de51" x="277.064626" y="307.584" style="stroke: #000000; stroke-width: 0.8"/>
      </g>
     </g>
     <g id="text_4">
      <!-- 6 -->
      <g transform="translate(273.883376 322.182437) scale(0.1 -0.1)">
       <defs>
        <path id="DejaVuSans-36" d="M 2113 2584 
Q 1688 2584 1439 2293 
Q 1191 2003 1191 1497 
Q 1191 994 1439 701 
Q 1688 409 2113 409 
Q 2538 409 2786 701 
Q 3034 994 3034 1497 
Q 3034 2003 2786 2293 
Q 2538 2584 2113 2584 
z
M 3366 4563 
L 3366 3988 
Q 3128 4100 2886 4159 
Q 2644 4219 2406 4219 
Q 1781 4219 1451 3797 
Q 1122 3375 1075 2522 
Q 1259 2794 1537 2939 
Q 1816 3084 2150 3084 
Q 2853 3084 3261 2657 
Q 3669 2231 3669 1497 
Q 3669 778 3244 343 
Q 2819 -91 2113 -91 
Q 1303 -91 875 529 
Q 447 1150 447 2328 
Q 447 3434 972 4092 
Q 1497 4750 2381 4750 
Q 2619 4750 2861 4703 
Q 3103 4656 3366 4563 
z
" transform="scale(0.015625)"/>
       </defs>
       <use xlink:href="#DejaVuSans-36"/>
      </g>
     </g>
    </g>
    <g id="xtick_5">
     <g id="line2d_5">
      <g>
       <use xlink:href="#m6b8af1de51" x="344.808593" y="307.584" style="stroke: #000000; stroke-width: 0.8"/>
      </g>
     </g>
     <g id="text_5">
      <!-- 8 -->
      <g transform="translate(341.627343 322.182437) scale(0.1 -0.1)">
       <defs>
        <path id="DejaVuSans-38" d="M 2034 2216 
Q 1584 2216 1326 1975 
Q 1069 1734 1069 1313 
Q 1069 891 1326 650 
Q 1584 409 2034 409 
Q 2484 409 2743 651 
Q 3003 894 3003 1313 
Q 3003 1734 2745 1975 
Q 2488 2216 2034 2216 
z
M 1403 2484 
Q 997 2584 770 2862 
Q 544 3141 544 3541 
Q 544 4100 942 4425 
Q 1341 4750 2034 4750 
Q 2731 4750 3128 4425 
Q 3525 4100 3525 3541 
Q 3525 3141 3298 2862 
Q 3072 2584 2669 2484 
Q 3125 2378 3379 2068 
Q 3634 1759 3634 1313 
Q 3634 634 3220 271 
Q 2806 -91 2034 -91 
Q 1263 -91 848 271 
Q 434 634 434 1313 
Q 434 1759 690 2068 
Q 947 2378 1403 2484 
z
M 1172 3481 
Q 1172 3119 1398 2916 
Q 1625 2713 2034 2713 
Q 2441 2713 2670 2916 
Q 2900 3119 2900 3481 
Q 2900 3844 2670 4047 
Q 2441 4250 2034 4250 
Q 1625 4250 1398 4047 
Q 1172 3844 1172 3481 
z
" transform="scale(0.015625)"/>
       </defs>
       <use xlink:href="#DejaVuSans-38"/>
      </g>
     </g>
    </g>
    <g id="xtick_6">
     <g id="line2d_6">
      <g>
       <use xlink:href="#m6b8af1de51" x="412.552559" y="307.584" style="stroke: #000000; stroke-width: 0.8"/>
      </g>
     </g>
     <g id="text_6">
      <!-- 10 -->
      <g transform="translate(406.190059 322.182437) scale(0.1 -0.1)">
       <defs>
        <path id="DejaVuSans-31" d="M 794 531 
L 1825 531 
L 1825 4091 
L 703 3866 
L 703 4441 
L 1819 4666 
L 2450 4666 
L 2450 531 
L 3481 531 
L 3481 0 
L 794 0 
L 794 531 
z
" transform="scale(0.015625)"/>
       </defs>
       <use xlink:href="#DejaVuSans-31"/>
       <use xlink:href="#DejaVuSans-30" x="63.623047"/>
      </g>
     </g>
    </g>
    <g id="text_7">
     <!-- $t$ -->
     <g transform="translate(234.16 335.860562) scale(0.1 -0.1)">
      <defs>
       <path id="DejaVuSans-Oblique-74" d="M 2706 3500 
L 2619 3053 
L 1472 3053 
L 1100 1153 
Q 1081 1047 1072 975 
Q 1063 903 1063 863 
Q 1063 663 1183 572 
Q 1303 481 1569 481 
L 2150 481 
L 2053 0 
L 1503 0 
Q 991 0 739 200 
Q 488 400 488 806 
Q 488 878 497 964 
Q 506 1050 525 1153 
L 897 3053 
L 409 3053 
L 500 3500 
L 978 3500 
L 1172 4494 
L 1747 4494 
L 1556 3500 
L 2706 3500 
z
" transform="scale(0.015625)"/>
      </defs>
      <use xlink:href="#DejaVuSans-Oblique-74" transform="translate(0 0.78125)"/>
     </g>
    </g>
   </g>
   <g id="matplotlib.axis_2">
    <g id="ytick_1">
     <g id="line2d_7">
      <defs>
       <path id="m8fc39ffebb" d="M 0 0 
L -3.5 0 
" style="stroke: #000000; stroke-width: 0.8"/>
      </defs>
      <g>
       <use xlink:href="#m8fc39ffebb" x="57.6" y="295.488" style="stroke: #000000; stroke-width: 0.8"/>
      </g>
     </g>
     <g id="text_8">
      <!-- 0.0 -->
      <g transform="translate(34.696875 299.287219) scale(0.1 -0.1)">
       <defs>
        <path id="DejaVuSans-2e" d="M 684 794 
L 1344 794 
L 1344 0 
L 684 0 
L 684 794 
z
" transform="scale(0.015625)"/>
       </defs>
       <use xlink:href="#DejaVuSans-30"/>
       <use xlink:href="#DejaVuSans-2e" x="63.623047"/>
       <use xlink:href="#DejaVuSans-30" x="95.410156"/>
      </g>
     </g>
    </g>
    <g id="ytick_2">
     <g id="line2d_8">
      <g>
       <use xlink:href="#m8fc39ffebb" x="57.6" y="247.104" style="stroke: #000000; stroke-width: 0.8"/>
      </g>
     </g>
     <g id="text_9">
      <!-- 0.2 -->
      <g transform="translate(34.696875 250.903219) scale(0.1 -0.1)">
       <use xlink:href="#DejaVuSans-30"/>
       <use xlink:href="#DejaVuSans-2e" x="63.623047"/>
       <use xlink:href="#DejaVuSans-32" x="95.410156"/>
      </g>
     </g>
    </g>
    <g id="ytick_3">
     <g id="line2d_9">
      <g>
       <use xlink:href="#m8fc39ffebb" x="57.6" y="198.72" style="stroke: #000000; stroke-width: 0.8"/>
      </g>
     </g>
     <g id="text_10">
      <!-- 0.4 -->
      <g transform="translate(34.696875 202.519219) scale(0.1 -0.1)">
       <use xlink:href="#DejaVuSans-30"/>
       <use xlink:href="#DejaVuSans-2e" x="63.623047"/>
       <use xlink:href="#DejaVuSans-34" x="95.410156"/>
      </g>
     </g>
    </g>
    <g id="ytick_4">
     <g id="line2d_10">
      <g>
       <use xlink:href="#m8fc39ffebb" x="57.6" y="150.336" style="stroke: #000000; stroke-width: 0.8"/>
      </g>
     </g>
     <g id="text_11">
      <!-- 0.6 -->
      <g transform="translate(34.696875 154.135219) scale(0.1 -0.1)">
       <use xlink:href="#DejaVuSans-30"/>
       <use xlink:href="#DejaVuSans-2e" x="63.623047"/>
       <use xlink:href="#DejaVuSans-36" x="95.410156"/>
      </g>
     </g>
    </g>
    <g id="ytick_5">
     <g id="line2d_11">
      <g>
       <use xlink:href="#m8fc39ffebb" x="57.6" y="101.952" style="stroke: #000000; stroke-width: 0.8"/>
      </g>
     </g>
     <g id="text_12">
      <!-- 0.8 -->
      <g transform="translate(34.696875 105.751219) scale(0.1 -0.1)">
       <use xlink:href="#DejaVuSans-30"/>
       <use xlink:href="#DejaVuSans-2e" x="63.623047"/>
       <use xlink:href="#DejaVuSans-38" x="95.410156"/>
      </g>
     </g>
    </g>
    <g id="ytick_6">
     <g id="line2d_12">
      <g>
       <use xlink:href="#m8fc39ffebb" x="57.6" y="53.568" style="stroke: #000000; stroke-width: 0.8"/>
      </g>
     </g>
     <g id="text_13">
      <!-- 1.0 -->
      <g transform="translate(34.696875 57.367219) scale(0.1 -0.1)">
       <use xlink:href="#DejaVuSans-31"/>
       <use xlink:href="#DejaVuSans-2e" x="63.623047"/>
       <use xlink:href="#DejaVuSans-30" x="95.410156"/>
      </g>
     </g>
    </g>
    <g id="text_14">
     <!-- $S(t)$ -->
     <g transform="translate(28.617188 183.578) rotate(-90) scale(0.1 -0.1)">
      <defs>
       <path id="DejaVuSans-Oblique-53" d="M 3859 4513 
L 3738 3897 
Q 3422 4066 3111 4152 
Q 2800 4238 2509 4238 
Q 1944 4238 1609 3991 
Q 1275 3744 1275 3334 
Q 1275 3109 1398 2989 
Q 1522 2869 2034 2731 
L 2413 2638 
Q 3053 2472 3303 2217 
Q 3553 1963 3553 1503 
Q 3553 797 2998 353 
Q 2444 -91 1538 -91 
Q 1166 -91 791 -17 
Q 416 56 38 206 
L 166 856 
Q 513 641 861 531 
Q 1209 422 1556 422 
Q 2147 422 2503 684 
Q 2859 947 2859 1369 
Q 2859 1650 2717 1795 
Q 2575 1941 2106 2059 
L 1728 2156 
Q 1081 2325 845 2545 
Q 609 2766 609 3163 
Q 609 3859 1145 4304 
Q 1681 4750 2541 4750 
Q 2875 4750 3203 4690 
Q 3531 4631 3859 4513 
z
" transform="scale(0.015625)"/>
       <path id="DejaVuSans-28" d="M 1984 4856 
Q 1566 4138 1362 3434 
Q 1159 2731 1159 2009 
Q 1159 1288 1364 580 
Q 1569 -128 1984 -844 
L 1484 -844 
Q 1016 -109 783 600 
Q 550 1309 550 2009 
Q 550 2706 781 3412 
Q 1013 4119 1484 4856 
L 1984 4856 
z
" transform="scale(0.015625)"/>
       <path id="DejaVuSans-29" d="M 513 4856 
L 1013 4856 
Q 1481 4119 1714 3412 
Q 1947 2706 1947 2009 
Q 1947 1309 1714 600 
Q 1481 -109 1013 -844 
L 513 -844 
Q 928 -128 1133 580 
Q 1338 1288 1338 2009 
Q 1338 2731 1133 3434 
Q 928 4138 513 4856 
z
" transform="scale(0.015625)"/>
      </defs>
      <use xlink:href="#DejaVuSans-Oblique-53" transform="translate(0 0.125)"/>
      <use xlink:href="#DejaVuSans-28" transform="translate(63.476562 0.125)"/>
      <use xlink:href="#DejaVuSans-Oblique-74" transform="translate(102.490234 0.125)"/>
      <use xlink:href="#DejaVuSans-29" transform="translate(141.699219 0.125)"/>
     </g>
    </g>
   </g>
   <g id="line2d_13">
    <path d="M 73.832727 53.568 
L 74.118839 53.568 
L 74.118839 55.50336 
L 74.280247 55.50336 
L 74.280247 57.43872 
L 74.774282 57.43872 
L 74.857105 61.30944 
L 75.157252 61.30944 
L 75.157252 63.2448 
L 75.706489 63.2448 
L 75.706489 65.18016 
L 76.288416 65.18016 
L 76.288416 67.11552 
L 76.92121 67.11552 
L 76.92121 69.05088 
L 78.395916 69.05088 
L 78.395916 70.98624 
L 79.351769 70.98624 
L 79.374381 76.79232 
L 80.55844 76.79232 
L 80.55844 78.72768 
L 80.670312 78.72768 
L 80.670312 80.66304 
L 81.442343 80.66304 
L 81.500071 84.53376 
L 81.806494 84.53376 
L 81.878135 88.40448 
L 82.247195 88.40448 
L 82.247195 90.33984 
L 82.363666 90.33984 
L 82.363666 92.2752 
L 82.60129 92.2752 
L 82.60129 94.21056 
L 82.825742 94.21056 
L 82.825742 96.14592 
L 83.457487 96.14592 
L 83.457487 98.08128 
L 83.573239 98.08128 
L 83.658604 101.952 
L 83.891921 101.952 
L 84.001425 105.82272 
L 84.383828 105.82272 
L 84.383828 107.75808 
L 84.497537 107.75808 
L 84.497537 109.69344 
L 85.206088 109.69344 
L 85.206088 111.6288 
L 86.633083 111.6288 
L 86.681817 115.49952 
L 86.763856 115.49952 
L 86.767704 119.37024 
L 87.561027 119.37024 
L 87.561027 121.327104 
L 88.322034 121.327104 
L 88.322034 123.283968 
L 88.651843 123.283968 
L 88.651843 125.240832 
L 90.15638 125.240832 
L 90.15638 127.197696 
L 92.181024 127.197696 
L 92.270793 133.137354 
L 93.05444 133.137354 
L 93.05444 135.11724 
L 93.616168 135.11724 
L 93.708966 141.056898 
L 94.200573 141.056898 
L 94.200573 143.036783 
L 96.554131 143.036783 
L 96.554131 145.069466 
L 96.715502 145.069466 
L 96.715502 147.102149 
L 97.051989 147.102149 
L 97.051989 149.134832 
L 98.603264 149.134832 
L 98.61813 153.200198 
L 101.652474 153.200198 
L 101.652474 155.26234 
L 104.585252 155.26234 
L 104.585252 157.324482 
L 104.865445 157.324482 
L 104.865445 159.386624 
L 105.456674 159.386624 
L 105.456674 161.448766 
L 106.232267 161.448766 
L 106.232267 163.510908 
L 107.119568 163.510908 
L 107.197274 167.700657 
L 108.104365 167.700657 
L 108.104365 169.795532 
L 108.428469 169.795532 
L 108.517048 174.056293 
L 108.736309 174.056293 
L 108.736309 176.186674 
L 108.86144 176.186674 
L 108.932058 180.447436 
L 109.500717 180.447436 
L 109.500717 182.577817 
L 109.845414 182.577817 
L 109.845414 184.708197 
L 109.968013 184.708197 
L 109.968013 186.838578 
L 110.182807 186.838578 
L 110.182807 188.968959 
L 111.085742 188.968959 
L 111.085742 191.142817 
L 111.156773 191.142817 
L 111.370747 191.142817 
L 111.370747 193.362927 
L 111.819849 193.362927 
L 111.819849 195.583038 
L 114.298698 195.583038 
L 114.298698 197.853605 
L 116.28169 197.853605 
L 116.28169 200.124172 
L 117.176868 200.124172 
L 117.176868 202.394739 
L 117.990741 202.394739 
L 117.990741 204.665307 
L 118.317242 204.665307 
L 118.317242 206.935874 
L 118.93924 206.935874 
L 118.93924 209.206441 
L 120.365904 209.206441 
L 120.365904 211.477009 
L 120.718403 211.477009 
L 120.718403 213.747576 
L 122.442165 213.747576 
L 122.442165 216.018143 
L 122.556403 216.018143 
L 122.556403 218.288711 
L 124.436065 218.288711 
L 124.436065 220.559278 
L 125.09452 220.559278 
L 125.09452 222.829845 
L 126.311605 222.829845 
L 126.311605 225.100413 
L 126.528405 225.100413 
L 126.528405 227.37098 
L 127.604036 227.37098 
L 127.604036 229.641547 
L 129.844924 229.641547 
L 129.844924 231.912115 
L 132.143004 231.912115 
L 132.143004 234.182682 
L 133.770312 234.182682 
L 133.770312 236.453249 
L 134.653614 236.453249 
L 134.748759 240.994384 
L 135.369455 240.994384 
L 135.400851 245.535519 
L 135.418625 245.535519 
L 135.6531 245.535519 
L 135.6531 247.914208 
L 136.750672 247.914208 
L 136.750672 250.292898 
L 137.592146 250.292898 
L 137.592146 252.671588 
L 139.568052 252.671588 
L 139.568052 255.050277 
L 140.379426 255.050277 
L 140.379426 257.428967 
L 146.430065 257.428967 
L 146.430065 259.966236 
L 148.316674 259.966236 
L 148.316674 262.698679 
L 151.665194 262.698679 
L 151.665194 265.431122 
L 158.732058 265.431122 
L 158.732058 268.163566 
L 161.729662 268.163566 
L 161.729662 270.896009 
L 161.902373 270.896009 
L 161.902373 273.628453 
L 164.822923 273.628453 
L 164.822923 276.360896 
L 164.973505 276.360896 
L 164.973505 279.093339 
L 171.240835 279.093339 
L 171.240835 282.372272 
L 175.869249 282.372272 
L 175.869249 285.651204 
L 190.570287 285.651204 
L 190.570287 288.930136 
L 249.340712 288.930136 
L 249.340712 295.488 
L 249.340712 295.488 
" clip-path="url(#pa4e7b2d1f1)" style="fill: none; stroke: #1f77b4; stroke-width: 1.5; stroke-linecap: square"/>
   </g>
   <g id="line2d_14">
    <path d="M 73.832727 53.568 
L 73.840937 53.568 
L 73.899358 57.233455 
L 74.099527 57.233455 
L 74.099527 59.066182 
L 74.9875 59.066182 
L 74.9875 60.898909 
L 75.904901 60.898909 
L 75.904901 62.746067 
L 77.240397 62.746067 
L 77.240397 64.593225 
L 77.474244 64.593225 
L 77.477462 68.287542 
L 79.139991 68.287542 
L 79.139991 70.149841 
L 79.375608 70.149841 
L 79.375608 72.01214 
L 79.604946 72.01214 
L 79.604946 73.874438 
L 79.751958 73.874438 
L 79.803892 77.599036 
L 80.933198 77.599036 
L 80.933198 79.461335 
L 83.539625 79.461335 
L 83.551637 83.251276 
L 89.258599 83.251276 
L 89.258599 85.180701 
L 89.4649 85.180701 
L 89.4649 87.110126 
L 90.874253 87.110126 
L 90.985106 90.968975 
L 94.353957 90.968975 
L 94.353957 92.954597 
L 96.035597 92.954597 
L 96.110256 96.92584 
L 96.701515 96.92584 
L 96.701515 98.911462 
L 97.736731 98.911462 
L 97.736731 100.897083 
L 99.94725 100.897083 
L 99.94725 102.903175 
L 100.691833 102.903175 
L 100.691833 104.909267 
L 101.371923 104.909267 
L 101.371923 106.915359 
L 102.388454 106.915359 
L 102.388454 108.921451 
L 103.294571 108.921451 
L 103.347788 112.933635 
L 103.413424 112.933635 
L 103.413424 114.939727 
L 103.478143 114.939727 
L 103.696432 114.939727 
L 103.696432 116.968359 
L 104.99778 116.968359 
L 104.99778 118.996991 
L 105.824635 118.996991 
L 105.824635 121.025624 
L 107.212012 121.025624 
L 107.212012 123.054256 
L 107.517863 123.054256 
L 107.517863 125.082888 
L 107.785757 125.082888 
L 107.785757 127.111521 
L 108.525572 127.111521 
L 108.525572 129.140153 
L 110.117933 129.140153 
L 110.121366 133.298849 
L 112.548666 133.298849 
L 112.548666 135.378197 
L 112.899738 135.378197 
L 112.899738 137.457545 
L 113.216743 137.457545 
L 113.216743 139.536893 
L 116.758698 139.536893 
L 116.758698 141.616241 
L 117.130966 141.616241 
L 117.130966 143.695589 
L 117.219042 143.695589 
L 117.914883 143.695589 
L 117.914883 145.803817 
L 118.856744 145.803817 
L 118.856744 147.912045 
L 119.862773 147.912045 
L 119.862773 150.020273 
L 121.347113 150.020273 
L 121.347113 152.128501 
L 123.739062 152.128501 
L 123.809457 156.344957 
L 124.287123 156.344957 
L 124.287123 158.453185 
L 125.872898 158.453185 
L 125.872898 160.561413 
L 126.684721 160.561413 
L 126.684721 162.669641 
L 126.916131 162.669641 
L 126.916131 164.777869 
L 129.446673 164.777869 
L 129.446673 166.886097 
L 131.097532 166.886097 
L 131.097532 168.994325 
L 131.264406 168.994325 
L 131.264406 171.102552 
L 132.352131 171.102552 
L 132.352131 173.21078 
L 132.530501 173.21078 
L 132.530501 175.319008 
L 132.695218 175.319008 
L 132.695218 177.427236 
L 133.495266 177.427236 
L 133.495266 179.535464 
L 134.459429 179.535464 
L 134.459429 181.643692 
L 134.960849 181.643692 
L 134.960849 183.75192 
L 136.978552 183.75192 
L 136.978552 185.860148 
L 139.665887 185.860148 
L 139.665887 187.968376 
L 142.374024 187.968376 
L 142.374024 190.118768 
L 144.900181 190.118768 
L 144.900181 192.269161 
L 146.106346 192.269161 
L 146.106346 194.419553 
L 149.456375 194.419553 
L 149.456375 196.665519 
L 154.452863 196.665519 
L 154.452863 198.911484 
L 155.654157 198.911484 
L 155.654157 201.15745 
L 161.338828 201.15745 
L 161.338828 203.458195 
L 161.741448 203.458195 
L 161.776576 208.059685 
L 162.771063 208.059685 
L 162.771063 210.36043 
L 164.245316 210.36043 
L 164.245316 212.661175 
L 164.306758 212.661175 
L 168.617931 212.661175 
L 168.617931 215.097258 
L 170.506032 215.097258 
L 170.506032 217.533342 
L 174.845914 217.533342 
L 174.845914 219.969425 
L 176.371258 219.969425 
L 176.371258 222.405508 
L 179.739704 222.405508 
L 179.739704 224.841591 
L 179.919547 224.841591 
L 179.919547 227.277674 
L 182.637205 227.277674 
L 182.637205 229.713757 
L 184.860418 229.713757 
L 184.860418 232.14984 
L 185.556044 232.14984 
L 185.556044 234.585923 
L 192.647825 234.585923 
L 192.647825 237.354199 
L 193.444584 237.354199 
L 193.444584 240.122476 
L 200.553872 240.122476 
L 200.553872 242.890752 
L 200.755488 242.890752 
L 200.755488 245.659028 
L 202.148985 245.659028 
L 202.148985 248.427304 
L 215.040669 248.427304 
L 215.040669 251.19558 
L 215.511448 251.19558 
L 215.511448 253.963857 
L 217.075098 253.963857 
L 217.075098 256.732133 
L 222.990188 256.732133 
L 222.990188 259.713353 
L 228.459096 259.713353 
L 228.459096 262.694574 
L 236.174166 262.694574 
L 236.240806 268.657015 
L 264.941296 268.657015 
L 264.941296 271.638236 
L 278.977511 271.638236 
L 278.977511 275.613196 
L 289.461972 275.613196 
L 289.461972 279.588157 
L 297.516308 279.588157 
L 297.516308 283.563118 
L 343.503342 283.563118 
L 343.503342 287.538079 
L 361.416558 287.538079 
L 361.416558 291.513039 
L 398.487273 291.513039 
L 398.487273 291.513039 
" clip-path="url(#pa4e7b2d1f1)" style="fill: none; stroke: #ff7f0e; stroke-width: 1.5; stroke-linecap: square"/>
   </g>
   <g id="patch_3">
    <path d="M 57.6 307.584 
L 57.6 41.472 
" style="fill: none; stroke: #000000; stroke-width: 0.8; stroke-linejoin: miter; stroke-linecap: square"/>
   </g>
   <g id="patch_4">
    <path d="M 414.72 307.584 
L 414.72 41.472 
" style="fill: none; stroke: #000000; stroke-width: 0.8; stroke-linejoin: miter; stroke-linecap: square"/>
   </g>
   <g id="patch_5">
    <path d="M 57.6 307.584 
L 414.72 307.584 
" style="fill: none; stroke: #000000; stroke-width: 0.8; stroke-linejoin: miter; stroke-linecap: square"/>
   </g>
   <g id="patch_6">
    <path d="M 57.6 41.472 
L 414.72 41.472 
" style="fill: none; stroke: #000000; stroke-width: 0.8; stroke-linejoin: miter; stroke-linecap: square"/>
   </g>
   <g id="text_15">
    <!-- Obesity effect on mortality when -->
    <g transform="translate(137.427188 22.034625) scale(0.12 -0.12)">
     <defs>
      <path id="DejaVuSans-4f" d="M 2522 4238 
Q 1834 4238 1429 3725 
Q 1025 3213 1025 2328 
Q 1025 1447 1429 934 
Q 1834 422 2522 422 
Q 3209 422 3611 934 
Q 4013 1447 4013 2328 
Q 4013 3213 3611 3725 
Q 3209 4238 2522 4238 
z
M 2522 4750 
Q 3503 4750 4090 4092 
Q 4678 3434 4678 2328 
Q 4678 1225 4090 567 
Q 3503 -91 2522 -91 
Q 1538 -91 948 565 
Q 359 1222 359 2328 
Q 359 3434 948 4092 
Q 1538 4750 2522 4750 
z
" transform="scale(0.015625)"/>
      <path id="DejaVuSans-62" d="M 3116 1747 
Q 3116 2381 2855 2742 
Q 2594 3103 2138 3103 
Q 1681 3103 1420 2742 
Q 1159 2381 1159 1747 
Q 1159 1113 1420 752 
Q 1681 391 2138 391 
Q 2594 391 2855 752 
Q 3116 1113 3116 1747 
z
M 1159 2969 
Q 1341 3281 1617 3432 
Q 1894 3584 2278 3584 
Q 2916 3584 3314 3078 
Q 3713 2572 3713 1747 
Q 3713 922 3314 415 
Q 2916 -91 2278 -91 
Q 1894 -91 1617 61 
Q 1341 213 1159 525 
L 1159 0 
L 581 0 
L 581 4863 
L 1159 4863 
L 1159 2969 
z
" transform="scale(0.015625)"/>
      <path id="DejaVuSans-65" d="M 3597 1894 
L 3597 1613 
L 953 1613 
Q 991 1019 1311 708 
Q 1631 397 2203 397 
Q 2534 397 2845 478 
Q 3156 559 3463 722 
L 3463 178 
Q 3153 47 2828 -22 
Q 2503 -91 2169 -91 
Q 1331 -91 842 396 
Q 353 884 353 1716 
Q 353 2575 817 3079 
Q 1281 3584 2069 3584 
Q 2775 3584 3186 3129 
Q 3597 2675 3597 1894 
z
M 3022 2063 
Q 3016 2534 2758 2815 
Q 2500 3097 2075 3097 
Q 1594 3097 1305 2825 
Q 1016 2553 972 2059 
L 3022 2063 
z
" transform="scale(0.015625)"/>
      <path id="DejaVuSans-73" d="M 2834 3397 
L 2834 2853 
Q 2591 2978 2328 3040 
Q 2066 3103 1784 3103 
Q 1356 3103 1142 2972 
Q 928 2841 928 2578 
Q 928 2378 1081 2264 
Q 1234 2150 1697 2047 
L 1894 2003 
Q 2506 1872 2764 1633 
Q 3022 1394 3022 966 
Q 3022 478 2636 193 
Q 2250 -91 1575 -91 
Q 1294 -91 989 -36 
Q 684 19 347 128 
L 347 722 
Q 666 556 975 473 
Q 1284 391 1588 391 
Q 1994 391 2212 530 
Q 2431 669 2431 922 
Q 2431 1156 2273 1281 
Q 2116 1406 1581 1522 
L 1381 1569 
Q 847 1681 609 1914 
Q 372 2147 372 2553 
Q 372 3047 722 3315 
Q 1072 3584 1716 3584 
Q 2034 3584 2315 3537 
Q 2597 3491 2834 3397 
z
" transform="scale(0.015625)"/>
      <path id="DejaVuSans-69" d="M 603 3500 
L 1178 3500 
L 1178 0 
L 603 0 
L 603 3500 
z
M 603 4863 
L 1178 4863 
L 1178 4134 
L 603 4134 
L 603 4863 
z
" transform="scale(0.015625)"/>
      <path id="DejaVuSans-74" d="M 1172 4494 
L 1172 3500 
L 2356 3500 
L 2356 3053 
L 1172 3053 
L 1172 1153 
Q 1172 725 1289 603 
Q 1406 481 1766 481 
L 2356 481 
L 2356 0 
L 1766 0 
Q 1100 0 847 248 
Q 594 497 594 1153 
L 594 3053 
L 172 3053 
L 172 3500 
L 594 3500 
L 594 4494 
L 1172 4494 
z
" transform="scale(0.015625)"/>
      <path id="DejaVuSans-79" d="M 2059 -325 
Q 1816 -950 1584 -1140 
Q 1353 -1331 966 -1331 
L 506 -1331 
L 506 -850 
L 844 -850 
Q 1081 -850 1212 -737 
Q 1344 -625 1503 -206 
L 1606 56 
L 191 3500 
L 800 3500 
L 1894 763 
L 2988 3500 
L 3597 3500 
L 2059 -325 
z
" transform="scale(0.015625)"/>
      <path id="DejaVuSans-20" transform="scale(0.015625)"/>
      <path id="DejaVuSans-66" d="M 2375 4863 
L 2375 4384 
L 1825 4384 
Q 1516 4384 1395 4259 
Q 1275 4134 1275 3809 
L 1275 3500 
L 2222 3500 
L 2222 3053 
L 1275 3053 
L 1275 0 
L 697 0 
L 697 3053 
L 147 3053 
L 147 3500 
L 697 3500 
L 697 3744 
Q 697 4328 969 4595 
Q 1241 4863 1831 4863 
L 2375 4863 
z
" transform="scale(0.015625)"/>
      <path id="DejaVuSans-63" d="M 3122 3366 
L 3122 2828 
Q 2878 2963 2633 3030 
Q 2388 3097 2138 3097 
Q 1578 3097 1268 2742 
Q 959 2388 959 1747 
Q 959 1106 1268 751 
Q 1578 397 2138 397 
Q 2388 397 2633 464 
Q 2878 531 3122 666 
L 3122 134 
Q 2881 22 2623 -34 
Q 2366 -91 2075 -91 
Q 1284 -91 818 406 
Q 353 903 353 1747 
Q 353 2603 823 3093 
Q 1294 3584 2113 3584 
Q 2378 3584 2631 3529 
Q 2884 3475 3122 3366 
z
" transform="scale(0.015625)"/>
      <path id="DejaVuSans-6f" d="M 1959 3097 
Q 1497 3097 1228 2736 
Q 959 2375 959 1747 
Q 959 1119 1226 758 
Q 1494 397 1959 397 
Q 2419 397 2687 759 
Q 2956 1122 2956 1747 
Q 2956 2369 2687 2733 
Q 2419 3097 1959 3097 
z
M 1959 3584 
Q 2709 3584 3137 3096 
Q 3566 2609 3566 1747 
Q 3566 888 3137 398 
Q 2709 -91 1959 -91 
Q 1206 -91 779 398 
Q 353 888 353 1747 
Q 353 2609 779 3096 
Q 1206 3584 1959 3584 
z
" transform="scale(0.015625)"/>
      <path id="DejaVuSans-6e" d="M 3513 2113 
L 3513 0 
L 2938 0 
L 2938 2094 
Q 2938 2591 2744 2837 
Q 2550 3084 2163 3084 
Q 1697 3084 1428 2787 
Q 1159 2491 1159 1978 
L 1159 0 
L 581 0 
L 581 3500 
L 1159 3500 
L 1159 2956 
Q 1366 3272 1645 3428 
Q 1925 3584 2291 3584 
Q 2894 3584 3203 3211 
Q 3513 2838 3513 2113 
z
" transform="scale(0.015625)"/>
      <path id="DejaVuSans-6d" d="M 3328 2828 
Q 3544 3216 3844 3400 
Q 4144 3584 4550 3584 
Q 5097 3584 5394 3201 
Q 5691 2819 5691 2113 
L 5691 0 
L 5113 0 
L 5113 2094 
Q 5113 2597 4934 2840 
Q 4756 3084 4391 3084 
Q 3944 3084 3684 2787 
Q 3425 2491 3425 1978 
L 3425 0 
L 2847 0 
L 2847 2094 
Q 2847 2600 2669 2842 
Q 2491 3084 2119 3084 
Q 1678 3084 1418 2786 
Q 1159 2488 1159 1978 
L 1159 0 
L 581 0 
L 581 3500 
L 1159 3500 
L 1159 2956 
Q 1356 3278 1631 3431 
Q 1906 3584 2284 3584 
Q 2666 3584 2933 3390 
Q 3200 3197 3328 2828 
z
" transform="scale(0.015625)"/>
      <path id="DejaVuSans-72" d="M 2631 2963 
Q 2534 3019 2420 3045 
Q 2306 3072 2169 3072 
Q 1681 3072 1420 2755 
Q 1159 2438 1159 1844 
L 1159 0 
L 581 0 
L 581 3500 
L 1159 3500 
L 1159 2956 
Q 1341 3275 1631 3429 
Q 1922 3584 2338 3584 
Q 2397 3584 2469 3576 
Q 2541 3569 2628 3553 
L 2631 2963 
z
" transform="scale(0.015625)"/>
      <path id="DejaVuSans-61" d="M 2194 1759 
Q 1497 1759 1228 1600 
Q 959 1441 959 1056 
Q 959 750 1161 570 
Q 1363 391 1709 391 
Q 2188 391 2477 730 
Q 2766 1069 2766 1631 
L 2766 1759 
L 2194 1759 
z
M 3341 1997 
L 3341 0 
L 2766 0 
L 2766 531 
Q 2569 213 2275 61 
Q 1981 -91 1556 -91 
Q 1019 -91 701 211 
Q 384 513 384 1019 
Q 384 1609 779 1909 
Q 1175 2209 1959 2209 
L 2766 2209 
L 2766 2266 
Q 2766 2663 2505 2880 
Q 2244 3097 1772 3097 
Q 1472 3097 1187 3025 
Q 903 2953 641 2809 
L 641 3341 
Q 956 3463 1253 3523 
Q 1550 3584 1831 3584 
Q 2591 3584 2966 3190 
Q 3341 2797 3341 1997 
z
" transform="scale(0.015625)"/>
      <path id="DejaVuSans-6c" d="M 603 4863 
L 1178 4863 
L 1178 0 
L 603 0 
L 603 4863 
z
" transform="scale(0.015625)"/>
      <path id="DejaVuSans-77" d="M 269 3500 
L 844 3500 
L 1563 769 
L 2278 3500 
L 2956 3500 
L 3675 769 
L 4391 3500 
L 4966 3500 
L 4050 0 
L 3372 0 
L 2619 2869 
L 1863 0 
L 1184 0 
L 269 3500 
z
" transform="scale(0.015625)"/>
      <path id="DejaVuSans-68" d="M 3513 2113 
L 3513 0 
L 2938 0 
L 2938 2094 
Q 2938 2591 2744 2837 
Q 2550 3084 2163 3084 
Q 1697 3084 1428 2787 
Q 1159 2491 1159 1978 
L 1159 0 
L 581 0 
L 581 4863 
L 1159 4863 
L 1159 2956 
Q 1366 3272 1645 3428 
Q 1925 3584 2291 3584 
Q 2894 3584 3203 3211 
Q 3513 2838 3513 2113 
z
" transform="scale(0.015625)"/>
     </defs>
     <use xlink:href="#DejaVuSans-4f"/>
     <use xlink:href="#DejaVuSans-62" x="78.710938"/>
     <use xlink:href="#DejaVuSans-65" x="142.1875"/>
     <use xlink:href="#DejaVuSans-73" x="203.710938"/>
     <use xlink:href="#DejaVuSans-69" x="255.810547"/>
     <use xlink:href="#DejaVuSans-74" x="283.59375"/>
     <use xlink:href="#DejaVuSans-79" x="322.802734"/>
     <use xlink:href="#DejaVuSans-20" x="381.982422"/>
     <use xlink:href="#DejaVuSans-65" x="413.769531"/>
     <use xlink:href="#DejaVuSans-66" x="475.292969"/>
     <use xlink:href="#DejaVuSans-66" x="510.498047"/>
     <use xlink:href="#DejaVuSans-65" x="545.703125"/>
     <use xlink:href="#DejaVuSans-63" x="607.226562"/>
     <use xlink:href="#DejaVuSans-74" x="662.207031"/>
     <use xlink:href="#DejaVuSans-20" x="701.416016"/>
     <use xlink:href="#DejaVuSans-6f" x="733.203125"/>
     <use xlink:href="#DejaVuSans-6e" x="794.384766"/>
     <use xlink:href="#DejaVuSans-20" x="857.763672"/>
     <use xlink:href="#DejaVuSans-6d" x="889.550781"/>
     <use xlink:href="#DejaVuSans-6f" x="986.962891"/>
     <use xlink:href="#DejaVuSans-72" x="1048.144531"/>
     <use xlink:href="#DejaVuSans-74" x="1089.257812"/>
     <use xlink:href="#DejaVuSans-61" x="1128.466797"/>
     <use xlink:href="#DejaVuSans-6c" x="1189.746094"/>
     <use xlink:href="#DejaVuSans-69" x="1217.529297"/>
     <use xlink:href="#DejaVuSans-74" x="1245.3125"/>
     <use xlink:href="#DejaVuSans-79" x="1284.521484"/>
     <use xlink:href="#DejaVuSans-20" x="1343.701172"/>
     <use xlink:href="#DejaVuSans-77" x="1375.488281"/>
     <use xlink:href="#DejaVuSans-68" x="1457.275391"/>
     <use xlink:href="#DejaVuSans-65" x="1520.654297"/>
     <use xlink:href="#DejaVuSans-6e" x="1582.177734"/>
    </g>
    <!-- Family History = 0 &amp; Smoking = 1 -->
    <g transform="translate(133.709063 35.472) scale(0.12 -0.12)">
     <defs>
      <path id="DejaVuSans-46" d="M 628 4666 
L 3309 4666 
L 3309 4134 
L 1259 4134 
L 1259 2759 
L 3109 2759 
L 3109 2228 
L 1259 2228 
L 1259 0 
L 628 0 
L 628 4666 
z
" transform="scale(0.015625)"/>
      <path id="DejaVuSans-48" d="M 628 4666 
L 1259 4666 
L 1259 2753 
L 3553 2753 
L 3553 4666 
L 4184 4666 
L 4184 0 
L 3553 0 
L 3553 2222 
L 1259 2222 
L 1259 0 
L 628 0 
L 628 4666 
z
" transform="scale(0.015625)"/>
      <path id="DejaVuSans-3d" d="M 678 2906 
L 4684 2906 
L 4684 2381 
L 678 2381 
L 678 2906 
z
M 678 1631 
L 4684 1631 
L 4684 1100 
L 678 1100 
L 678 1631 
z
" transform="scale(0.015625)"/>
      <path id="DejaVuSans-26" d="M 1556 2509 
Q 1272 2256 1139 2004 
Q 1006 1753 1006 1478 
Q 1006 1022 1337 719 
Q 1669 416 2169 416 
Q 2466 416 2725 514 
Q 2984 613 3213 813 
L 1556 2509 
z
M 1997 2859 
L 3584 1234 
Q 3769 1513 3872 1830 
Q 3975 2147 3994 2503 
L 4575 2503 
Q 4538 2091 4375 1687 
Q 4213 1284 3922 891 
L 4794 0 
L 4006 0 
L 3559 459 
Q 3234 181 2878 45 
Q 2522 -91 2113 -91 
Q 1359 -91 881 339 
Q 403 769 403 1441 
Q 403 1841 612 2192 
Q 822 2544 1241 2853 
Q 1091 3050 1012 3245 
Q 934 3441 934 3628 
Q 934 4134 1281 4442 
Q 1628 4750 2203 4750 
Q 2463 4750 2720 4694 
Q 2978 4638 3244 4525 
L 3244 3956 
Q 2972 4103 2725 4179 
Q 2478 4256 2266 4256 
Q 1938 4256 1733 4082 
Q 1528 3909 1528 3634 
Q 1528 3475 1620 3314 
Q 1713 3153 1997 2859 
z
" transform="scale(0.015625)"/>
      <path id="DejaVuSans-53" d="M 3425 4513 
L 3425 3897 
Q 3066 4069 2747 4153 
Q 2428 4238 2131 4238 
Q 1616 4238 1336 4038 
Q 1056 3838 1056 3469 
Q 1056 3159 1242 3001 
Q 1428 2844 1947 2747 
L 2328 2669 
Q 3034 2534 3370 2195 
Q 3706 1856 3706 1288 
Q 3706 609 3251 259 
Q 2797 -91 1919 -91 
Q 1588 -91 1214 -16 
Q 841 59 441 206 
L 441 856 
Q 825 641 1194 531 
Q 1563 422 1919 422 
Q 2459 422 2753 634 
Q 3047 847 3047 1241 
Q 3047 1584 2836 1778 
Q 2625 1972 2144 2069 
L 1759 2144 
Q 1053 2284 737 2584 
Q 422 2884 422 3419 
Q 422 4038 858 4394 
Q 1294 4750 2059 4750 
Q 2388 4750 2728 4690 
Q 3069 4631 3425 4513 
z
" transform="scale(0.015625)"/>
      <path id="DejaVuSans-6b" d="M 581 4863 
L 1159 4863 
L 1159 1991 
L 2875 3500 
L 3609 3500 
L 1753 1863 
L 3688 0 
L 2938 0 
L 1159 1709 
L 1159 0 
L 581 0 
L 581 4863 
z
" transform="scale(0.015625)"/>
      <path id="DejaVuSans-67" d="M 2906 1791 
Q 2906 2416 2648 2759 
Q 2391 3103 1925 3103 
Q 1463 3103 1205 2759 
Q 947 2416 947 1791 
Q 947 1169 1205 825 
Q 1463 481 1925 481 
Q 2391 481 2648 825 
Q 2906 1169 2906 1791 
z
M 3481 434 
Q 3481 -459 3084 -895 
Q 2688 -1331 1869 -1331 
Q 1566 -1331 1297 -1286 
Q 1028 -1241 775 -1147 
L 775 -588 
Q 1028 -725 1275 -790 
Q 1522 -856 1778 -856 
Q 2344 -856 2625 -561 
Q 2906 -266 2906 331 
L 2906 616 
Q 2728 306 2450 153 
Q 2172 0 1784 0 
Q 1141 0 747 490 
Q 353 981 353 1791 
Q 353 2603 747 3093 
Q 1141 3584 1784 3584 
Q 2172 3584 2450 3431 
Q 2728 3278 2906 2969 
L 2906 3500 
L 3481 3500 
L 3481 434 
z
" transform="scale(0.015625)"/>
     </defs>
     <use xlink:href="#DejaVuSans-46"/>
     <use xlink:href="#DejaVuSans-61" x="48.394531"/>
     <use xlink:href="#DejaVuSans-6d" x="109.673828"/>
     <use xlink:href="#DejaVuSans-69" x="207.085938"/>
     <use xlink:href="#DejaVuSans-6c" x="234.869141"/>
     <use xlink:href="#DejaVuSans-79" x="262.652344"/>
     <use xlink:href="#DejaVuSans-20" x="321.832031"/>
     <use xlink:href="#DejaVuSans-48" x="353.619141"/>
     <use xlink:href="#DejaVuSans-69" x="428.814453"/>
     <use xlink:href="#DejaVuSans-73" x="456.597656"/>
     <use xlink:href="#DejaVuSans-74" x="508.697266"/>
     <use xlink:href="#DejaVuSans-6f" x="547.90625"/>
     <use xlink:href="#DejaVuSans-72" x="609.087891"/>
     <use xlink:href="#DejaVuSans-79" x="650.201172"/>
     <use xlink:href="#DejaVuSans-20" x="709.380859"/>
     <use xlink:href="#DejaVuSans-3d" x="741.167969"/>
     <use xlink:href="#DejaVuSans-20" x="824.957031"/>
     <use xlink:href="#DejaVuSans-30" x="856.744141"/>
     <use xlink:href="#DejaVuSans-20" x="920.367188"/>
     <use xlink:href="#DejaVuSans-26" x="952.154297"/>
     <use xlink:href="#DejaVuSans-20" x="1030.132812"/>
     <use xlink:href="#DejaVuSans-53" x="1061.919922"/>
     <use xlink:href="#DejaVuSans-6d" x="1125.396484"/>
     <use xlink:href="#DejaVuSans-6f" x="1222.808594"/>
     <use xlink:href="#DejaVuSans-6b" x="1283.990234"/>
     <use xlink:href="#DejaVuSans-69" x="1341.900391"/>
     <use xlink:href="#DejaVuSans-6e" x="1369.683594"/>
     <use xlink:href="#DejaVuSans-67" x="1433.0625"/>
     <use xlink:href="#DejaVuSans-20" x="1496.539062"/>
     <use xlink:href="#DejaVuSans-3d" x="1528.326172"/>
     <use xlink:href="#DejaVuSans-20" x="1612.115234"/>
     <use xlink:href="#DejaVuSans-31" x="1643.902344"/>
    </g>
   </g>
   <g id="legend_1">
    <g id="patch_7">
     <path d="M 316.421562 78.82825 
L 407.72 78.82825 
Q 409.72 78.82825 409.72 76.82825 
L 409.72 48.472 
Q 409.72 46.472 407.72 46.472 
L 316.421562 46.472 
Q 314.421562 46.472 314.421562 48.472 
L 314.421562 76.82825 
Q 314.421562 78.82825 316.421562 78.82825 
z
" style="fill: #ffffff; opacity: 0.8; stroke: #cccccc; stroke-linejoin: miter"/>
    </g>
    <g id="line2d_15">
     <path d="M 318.421562 54.570437 
L 328.421562 54.570437 
L 328.421562 54.570437 
L 338.421562 54.570437 
L 338.421562 54.570437 
" style="fill: none; stroke: #1f77b4; stroke-width: 1.5; stroke-linecap: square"/>
    </g>
    <g id="text_16">
     <!-- Obesity = 1 -->
     <g transform="translate(346.421562 58.070437) scale(0.1 -0.1)">
      <use xlink:href="#DejaVuSans-4f"/>
      <use xlink:href="#DejaVuSans-62" x="78.710938"/>
      <use xlink:href="#DejaVuSans-65" x="142.1875"/>
      <use xlink:href="#DejaVuSans-73" x="203.710938"/>
      <use xlink:href="#DejaVuSans-69" x="255.810547"/>
      <use xlink:href="#DejaVuSans-74" x="283.59375"/>
      <use xlink:href="#DejaVuSans-79" x="322.802734"/>
      <use xlink:href="#DejaVuSans-20" x="381.982422"/>
      <use xlink:href="#DejaVuSans-3d" x="413.769531"/>
      <use xlink:href="#DejaVuSans-20" x="497.558594"/>
      <use xlink:href="#DejaVuSans-31" x="529.345703"/>
     </g>
    </g>
    <g id="line2d_16">
     <path d="M 318.421562 69.248562 
L 328.421562 69.248562 
L 328.421562 69.248562 
L 338.421562 69.248562 
L 338.421562 69.248562 
" style="fill: none; stroke: #ff7f0e; stroke-width: 1.5; stroke-linecap: square"/>
    </g>
    <g id="text_17">
     <!-- Obesity = 0 -->
     <g transform="translate(346.421562 72.748562) scale(0.1 -0.1)">
      <use xlink:href="#DejaVuSans-4f"/>
      <use xlink:href="#DejaVuSans-62" x="78.710938"/>
      <use xlink:href="#DejaVuSans-65" x="142.1875"/>
      <use xlink:href="#DejaVuSans-73" x="203.710938"/>
      <use xlink:href="#DejaVuSans-69" x="255.810547"/>
      <use xlink:href="#DejaVuSans-74" x="283.59375"/>
      <use xlink:href="#DejaVuSans-79" x="322.802734"/>
      <use xlink:href="#DejaVuSans-20" x="381.982422"/>
      <use xlink:href="#DejaVuSans-3d" x="413.769531"/>
      <use xlink:href="#DejaVuSans-20" x="497.558594"/>
      <use xlink:href="#DejaVuSans-30" x="529.345703"/>
     </g>
    </g>
   </g>
  </g>
 </g>
 <defs>
  <clipPath id="pa4e7b2d1f1">
   <rect x="57.6" y="41.472" width="357.12" height="266.112"/>
  </clipPath>
 </defs>
</svg>
