<?xml version="1.0" encoding="utf-8" standalone="no"?>
<!DOCTYPE svg PUBLIC "-//W3C//DTD SVG 1.1//EN"
  "http://www.w3.org/Graphics/SVG/1.1/DTD/svg11.dtd">
<svg xmlns:xlink="http://www.w3.org/1999/xlink" width="460.8pt" height="345.6pt" viewBox="0 0 460.8 345.6" xmlns="http://www.w3.org/2000/svg" version="1.1">
 <metadata>
  <rdf:RDF xmlns:dc="http://purl.org/dc/elements/1.1/" xmlns:cc="http://creativecommons.org/ns#" xmlns:rdf="http://www.w3.org/1999/02/22-rdf-syntax-ns#">
   <cc:Work>
    <dc:type rdf:resource="http://purl.org/dc/dcmitype/StillImage"/>
    <dc:date>2025-01-13T14:23:08.692501</dc:date>
    <dc:format>image/svg+xml</dc:format>
    <dc:creator>
     <cc:Agent>
      <dc:title>Matplotlib v3.9.1.post1, https://matplotlib.org/</dc:title>
     </cc:Agent>
    </dc:creator>
   </cc:Work>
  </rdf:RDF>
 </metadata>
 <defs>
  <style type="text/css">*{stroke-linejoin: round; stroke-linecap: butt}</style>
 </defs>
 <g id="figure_1">
  <g id="patch_1">
   <path d="M 0 345.6 
L 460.8 345.6 
L 460.8 0 
L 0 0 
L 0 345.6 
z
" style="fill: none"/>
  </g>
  <g id="axes_1">
   <g id="patch_2">
    <path d="M 57.6 307.584 
L 414.72 307.584 
L 414.72 41.472 
L 57.6 41.472 
L 57.6 307.584 
z
" style="fill: none"/>
   </g>
   <g id="PolyCollection_1">
    <defs>
     <path id="me09ddb2e72" d="M 73.832727 -292.032 
L 73.832727 -292.032 
L 74.303592 -292.032 
L 74.303592 -275.043259 
L 75.450142 -275.043259 
L 75.450142 -272.886517 
L 75.621752 -272.886517 
L 75.621752 -269.799082 
L 75.893004 -269.799082 
L 75.893004 -269.799082 
L 75.988863 -269.799082 
L 75.988863 -266.540181 
L 77.683486 -266.540181 
L 77.683486 -263.309716 
L 77.87805 -263.309716 
L 77.87805 -260.126397 
L 77.94064 -260.126397 
L 77.94064 -256.991623 
L 78.702871 -256.991623 
L 78.702871 -253.902431 
L 78.728138 -253.902431 
L 78.728138 -250.854945 
L 80.095954 -250.854945 
L 80.095954 -247.845394 
L 81.481086 -247.845394 
L 81.481086 -244.870387 
L 81.76087 -244.870387 
L 81.76087 -241.926965 
L 82.013825 -241.926965 
L 82.013825 -239.012564 
L 82.048691 -239.012564 
L 82.048691 -239.012564 
L 82.827393 -239.012564 
L 82.827393 -236.077405 
L 82.948631 -236.077405 
L 82.948631 -233.169284 
L 83.331696 -233.169284 
L 83.331696 -233.169284 
L 83.368044 -233.169284 
L 83.368044 -230.237846 
L 83.493415 -230.237846 
L 83.493415 -227.331646 
L 83.829359 -227.331646 
L 83.829359 -227.331646 
L 83.993072 -227.331646 
L 83.993072 -224.399446 
L 84.102468 -224.399446 
L 84.102468 -221.491001 
L 84.308647 -221.491001 
L 84.308647 -218.604788 
L 84.470634 -218.604788 
L 84.470634 -215.739493 
L 84.724485 -215.739493 
L 84.724485 -212.89397 
L 84.886612 -212.89397 
L 84.886612 -210.067217 
L 86.088869 -210.067217 
L 86.088869 -210.067217 
L 86.458049 -210.067217 
L 86.458049 -207.207023 
L 86.560109 -207.207023 
L 86.560109 -204.365324 
L 87.084003 -204.365324 
L 87.084003 -201.541303 
L 87.278785 -201.541303 
L 87.278785 -198.734237 
L 87.570267 -198.734237 
L 87.570267 -195.943483 
L 88.708445 -195.943483 
L 88.708445 -193.168467 
L 89.234023 -193.168467 
L 89.234023 -190.408679 
L 89.725326 -190.408679 
L 89.725326 -187.66366 
L 89.8281 -187.66366 
L 89.8281 -184.933001 
L 89.971736 -184.933001 
L 89.971736 -182.216335 
L 90.001184 -182.216335 
L 90.001184 -179.513332 
L 90.012927 -179.513332 
L 90.012927 -176.823701 
L 90.712211 -176.823701 
L 90.712211 -176.823701 
L 92.862313 -176.823701 
L 92.862313 -174.089064 
L 93.16026 -174.089064 
L 93.16026 -171.368471 
L 93.997142 -171.368471 
L 93.997142 -168.661657 
L 94.632084 -168.661657 
L 94.632084 -168.661657 
L 94.946999 -168.661657 
L 94.946999 -165.905666 
L 95.681385 -165.905666 
L 95.681385 -163.164288 
L 95.984541 -163.164288 
L 95.984541 -160.43729 
L 97.141516 -160.43729 
L 97.141516 -157.724473 
L 97.353083 -157.724473 
L 97.353083 -155.025667 
L 97.786837 -155.025667 
L 97.786837 -152.34073 
L 99.647459 -152.34073 
L 99.647459 -152.34073 
L 101.382183 -152.34073 
L 101.382183 -149.598192 
L 102.09127 -149.598192 
L 102.09127 -146.870767 
L 102.854245 -146.870767 
L 102.854245 -146.870767 
L 103.91316 -146.870767 
L 103.91316 -146.870767 
L 105.500222 -146.870767 
L 105.500222 -143.998751 
L 106.151567 -143.998751 
L 106.151567 -141.145189 
L 108.424817 -141.145189 
L 108.424817 -138.309917 
L 108.691888 -138.309917 
L 108.691888 -135.492816 
L 108.747303 -135.492816 
L 108.747303 -132.693807 
L 109.7643 -132.693807 
L 109.7643 -129.912853 
L 110.981307 -129.912853 
L 110.981307 -127.149962 
L 112.201375 -127.149962 
L 112.201375 -127.149962 
L 114.769571 -127.149962 
L 114.769571 -124.305518 
L 115.158404 -124.305518 
L 115.158404 -124.305518 
L 115.333663 -124.305518 
L 115.333663 -124.305518 
L 116.428576 -124.305518 
L 116.428576 -121.254688 
L 119.965153 -121.254688 
L 119.965153 -118.231146 
L 120.127916 -118.231146 
L 120.127916 -118.231146 
L 122.885493 -118.231146 
L 122.885493 -115.101168 
L 122.900264 -115.101168 
L 122.900264 -112.00303 
L 125.367823 -112.00303 
L 125.367823 -108.936839 
L 125.945 -108.936839 
L 125.945 -105.902831 
L 126.996316 -105.902831 
L 126.996316 -102.901368 
L 127.331734 -102.901368 
L 127.331734 -99.932953 
L 129.235917 -99.932953 
L 129.235917 -96.998233 
L 131.417292 -96.998233 
L 131.417292 -94.098021 
L 133.18982 -94.098021 
L 133.18982 -91.233309 
L 139.674678 -91.233309 
L 139.674678 -88.405293 
L 144.356775 -88.405293 
L 144.356775 -85.615404 
L 144.880643 -85.615404 
L 144.880643 -82.865346 
L 145.723173 -82.865346 
L 145.723173 -80.157145 
L 147.659256 -80.157145 
L 147.659256 -77.493218 
L 147.686515 -77.493218 
L 147.686515 -74.876454 
L 151.694065 -74.876454 
L 151.694065 -72.310331 
L 159.417002 -72.310331 
L 159.417002 -69.799076 
L 162.098881 -69.799076 
L 162.098881 -67.347875 
L 166.002792 -67.347875 
L 166.002792 -64.963195 
L 166.939187 -64.963195 
L 166.939187 -62.653235 
L 178.617031 -62.653235 
L 178.617031 -60.428634 
L 181.589349 -60.428634 
L 181.589349 -58.303588 
L 181.612667 -58.303588 
L 181.612667 -56.297755 
L 189.133118 -56.297755 
L 189.133118 -54.439706 
L 226.549705 -54.439706 
L 226.549705 -52.77382 
L 255.081319 -52.77382 
L 255.081319 -51.375943 
L 284.533257 -51.375943 
L 284.533257 -50.395366 
L 331.178471 -50.395366 
L 331.178471 -50.112 
L 331.178471 -50.112 
L 331.178471 -50.112 
L 331.178471 -65.898227 
L 284.533257 -65.898227 
L 284.533257 -70.673109 
L 255.081319 -70.673109 
L 255.081319 -75.315943 
L 226.549705 -75.315943 
L 226.549705 -79.775488 
L 189.133118 -79.775488 
L 189.133118 -84.08552 
L 181.612667 -84.08552 
L 181.612667 -88.274886 
L 181.589349 -88.274886 
L 181.589349 -92.364615 
L 178.617031 -92.364615 
L 178.617031 -96.370062 
L 166.939187 -96.370062 
L 166.939187 -100.3027 
L 166.002792 -100.3027 
L 166.002792 -104.171324 
L 162.098881 -104.171324 
L 162.098881 -107.98282 
L 159.417002 -107.98282 
L 159.417002 -111.742687 
L 151.694065 -111.742687 
L 151.694065 -115.455388 
L 147.686515 -115.455388 
L 147.686515 -119.124591 
L 147.659256 -119.124591 
L 147.659256 -122.75335 
L 145.723173 -122.75335 
L 145.723173 -126.344227 
L 144.880643 -126.344227 
L 144.880643 -129.899389 
L 144.356775 -129.899389 
L 144.356775 -133.42068 
L 139.674678 -133.42068 
L 139.674678 -136.909675 
L 133.18982 -136.909675 
L 133.18982 -140.367724 
L 131.417292 -140.367724 
L 131.417292 -143.795985 
L 129.235917 -143.795985 
L 129.235917 -147.195446 
L 127.331734 -147.195446 
L 127.331734 -150.566955 
L 126.996316 -150.566955 
L 126.996316 -153.911228 
L 125.945 -153.911228 
L 125.945 -157.228868 
L 125.367823 -157.228868 
L 125.367823 -160.520372 
L 122.900264 -160.520372 
L 122.900264 -163.786141 
L 122.885493 -163.786141 
L 122.885493 -167.026485 
L 120.127916 -167.026485 
L 120.127916 -167.026485 
L 119.965153 -167.026485 
L 119.965153 -170.158934 
L 116.428576 -170.158934 
L 116.428576 -173.269386 
L 115.333663 -173.269386 
L 115.333663 -173.269386 
L 115.158404 -173.269386 
L 115.158404 -173.269386 
L 114.769571 -173.269386 
L 114.769571 -176.214666 
L 112.201375 -176.214666 
L 112.201375 -176.214666 
L 110.981307 -176.214666 
L 110.981307 -179.07756 
L 109.7643 -179.07756 
L 109.7643 -181.924869 
L 108.747303 -181.924869 
L 108.747303 -184.756669 
L 108.691888 -184.756669 
L 108.691888 -187.573006 
L 108.424817 -187.573006 
L 108.424817 -190.373899 
L 106.151567 -190.373899 
L 106.151567 -193.15934 
L 105.500222 -193.15934 
L 105.500222 -195.929289 
L 103.91316 -195.929289 
L 103.91316 -195.929289 
L 102.854245 -195.929289 
L 102.854245 -195.929289 
L 102.09127 -195.929289 
L 102.09127 -198.584613 
L 101.382183 -198.584613 
L 101.382183 -201.226614 
L 99.647459 -201.226614 
L 99.647459 -201.226614 
L 97.786837 -201.226614 
L 97.786837 -203.810587 
L 97.353083 -203.810587 
L 97.353083 -206.38202 
L 97.141516 -206.38202 
L 97.141516 -208.940819 
L 95.984541 -208.940819 
L 95.984541 -211.48687 
L 95.681385 -211.48687 
L 95.681385 -214.020036 
L 94.946999 -214.020036 
L 94.946999 -216.54016 
L 94.632084 -216.54016 
L 94.632084 -216.54016 
L 93.997142 -216.54016 
L 93.997142 -219.009893 
L 93.16026 -219.009893 
L 93.16026 -221.466999 
L 92.862313 -221.466999 
L 92.862313 -223.911272 
L 90.712211 -223.911272 
L 90.712211 -223.911272 
L 90.012927 -223.911272 
L 90.012927 -226.308833 
L 90.001184 -226.308833 
L 90.001184 -228.693799 
L 89.971736 -228.693799 
L 89.971736 -231.065907 
L 89.8281 -231.065907 
L 89.8281 -233.424866 
L 89.725326 -233.424866 
L 89.725326 -235.770354 
L 89.234023 -235.770354 
L 89.234023 -238.102015 
L 88.708445 -238.102015 
L 88.708445 -240.419452 
L 87.570267 -240.419452 
L 87.570267 -242.722227 
L 87.278785 -242.722227 
L 87.278785 -245.009855 
L 87.084003 -245.009855 
L 87.084003 -247.281797 
L 86.560109 -247.281797 
L 86.560109 -249.537451 
L 86.458049 -249.537451 
L 86.458049 -251.776149 
L 86.088869 -251.776149 
L 86.088869 -251.776149 
L 84.886612 -251.776149 
L 84.886612 -253.972572 
L 84.724485 -253.972572 
L 84.724485 -256.151235 
L 84.470634 -256.151235 
L 84.470634 -258.311252 
L 84.308647 -258.311252 
L 84.308647 -260.451622 
L 84.102468 -260.451622 
L 84.102468 -262.57121 
L 83.993072 -262.57121 
L 83.993072 -264.668721 
L 83.829359 -264.668721 
L 83.829359 -264.668721 
L 83.493415 -264.668721 
L 83.493415 -266.722292 
L 83.368044 -266.722292 
L 83.368044 -268.751509 
L 83.331696 -268.751509 
L 83.331696 -268.751509 
L 82.948631 -268.751509 
L 82.948631 -270.735695 
L 82.827393 -270.735695 
L 82.827393 -272.692378 
L 82.048691 -272.692378 
L 82.048691 -272.692378 
L 82.013825 -272.692378 
L 82.013825 -274.601822 
L 81.76087 -274.601822 
L 81.76087 -276.479274 
L 81.481086 -276.479274 
L 81.481086 -278.321209 
L 80.095954 -278.321209 
L 80.095954 -280.123276 
L 78.728138 -280.123276 
L 78.728138 -281.879989 
L 78.702871 -281.879989 
L 78.702871 -283.584271 
L 77.94064 -283.584271 
L 77.94064 -285.226704 
L 77.87805 -285.226704 
L 77.87805 -286.79427 
L 77.683486 -286.79427 
L 77.683486 -288.268027 
L 75.988863 -288.268027 
L 75.988863 -289.618407 
L 75.893004 -289.618407 
L 75.893004 -289.618407 
L 75.621752 -289.618407 
L 75.621752 -290.7877 
L 75.450142 -290.7877 
L 75.450142 -291.682737 
L 74.303592 -291.682737 
L 74.303592 -292.032 
L 73.832727 -292.032 
z
" style="stroke: #1f77b4; stroke-opacity: 0.25"/>
    </defs>
    <g clip-path="url(#p1d095e32b0)">
     <use xlink:href="#me09ddb2e72" x="0" y="345.6" style="fill: #1f77b4; fill-opacity: 0.25; stroke: #1f77b4; stroke-opacity: 0.25"/>
    </g>
   </g>
   <g id="PolyCollection_2">
    <defs>
     <path id="m9574b7f86e" d="M 73.832727 -292.032 
L 73.832727 -292.032 
L 73.874451 -292.032 
L 73.874451 -292.032 
L 74.102301 -292.032 
L 74.102301 -279.594187 
L 74.121519 -279.594187 
L 74.121519 -279.594187 
L 74.304844 -279.594187 
L 74.304844 -277.964669 
L 74.778647 -277.964669 
L 74.778647 -275.668696 
L 74.968149 -275.668696 
L 74.968149 -273.297793 
L 75.173227 -273.297793 
L 75.173227 -270.937318 
L 75.755714 -270.937318 
L 75.755714 -270.937318 
L 75.845602 -270.937318 
L 75.845602 -270.937318 
L 76.25152 -270.937318 
L 76.25152 -268.544152 
L 77.684485 -268.544152 
L 77.684485 -266.189933 
L 77.699302 -266.189933 
L 77.699302 -266.189933 
L 77.702049 -266.189933 
L 77.702049 -263.842138 
L 78.76297 -263.842138 
L 78.76297 -263.842138 
L 79.265418 -263.842138 
L 79.265418 -261.499881 
L 79.780657 -261.499881 
L 79.780657 -261.499881 
L 80.154514 -261.499881 
L 80.154514 -259.161514 
L 80.591315 -259.161514 
L 80.591315 -259.161514 
L 80.695071 -259.161514 
L 80.695071 -259.161514 
L 81.177824 -259.161514 
L 81.177824 -256.796654 
L 82.768439 -256.796654 
L 82.768439 -254.461732 
L 83.517841 -254.461732 
L 83.517841 -252.1532 
L 83.73952 -252.1532 
L 83.73952 -249.868236 
L 84.019632 -249.868236 
L 84.019632 -247.604545 
L 84.320373 -247.604545 
L 84.320373 -245.360232 
L 85.120651 -245.360232 
L 85.120651 -243.133705 
L 85.516159 -243.133705 
L 85.516159 -240.923614 
L 86.646349 -240.923614 
L 86.646349 -238.728795 
L 87.208398 -238.728795 
L 87.208398 -238.728795 
L 88.17129 -238.728795 
L 88.17129 -236.521784 
L 88.234967 -236.521784 
L 88.234967 -236.521784 
L 88.959775 -236.521784 
L 88.959775 -234.301946 
L 89.913841 -234.301946 
L 89.913841 -232.096158 
L 90.948036 -232.096158 
L 90.948036 -229.90358 
L 91.057969 -229.90358 
L 91.057969 -227.723472 
L 94.497124 -227.723472 
L 94.497124 -225.555181 
L 95.295368 -225.555181 
L 95.295368 -223.398124 
L 95.317862 -223.398124 
L 95.317862 -221.25178 
L 97.372202 -221.25178 
L 97.372202 -219.115678 
L 97.528661 -219.115678 
L 97.528661 -216.989398 
L 97.980701 -216.989398 
L 97.980701 -216.989398 
L 100.256267 -216.989398 
L 100.256267 -214.844839 
L 100.662863 -214.844839 
L 100.662863 -212.709895 
L 101.614786 -212.709895 
L 101.614786 -210.584211 
L 102.397172 -210.584211 
L 102.397172 -208.467464 
L 102.788918 -208.467464 
L 102.788918 -206.359361 
L 102.898257 -206.359361 
L 102.898257 -204.259634 
L 104.143455 -204.259634 
L 104.143455 -202.168036 
L 104.75601 -202.168036 
L 104.75601 -200.084341 
L 105.297383 -200.084341 
L 105.297383 -198.008343 
L 105.387361 -198.008343 
L 105.387361 -195.939851 
L 105.667515 -195.939851 
L 105.667515 -193.87869 
L 105.934517 -193.87869 
L 105.934517 -191.824698 
L 107.1361 -191.824698 
L 107.1361 -189.777726 
L 107.657217 -189.777726 
L 107.657217 -189.777726 
L 109.328165 -189.777726 
L 109.328165 -187.707155 
L 109.550248 -187.707155 
L 109.550248 -187.707155 
L 110.10987 -187.707155 
L 110.10987 -185.612151 
L 110.750274 -185.612151 
L 110.750274 -183.524641 
L 112.399833 -183.524641 
L 112.399833 -181.444484 
L 113.23602 -181.444484 
L 113.23602 -179.371548 
L 113.524158 -179.371548 
L 113.524158 -179.371548 
L 117.554616 -179.371548 
L 117.554616 -177.272045 
L 117.976621 -177.272045 
L 117.976621 -175.179998 
L 118.880538 -175.179998 
L 118.880538 -175.179998 
L 123.286936 -175.179998 
L 123.286936 -175.179998 
L 124.271634 -175.179998 
L 124.271634 -173.023326 
L 124.273624 -173.023326 
L 124.273624 -170.874912 
L 124.362795 -170.874912 
L 124.362795 -170.874912 
L 125.383107 -170.874912 
L 125.383107 -170.874912 
L 125.388014 -170.874912 
L 125.388014 -168.656133 
L 125.8164 -168.656133 
L 125.8164 -168.656133 
L 129.142823 -168.656133 
L 129.142823 -168.656133 
L 129.500484 -168.656133 
L 129.500484 -168.656133 
L 130.550659 -168.656133 
L 130.550659 -166.31642 
L 132.071202 -166.31642 
L 132.071202 -163.987875 
L 137.636352 -163.987875 
L 137.636352 -163.987875 
L 139.170848 -163.987875 
L 139.170848 -161.622541 
L 140.567556 -161.622541 
L 140.567556 -159.268786 
L 141.061134 -159.268786 
L 141.061134 -156.926399 
L 143.214931 -156.926399 
L 143.214931 -154.595193 
L 147.243915 -154.595193 
L 147.243915 -152.275 
L 148.346909 -152.275 
L 148.346909 -149.965676 
L 149.814076 -149.965676 
L 149.814076 -147.667093 
L 151.646466 -147.667093 
L 151.646466 -145.379143 
L 159.715615 -145.379143 
L 159.715615 -143.101734 
L 163.409742 -143.101734 
L 163.409742 -140.834793 
L 163.926025 -140.834793 
L 163.926025 -138.578261 
L 164.390494 -138.578261 
L 164.390494 -136.332095 
L 165.481506 -136.332095 
L 165.481506 -136.332095 
L 167.326389 -136.332095 
L 167.326389 -136.332095 
L 167.833635 -136.332095 
L 167.833635 -133.975662 
L 168.497845 -133.975662 
L 168.497845 -131.631724 
L 170.212203 -131.631724 
L 170.212203 -131.631724 
L 170.423266 -131.631724 
L 170.423266 -129.232763 
L 172.252518 -129.232763 
L 172.252518 -126.847569 
L 176.256207 -126.847569 
L 176.256207 -124.476118 
L 177.520448 -124.476118 
L 177.520448 -122.118411 
L 180.362867 -122.118411 
L 180.362867 -119.774474 
L 180.923742 -119.774474 
L 180.923742 -119.774474 
L 187.492047 -119.774474 
L 187.492047 -119.774474 
L 188.620267 -119.774474 
L 188.620267 -117.281188 
L 189.082582 -117.281188 
L 189.082582 -114.805536 
L 189.688271 -114.805536 
L 189.688271 -112.347574 
L 190.716876 -112.347574 
L 190.716876 -112.347574 
L 190.951971 -112.347574 
L 190.951971 -109.810621 
L 193.38292 -109.810621 
L 193.38292 -109.810621 
L 201.644222 -109.810621 
L 201.644222 -107.186993 
L 203.453275 -107.186993 
L 203.453275 -104.587199 
L 203.587656 -104.587199 
L 203.587656 -102.011433 
L 206.113891 -102.011433 
L 206.113891 -102.011433 
L 206.595504 -102.011433 
L 206.595504 -102.011433 
L 206.681889 -102.011433 
L 206.681889 -99.193599 
L 212.039058 -99.193599 
L 212.039058 -96.410119 
L 214.168759 -96.410119 
L 214.168759 -93.661376 
L 218.34945 -93.661376 
L 218.34945 -90.947921 
L 223.985007 -90.947921 
L 223.985007 -88.27049 
L 226.110581 -88.27049 
L 226.110581 -85.630017 
L 239.258736 -85.630017 
L 239.258736 -83.02767 
L 241.351388 -83.02767 
L 241.351388 -80.464877 
L 244.813177 -80.464877 
L 244.813177 -80.464877 
L 247.621487 -80.464877 
L 247.621487 -77.729323 
L 251.8905 -77.729323 
L 251.8905 -75.050367 
L 251.911573 -75.050367 
L 251.911573 -72.431009 
L 258.075374 -72.431009 
L 258.075374 -69.875028 
L 267.132982 -69.875028 
L 267.132982 -67.387198 
L 270.550987 -67.387198 
L 270.550987 -64.973585 
L 271.33421 -64.973585 
L 271.33421 -62.642005 
L 283.838212 -62.642005 
L 283.838212 -60.402705 
L 284.625015 -60.402705 
L 284.625015 -58.269467 
L 284.810607 -58.269467 
L 284.810607 -58.269467 
L 286.1302 -58.269467 
L 286.1302 -55.731471 
L 304.779872 -55.731471 
L 304.779872 -53.510347 
L 305.796091 -53.510347 
L 305.796091 -51.693845 
L 333.919714 -51.693845 
L 333.919714 -50.456701 
L 398.487273 -50.456701 
L 398.487273 -50.112 
L 398.487273 -50.112 
L 398.487273 -50.112 
L 398.487273 -67.898439 
L 333.919714 -67.898439 
L 333.919714 -73.035204 
L 305.796091 -73.035204 
L 305.796091 -77.930171 
L 304.779872 -77.930171 
L 304.779872 -82.540812 
L 286.1302 -82.540812 
L 286.1302 -86.9095 
L 284.810607 -86.9095 
L 284.810607 -86.9095 
L 284.625015 -86.9095 
L 284.625015 -90.80475 
L 283.838212 -90.80475 
L 283.838212 -94.612024 
L 271.33421 -94.612024 
L 271.33421 -98.342518 
L 270.550987 -98.342518 
L 270.550987 -102.004771 
L 267.132982 -102.004771 
L 267.132982 -105.605419 
L 258.075374 -105.605419 
L 258.075374 -109.149708 
L 251.911573 -109.149708 
L 251.911573 -112.641831 
L 251.8905 -112.641831 
L 251.8905 -116.085172 
L 247.621487 -116.085172 
L 247.621487 -119.482471 
L 244.813177 -119.482471 
L 244.813177 -119.482471 
L 241.351388 -119.482471 
L 241.351388 -122.695555 
L 239.258736 -122.695555 
L 239.258736 -125.875945 
L 226.110581 -125.875945 
L 226.110581 -129.025006 
L 223.985007 -129.025006 
L 223.985007 -132.143884 
L 218.34945 -132.143884 
L 218.34945 -135.233537 
L 214.168759 -135.233537 
L 214.168759 -138.294758 
L 212.039058 -138.294758 
L 212.039058 -141.328193 
L 206.681889 -141.328193 
L 206.681889 -144.334354 
L 206.595504 -144.334354 
L 206.595504 -144.334354 
L 206.113891 -144.334354 
L 206.113891 -144.334354 
L 203.587656 -144.334354 
L 203.587656 -147.146084 
L 203.453275 -147.146084 
L 203.453275 -149.938287 
L 201.644222 -149.938287 
L 201.644222 -152.711247 
L 193.38292 -152.711247 
L 193.38292 -152.711247 
L 190.951971 -152.711247 
L 190.951971 -155.396264 
L 190.716876 -155.396264 
L 190.716876 -155.396264 
L 189.688271 -155.396264 
L 189.688271 -158.001153 
L 189.082582 -158.001153 
L 189.082582 -160.591486 
L 188.620267 -160.591486 
L 188.620267 -163.167399 
L 187.492047 -163.167399 
L 187.492047 -163.167399 
L 180.923742 -163.167399 
L 180.923742 -163.167399 
L 180.362867 -163.167399 
L 180.362867 -165.621029 
L 177.520448 -165.621029 
L 177.520448 -168.063079 
L 176.256207 -168.063079 
L 176.256207 -170.493631 
L 172.252518 -170.493631 
L 172.252518 -172.912748 
L 170.423266 -172.912748 
L 170.423266 -175.320474 
L 170.212203 -175.320474 
L 170.212203 -175.320474 
L 168.497845 -175.320474 
L 168.497845 -177.672789 
L 167.833635 -177.672789 
L 167.833635 -180.014689 
L 167.326389 -180.014689 
L 167.326389 -180.014689 
L 165.481506 -180.014689 
L 165.481506 -180.014689 
L 164.390494 -180.014689 
L 164.390494 -182.266718 
L 163.926025 -182.266718 
L 163.926025 -184.50985 
L 163.409742 -184.50985 
L 163.409742 -186.744087 
L 159.715615 -186.744087 
L 159.715615 -188.969421 
L 151.646466 -188.969421 
L 151.646466 -191.185834 
L 149.814076 -191.185834 
L 149.814076 -193.393295 
L 148.346909 -193.393295 
L 148.346909 -195.591764 
L 147.243915 -195.591764 
L 147.243915 -197.781189 
L 143.214931 -197.781189 
L 143.214931 -199.961506 
L 141.061134 -199.961506 
L 141.061134 -202.132641 
L 140.567556 -202.132641 
L 140.567556 -204.294503 
L 139.170848 -204.294503 
L 139.170848 -206.446992 
L 137.636352 -206.446992 
L 137.636352 -206.446992 
L 132.071202 -206.446992 
L 132.071202 -208.561348 
L 130.550659 -208.561348 
L 130.550659 -210.666647 
L 129.500484 -210.666647 
L 129.500484 -210.666647 
L 129.142823 -210.666647 
L 129.142823 -210.666647 
L 125.8164 -210.666647 
L 125.8164 -210.666647 
L 125.388014 -210.666647 
L 125.388014 -212.684389 
L 125.383107 -212.684389 
L 125.383107 -212.684389 
L 124.362795 -212.684389 
L 124.362795 -212.684389 
L 124.273624 -212.684389 
L 124.273624 -214.645947 
L 124.271634 -214.645947 
L 124.271634 -216.600296 
L 123.286936 -216.600296 
L 123.286936 -216.600296 
L 118.880538 -216.600296 
L 118.880538 -216.600296 
L 117.976621 -216.600296 
L 117.976621 -218.502885 
L 117.554616 -218.502885 
L 117.554616 -220.398742 
L 113.524158 -220.398742 
L 113.524158 -220.398742 
L 113.23602 -220.398742 
L 113.23602 -222.267016 
L 112.399833 -222.267016 
L 112.399833 -224.128665 
L 110.750274 -224.128665 
L 110.750274 -225.983586 
L 110.10987 -225.983586 
L 110.10987 -227.831666 
L 109.550248 -227.831666 
L 109.550248 -227.831666 
L 109.328165 -227.831666 
L 109.328165 -229.653828 
L 107.657217 -229.653828 
L 107.657217 -229.653828 
L 107.1361 -229.653828 
L 107.1361 -231.450911 
L 105.934517 -231.450911 
L 105.934517 -233.241329 
L 105.667515 -233.241329 
L 105.667515 -235.024948 
L 105.387361 -235.024948 
L 105.387361 -236.801622 
L 105.297383 -236.801622 
L 105.297383 -238.571195 
L 104.75601 -238.571195 
L 104.75601 -240.333499 
L 104.143455 -240.333499 
L 104.143455 -242.088349 
L 102.898257 -242.088349 
L 102.898257 -243.835548 
L 102.788918 -243.835548 
L 102.788918 -245.574882 
L 102.397172 -245.574882 
L 102.397172 -247.306118 
L 101.614786 -247.306118 
L 101.614786 -249.029003 
L 100.662863 -249.029003 
L 100.662863 -250.743262 
L 100.256267 -250.743262 
L 100.256267 -252.448596 
L 97.980701 -252.448596 
L 97.980701 -252.448596 
L 97.528661 -252.448596 
L 97.528661 -254.130378 
L 97.372202 -254.130378 
L 97.372202 -255.802858 
L 95.317862 -255.802858 
L 95.317862 -257.465662 
L 95.295368 -257.465662 
L 95.295368 -259.118378 
L 94.497124 -259.118378 
L 94.497124 -260.760552 
L 91.057969 -260.760552 
L 91.057969 -262.391681 
L 90.948036 -262.391681 
L 90.948036 -264.011209 
L 89.913841 -264.011209 
L 89.913841 -265.618512 
L 88.959775 -265.618512 
L 88.959775 -267.212894 
L 88.234967 -267.212894 
L 88.234967 -267.212894 
L 88.17129 -267.212894 
L 88.17129 -268.781869 
L 87.208398 -268.781869 
L 87.208398 -268.781869 
L 86.646349 -268.781869 
L 86.646349 -270.325383 
L 85.516159 -270.325383 
L 85.516159 -271.854145 
L 85.120651 -271.854145 
L 85.120651 -273.367083 
L 84.320373 -273.367083 
L 84.320373 -274.862963 
L 84.019632 -274.862963 
L 84.019632 -276.340348 
L 83.73952 -276.340348 
L 83.73952 -277.797551 
L 83.517841 -277.797551 
L 83.517841 -279.232572 
L 82.768439 -279.232572 
L 82.768439 -280.643002 
L 81.177824 -280.643002 
L 81.177824 -282.025903 
L 80.695071 -282.025903 
L 80.695071 -282.025903 
L 80.591315 -282.025903 
L 80.591315 -282.025903 
L 80.154514 -282.025903 
L 80.154514 -283.361272 
L 79.780657 -283.361272 
L 79.780657 -283.361272 
L 79.265418 -283.361272 
L 79.265418 -284.654793 
L 78.76297 -284.654793 
L 78.76297 -284.654793 
L 77.702049 -284.654793 
L 77.702049 -285.90219 
L 77.699302 -285.90219 
L 77.699302 -285.90219 
L 77.684485 -285.90219 
L 77.684485 -287.097626 
L 76.25152 -287.097626 
L 76.25152 -288.238827 
L 75.845602 -288.238827 
L 75.845602 -288.238827 
L 75.755714 -288.238827 
L 75.755714 -288.238827 
L 75.173227 -288.238827 
L 75.173227 -289.301129 
L 74.968149 -289.301129 
L 74.968149 -290.276175 
L 74.778647 -290.276175 
L 74.778647 -291.127258 
L 74.304844 -291.127258 
L 74.304844 -291.778767 
L 74.121519 -291.778767 
L 74.121519 -291.778767 
L 74.102301 -291.778767 
L 74.102301 -292.032 
L 73.874451 -292.032 
L 73.874451 -292.032 
L 73.832727 -292.032 
z
" style="stroke: #ff7f0e; stroke-opacity: 0.25"/>
    </defs>
    <g clip-path="url(#p1d095e32b0)">
     <use xlink:href="#m9574b7f86e" x="0" y="345.6" style="fill: #ff7f0e; fill-opacity: 0.25; stroke: #ff7f0e; stroke-opacity: 0.25"/>
    </g>
   </g>
   <g id="matplotlib.axis_1">
    <g id="xtick_1">
     <g id="line2d_1">
      <defs>
       <path id="mb1920f8054" d="M 0 0 
L 0 3.5 
" style="stroke: #000000; stroke-width: 0.8"/>
      </defs>
      <g>
       <use xlink:href="#mb1920f8054" x="73.832727" y="307.584" style="stroke: #000000; stroke-width: 0.8"/>
      </g>
     </g>
     <g id="text_1">
      <!-- 0 -->
      <g transform="translate(70.651477 322.182437) scale(0.1 -0.1)">
       <defs>
        <path id="DejaVuSans-30" d="M 2034 4250 
Q 1547 4250 1301 3770 
Q 1056 3291 1056 2328 
Q 1056 1369 1301 889 
Q 1547 409 2034 409 
Q 2525 409 2770 889 
Q 3016 1369 3016 2328 
Q 3016 3291 2770 3770 
Q 2525 4250 2034 4250 
z
M 2034 4750 
Q 2819 4750 3233 4129 
Q 3647 3509 3647 2328 
Q 3647 1150 3233 529 
Q 2819 -91 2034 -91 
Q 1250 -91 836 529 
Q 422 1150 422 2328 
Q 422 3509 836 4129 
Q 1250 4750 2034 4750 
z
" transform="scale(0.015625)"/>
       </defs>
       <use xlink:href="#DejaVuSans-30"/>
      </g>
     </g>
    </g>
    <g id="xtick_2">
     <g id="line2d_2">
      <g>
       <use xlink:href="#mb1920f8054" x="132.873075" y="307.584" style="stroke: #000000; stroke-width: 0.8"/>
      </g>
     </g>
     <g id="text_2">
      <!-- 2 -->
      <g transform="translate(129.691825 322.182437) scale(0.1 -0.1)">
       <defs>
        <path id="DejaVuSans-32" d="M 1228 531 
L 3431 531 
L 3431 0 
L 469 0 
L 469 531 
Q 828 903 1448 1529 
Q 2069 2156 2228 2338 
Q 2531 2678 2651 2914 
Q 2772 3150 2772 3378 
Q 2772 3750 2511 3984 
Q 2250 4219 1831 4219 
Q 1534 4219 1204 4116 
Q 875 4013 500 3803 
L 500 4441 
Q 881 4594 1212 4672 
Q 1544 4750 1819 4750 
Q 2544 4750 2975 4387 
Q 3406 4025 3406 3419 
Q 3406 3131 3298 2873 
Q 3191 2616 2906 2266 
Q 2828 2175 2409 1742 
Q 1991 1309 1228 531 
z
" transform="scale(0.015625)"/>
       </defs>
       <use xlink:href="#DejaVuSans-32"/>
      </g>
     </g>
    </g>
    <g id="xtick_3">
     <g id="line2d_3">
      <g>
       <use xlink:href="#mb1920f8054" x="191.913423" y="307.584" style="stroke: #000000; stroke-width: 0.8"/>
      </g>
     </g>
     <g id="text_3">
      <!-- 4 -->
      <g transform="translate(188.732173 322.182437) scale(0.1 -0.1)">
       <defs>
        <path id="DejaVuSans-34" d="M 2419 4116 
L 825 1625 
L 2419 1625 
L 2419 4116 
z
M 2253 4666 
L 3047 4666 
L 3047 1625 
L 3713 1625 
L 3713 1100 
L 3047 1100 
L 3047 0 
L 2419 0 
L 2419 1100 
L 313 1100 
L 313 1709 
L 2253 4666 
z
" transform="scale(0.015625)"/>
       </defs>
       <use xlink:href="#DejaVuSans-34"/>
      </g>
     </g>
    </g>
    <g id="xtick_4">
     <g id="line2d_4">
      <g>
       <use xlink:href="#mb1920f8054" x="250.953771" y="307.584" style="stroke: #000000; stroke-width: 0.8"/>
      </g>
     </g>
     <g id="text_4">
      <!-- 6 -->
      <g transform="translate(247.772521 322.182437) scale(0.1 -0.1)">
       <defs>
        <path id="DejaVuSans-36" d="M 2113 2584 
Q 1688 2584 1439 2293 
Q 1191 2003 1191 1497 
Q 1191 994 1439 701 
Q 1688 409 2113 409 
Q 2538 409 2786 701 
Q 3034 994 3034 1497 
Q 3034 2003 2786 2293 
Q 2538 2584 2113 2584 
z
M 3366 4563 
L 3366 3988 
Q 3128 4100 2886 4159 
Q 2644 4219 2406 4219 
Q 1781 4219 1451 3797 
Q 1122 3375 1075 2522 
Q 1259 2794 1537 2939 
Q 1816 3084 2150 3084 
Q 2853 3084 3261 2657 
Q 3669 2231 3669 1497 
Q 3669 778 3244 343 
Q 2819 -91 2113 -91 
Q 1303 -91 875 529 
Q 447 1150 447 2328 
Q 447 3434 972 4092 
Q 1497 4750 2381 4750 
Q 2619 4750 2861 4703 
Q 3103 4656 3366 4563 
z
" transform="scale(0.015625)"/>
       </defs>
       <use xlink:href="#DejaVuSans-36"/>
      </g>
     </g>
    </g>
    <g id="xtick_5">
     <g id="line2d_5">
      <g>
       <use xlink:href="#mb1920f8054" x="309.994119" y="307.584" style="stroke: #000000; stroke-width: 0.8"/>
      </g>
     </g>
     <g id="text_5">
      <!-- 8 -->
      <g transform="translate(306.812869 322.182437) scale(0.1 -0.1)">
       <defs>
        <path id="DejaVuSans-38" d="M 2034 2216 
Q 1584 2216 1326 1975 
Q 1069 1734 1069 1313 
Q 1069 891 1326 650 
Q 1584 409 2034 409 
Q 2484 409 2743 651 
Q 3003 894 3003 1313 
Q 3003 1734 2745 1975 
Q 2488 2216 2034 2216 
z
M 1403 2484 
Q 997 2584 770 2862 
Q 544 3141 544 3541 
Q 544 4100 942 4425 
Q 1341 4750 2034 4750 
Q 2731 4750 3128 4425 
Q 3525 4100 3525 3541 
Q 3525 3141 3298 2862 
Q 3072 2584 2669 2484 
Q 3125 2378 3379 2068 
Q 3634 1759 3634 1313 
Q 3634 634 3220 271 
Q 2806 -91 2034 -91 
Q 1263 -91 848 271 
Q 434 634 434 1313 
Q 434 1759 690 2068 
Q 947 2378 1403 2484 
z
M 1172 3481 
Q 1172 3119 1398 2916 
Q 1625 2713 2034 2713 
Q 2441 2713 2670 2916 
Q 2900 3119 2900 3481 
Q 2900 3844 2670 4047 
Q 2441 4250 2034 4250 
Q 1625 4250 1398 4047 
Q 1172 3844 1172 3481 
z
" transform="scale(0.015625)"/>
       </defs>
       <use xlink:href="#DejaVuSans-38"/>
      </g>
     </g>
    </g>
    <g id="xtick_6">
     <g id="line2d_6">
      <g>
       <use xlink:href="#mb1920f8054" x="369.034466" y="307.584" style="stroke: #000000; stroke-width: 0.8"/>
      </g>
     </g>
     <g id="text_6">
      <!-- 10 -->
      <g transform="translate(362.671966 322.182437) scale(0.1 -0.1)">
       <defs>
        <path id="DejaVuSans-31" d="M 794 531 
L 1825 531 
L 1825 4091 
L 703 3866 
L 703 4441 
L 1819 4666 
L 2450 4666 
L 2450 531 
L 3481 531 
L 3481 0 
L 794 0 
L 794 531 
z
" transform="scale(0.015625)"/>
       </defs>
       <use xlink:href="#DejaVuSans-31"/>
       <use xlink:href="#DejaVuSans-30" x="63.623047"/>
      </g>
     </g>
    </g>
    <g id="text_7">
     <!-- $t$ -->
     <g transform="translate(234.16 335.860562) scale(0.1 -0.1)">
      <defs>
       <path id="DejaVuSans-Oblique-74" d="M 2706 3500 
L 2619 3053 
L 1472 3053 
L 1100 1153 
Q 1081 1047 1072 975 
Q 1063 903 1063 863 
Q 1063 663 1183 572 
Q 1303 481 1569 481 
L 2150 481 
L 2053 0 
L 1503 0 
Q 991 0 739 200 
Q 488 400 488 806 
Q 488 878 497 964 
Q 506 1050 525 1153 
L 897 3053 
L 409 3053 
L 500 3500 
L 978 3500 
L 1172 4494 
L 1747 4494 
L 1556 3500 
L 2706 3500 
z
" transform="scale(0.015625)"/>
      </defs>
      <use xlink:href="#DejaVuSans-Oblique-74" transform="translate(0 0.78125)"/>
     </g>
    </g>
   </g>
   <g id="matplotlib.axis_2">
    <g id="ytick_1">
     <g id="line2d_7">
      <defs>
       <path id="m59c849c76a" d="M 0 0 
L -3.5 0 
" style="stroke: #000000; stroke-width: 0.8"/>
      </defs>
      <g>
       <use xlink:href="#m59c849c76a" x="57.6" y="295.488" style="stroke: #000000; stroke-width: 0.8"/>
      </g>
     </g>
     <g id="text_8">
      <!-- 0.0 -->
      <g transform="translate(34.696875 299.287219) scale(0.1 -0.1)">
       <defs>
        <path id="DejaVuSans-2e" d="M 684 794 
L 1344 794 
L 1344 0 
L 684 0 
L 684 794 
z
" transform="scale(0.015625)"/>
       </defs>
       <use xlink:href="#DejaVuSans-30"/>
       <use xlink:href="#DejaVuSans-2e" x="63.623047"/>
       <use xlink:href="#DejaVuSans-30" x="95.410156"/>
      </g>
     </g>
    </g>
    <g id="ytick_2">
     <g id="line2d_8">
      <g>
       <use xlink:href="#m59c849c76a" x="57.6" y="247.104" style="stroke: #000000; stroke-width: 0.8"/>
      </g>
     </g>
     <g id="text_9">
      <!-- 0.2 -->
      <g transform="translate(34.696875 250.903219) scale(0.1 -0.1)">
       <use xlink:href="#DejaVuSans-30"/>
       <use xlink:href="#DejaVuSans-2e" x="63.623047"/>
       <use xlink:href="#DejaVuSans-32" x="95.410156"/>
      </g>
     </g>
    </g>
    <g id="ytick_3">
     <g id="line2d_9">
      <g>
       <use xlink:href="#m59c849c76a" x="57.6" y="198.72" style="stroke: #000000; stroke-width: 0.8"/>
      </g>
     </g>
     <g id="text_10">
      <!-- 0.4 -->
      <g transform="translate(34.696875 202.519219) scale(0.1 -0.1)">
       <use xlink:href="#DejaVuSans-30"/>
       <use xlink:href="#DejaVuSans-2e" x="63.623047"/>
       <use xlink:href="#DejaVuSans-34" x="95.410156"/>
      </g>
     </g>
    </g>
    <g id="ytick_4">
     <g id="line2d_10">
      <g>
       <use xlink:href="#m59c849c76a" x="57.6" y="150.336" style="stroke: #000000; stroke-width: 0.8"/>
      </g>
     </g>
     <g id="text_11">
      <!-- 0.6 -->
      <g transform="translate(34.696875 154.135219) scale(0.1 -0.1)">
       <use xlink:href="#DejaVuSans-30"/>
       <use xlink:href="#DejaVuSans-2e" x="63.623047"/>
       <use xlink:href="#DejaVuSans-36" x="95.410156"/>
      </g>
     </g>
    </g>
    <g id="ytick_5">
     <g id="line2d_11">
      <g>
       <use xlink:href="#m59c849c76a" x="57.6" y="101.952" style="stroke: #000000; stroke-width: 0.8"/>
      </g>
     </g>
     <g id="text_12">
      <!-- 0.8 -->
      <g transform="translate(34.696875 105.751219) scale(0.1 -0.1)">
       <use xlink:href="#DejaVuSans-30"/>
       <use xlink:href="#DejaVuSans-2e" x="63.623047"/>
       <use xlink:href="#DejaVuSans-38" x="95.410156"/>
      </g>
     </g>
    </g>
    <g id="ytick_6">
     <g id="line2d_12">
      <g>
       <use xlink:href="#m59c849c76a" x="57.6" y="53.568" style="stroke: #000000; stroke-width: 0.8"/>
      </g>
     </g>
     <g id="text_13">
      <!-- 1.0 -->
      <g transform="translate(34.696875 57.367219) scale(0.1 -0.1)">
       <use xlink:href="#DejaVuSans-31"/>
       <use xlink:href="#DejaVuSans-2e" x="63.623047"/>
       <use xlink:href="#DejaVuSans-30" x="95.410156"/>
      </g>
     </g>
    </g>
    <g id="text_14">
     <!-- $S(t)$ -->
     <g transform="translate(28.617188 183.578) rotate(-90) scale(0.1 -0.1)">
      <defs>
       <path id="DejaVuSans-Oblique-53" d="M 3859 4513 
L 3738 3897 
Q 3422 4066 3111 4152 
Q 2800 4238 2509 4238 
Q 1944 4238 1609 3991 
Q 1275 3744 1275 3334 
Q 1275 3109 1398 2989 
Q 1522 2869 2034 2731 
L 2413 2638 
Q 3053 2472 3303 2217 
Q 3553 1963 3553 1503 
Q 3553 797 2998 353 
Q 2444 -91 1538 -91 
Q 1166 -91 791 -17 
Q 416 56 38 206 
L 166 856 
Q 513 641 861 531 
Q 1209 422 1556 422 
Q 2147 422 2503 684 
Q 2859 947 2859 1369 
Q 2859 1650 2717 1795 
Q 2575 1941 2106 2059 
L 1728 2156 
Q 1081 2325 845 2545 
Q 609 2766 609 3163 
Q 609 3859 1145 4304 
Q 1681 4750 2541 4750 
Q 2875 4750 3203 4690 
Q 3531 4631 3859 4513 
z
" transform="scale(0.015625)"/>
       <path id="DejaVuSans-28" d="M 1984 4856 
Q 1566 4138 1362 3434 
Q 1159 2731 1159 2009 
Q 1159 1288 1364 580 
Q 1569 -128 1984 -844 
L 1484 -844 
Q 1016 -109 783 600 
Q 550 1309 550 2009 
Q 550 2706 781 3412 
Q 1013 4119 1484 4856 
L 1984 4856 
z
" transform="scale(0.015625)"/>
       <path id="DejaVuSans-29" d="M 513 4856 
L 1013 4856 
Q 1481 4119 1714 3412 
Q 1947 2706 1947 2009 
Q 1947 1309 1714 600 
Q 1481 -109 1013 -844 
L 513 -844 
Q 928 -128 1133 580 
Q 1338 1288 1338 2009 
Q 1338 2731 1133 3434 
Q 928 4138 513 4856 
z
" transform="scale(0.015625)"/>
      </defs>
      <use xlink:href="#DejaVuSans-Oblique-53" transform="translate(0 0.125)"/>
      <use xlink:href="#DejaVuSans-28" transform="translate(63.476562 0.125)"/>
      <use xlink:href="#DejaVuSans-Oblique-74" transform="translate(102.490234 0.125)"/>
      <use xlink:href="#DejaVuSans-29" transform="translate(141.699219 0.125)"/>
     </g>
    </g>
   </g>
   <g id="line2d_13">
    <path d="M 73.832727 53.568 
L 74.303592 53.568 
L 74.303592 56.036571 
L 75.450142 56.036571 
L 75.450142 58.505143 
L 75.621752 58.505143 
L 75.621752 60.973714 
L 75.988863 60.973714 
L 75.988863 63.468547 
L 77.683486 63.468547 
L 77.683486 65.96338 
L 77.87805 65.96338 
L 77.94064 70.953046 
L 78.702871 70.953046 
L 78.728138 75.942711 
L 80.095954 75.942711 
L 80.095954 78.437544 
L 81.481086 78.437544 
L 81.481086 80.932377 
L 81.76087 80.932377 
L 81.76087 83.42721 
L 82.013825 83.42721 
L 82.013825 85.922043 
L 82.048691 85.922043 
L 82.827393 85.922043 
L 82.827393 88.446934 
L 82.948631 88.446934 
L 82.948631 90.971825 
L 83.368044 90.971825 
L 83.368044 93.528277 
L 83.493415 93.528277 
L 83.493415 96.084729 
L 83.993072 96.084729 
L 84.102468 101.264035 
L 84.308647 101.264035 
L 84.308647 103.853688 
L 84.470634 103.853688 
L 84.470634 106.443341 
L 84.724485 106.443341 
L 84.724485 109.032993 
L 84.886612 109.032993 
L 84.886612 111.622646 
L 86.458049 111.622646 
L 86.560109 116.875942 
L 87.084003 116.875942 
L 87.084003 119.50259 
L 87.278785 119.50259 
L 87.278785 122.129238 
L 87.570267 122.129238 
L 87.570267 124.755886 
L 88.708445 124.755886 
L 88.708445 127.382534 
L 89.234023 127.382534 
L 89.234023 130.009182 
L 89.725326 130.009182 
L 89.8281 135.262477 
L 89.971736 135.262477 
L 90.012927 143.142421 
L 92.862313 143.142421 
L 92.862313 145.815151 
L 93.16026 145.815151 
L 93.16026 148.48788 
L 93.997142 148.48788 
L 93.997142 151.16061 
L 94.946999 151.16061 
L 94.946999 153.883768 
L 95.681385 153.883768 
L 95.681385 156.606926 
L 95.984541 156.606926 
L 95.984541 159.330084 
L 97.141516 159.330084 
L 97.141516 162.053243 
L 97.353083 162.053243 
L 97.353083 164.776401 
L 97.786837 164.776401 
L 97.786837 167.499559 
L 101.382183 167.499559 
L 101.382183 170.281917 
L 102.09127 170.281917 
L 102.09127 173.064274 
L 105.500222 173.064274 
L 105.500222 175.979125 
L 106.151567 175.979125 
L 106.151567 178.893975 
L 108.424817 178.893975 
L 108.424817 181.808826 
L 108.691888 181.808826 
L 108.747303 187.638527 
L 109.7643 187.638527 
L 109.7643 190.553378 
L 110.981307 190.553378 
L 110.981307 193.468229 
L 114.769571 193.468229 
L 114.769571 196.46881 
L 116.428576 196.46881 
L 116.428576 199.662977 
L 119.965153 199.662977 
L 119.965153 202.857145 
L 122.885493 202.857145 
L 122.900264 209.473635 
L 125.367823 209.473635 
L 125.367823 212.781879 
L 125.945 212.781879 
L 125.945 216.090124 
L 126.996316 216.090124 
L 126.996316 219.398369 
L 127.331734 219.398369 
L 127.331734 222.706614 
L 129.235917 222.706614 
L 129.235917 226.014859 
L 131.417292 226.014859 
L 131.417292 229.323103 
L 133.18982 229.323103 
L 133.18982 232.631348 
L 139.674678 232.631348 
L 139.674678 235.939593 
L 144.356775 235.939593 
L 144.356775 239.247838 
L 144.880643 239.247838 
L 144.880643 242.556083 
L 145.723173 242.556083 
L 145.723173 245.864328 
L 147.659256 245.864328 
L 147.686515 252.480817 
L 151.694065 252.480817 
L 151.694065 255.789062 
L 159.417002 255.789062 
L 159.417002 259.097307 
L 162.098881 259.097307 
L 162.098881 262.405552 
L 166.002792 262.405552 
L 166.002792 265.713797 
L 166.939187 265.713797 
L 166.939187 269.022041 
L 178.617031 269.022041 
L 178.617031 272.330286 
L 181.589349 272.330286 
L 181.612667 278.946776 
L 189.133118 278.946776 
L 189.133118 282.255021 
L 226.549705 282.255021 
L 226.549705 285.563266 
L 255.081319 285.563266 
L 255.081319 288.87151 
L 284.533257 288.87151 
L 284.533257 292.179755 
L 331.178471 292.179755 
L 331.178471 295.488 
L 331.178471 295.488 
" clip-path="url(#p1d095e32b0)" style="fill: none; stroke: #1f77b4; stroke-width: 1.5; stroke-linecap: square"/>
   </g>
   <g id="line2d_14">
    <path d="M 73.832727 53.568 
L 74.102301 53.568 
L 74.102301 55.36 
L 74.121519 55.36 
L 74.304844 55.36 
L 74.304844 57.165474 
L 74.778647 57.165474 
L 74.778647 58.970947 
L 74.968149 58.970947 
L 74.968149 60.776421 
L 75.173227 60.776421 
L 75.173227 62.581895 
L 76.25152 62.581895 
L 76.25152 64.415801 
L 77.684485 64.415801 
L 77.702049 68.098403 
L 79.265418 68.098403 
L 79.265418 69.962252 
L 80.154514 69.962252 
L 80.154514 71.841634 
L 81.177824 71.841634 
L 81.177824 73.753141 
L 82.768439 73.753141 
L 82.768439 75.664649 
L 83.517841 75.664649 
L 83.517841 77.576156 
L 83.73952 77.576156 
L 83.73952 79.487663 
L 84.019632 79.487663 
L 84.019632 81.399171 
L 84.320373 81.399171 
L 84.320373 83.310678 
L 85.120651 83.310678 
L 85.120651 85.222186 
L 85.516159 85.222186 
L 85.516159 87.133693 
L 86.646349 87.133693 
L 86.646349 89.0452 
L 88.17129 89.0452 
L 88.17129 90.974572 
L 88.234967 90.974572 
L 88.959775 90.974572 
L 88.959775 92.922319 
L 89.913841 92.922319 
L 89.913841 94.870066 
L 90.948036 94.870066 
L 91.057969 98.76556 
L 94.497124 98.76556 
L 94.497124 100.713307 
L 95.295368 100.713307 
L 95.317862 104.608801 
L 97.372202 104.608801 
L 97.372202 106.556548 
L 97.528661 106.556548 
L 97.528661 108.504295 
L 100.256267 108.504295 
L 100.256267 110.472544 
L 100.662863 110.472544 
L 100.662863 112.440794 
L 101.614786 112.440794 
L 101.614786 114.409043 
L 102.397172 114.409043 
L 102.397172 116.377293 
L 102.788918 116.377293 
L 102.898257 120.313792 
L 104.143455 120.313792 
L 104.143455 122.282041 
L 104.75601 122.282041 
L 104.75601 124.250291 
L 105.297383 124.250291 
L 105.387361 128.18679 
L 105.667515 128.18679 
L 105.667515 130.15504 
L 105.934517 130.15504 
L 105.934517 132.123289 
L 107.1361 132.123289 
L 107.1361 134.091539 
L 109.328165 134.091539 
L 109.328165 136.084087 
L 110.10987 136.084087 
L 110.10987 138.101859 
L 110.750274 138.101859 
L 110.750274 140.11963 
L 112.399833 140.11963 
L 112.399833 142.137401 
L 113.23602 142.137401 
L 113.23602 144.155172 
L 117.554616 144.155172 
L 117.554616 146.20021 
L 117.976621 146.20021 
L 117.976621 148.245248 
L 124.271634 148.245248 
L 124.273624 152.452184 
L 124.362795 152.452184 
L 125.388014 152.452184 
L 125.388014 154.619393 
L 130.550659 154.619393 
L 130.550659 156.891468 
L 132.071202 156.891468 
L 132.071202 159.163542 
L 139.170848 159.163542 
L 139.170848 161.474126 
L 140.567556 161.474126 
L 140.567556 163.78471 
L 141.061134 163.78471 
L 141.061134 166.095294 
L 143.214931 166.095294 
L 143.214931 168.405878 
L 147.243915 168.405878 
L 147.243915 170.716462 
L 148.346909 170.716462 
L 148.346909 173.027046 
L 149.814076 173.027046 
L 149.814076 175.33763 
L 151.646466 175.33763 
L 151.646466 177.648214 
L 159.715615 177.648214 
L 159.715615 179.958798 
L 163.409742 179.958798 
L 163.409742 182.269382 
L 163.926025 182.269382 
L 163.926025 184.579966 
L 164.390494 184.579966 
L 164.390494 186.89055 
L 167.833635 186.89055 
L 167.833635 189.303827 
L 168.497845 189.303827 
L 168.497845 191.717104 
L 170.423266 191.717104 
L 170.423266 194.187839 
L 172.252518 194.187839 
L 172.252518 196.658575 
L 176.256207 196.658575 
L 176.256207 199.12931 
L 177.520448 199.12931 
L 177.520448 201.600046 
L 180.362867 201.600046 
L 180.362867 204.070782 
L 188.620267 204.070782 
L 188.620267 206.682702 
L 189.082582 206.682702 
L 189.082582 209.294623 
L 189.688271 209.294623 
L 189.688271 211.906543 
L 190.951971 211.906543 
L 190.951971 214.602719 
L 201.644222 214.602719 
L 201.644222 217.391867 
L 203.453275 217.391867 
L 203.453275 220.181015 
L 203.587656 220.181015 
L 203.587656 222.970162 
L 206.681889 222.970162 
L 206.681889 225.991739 
L 212.039058 225.991739 
L 212.039058 229.013315 
L 214.168759 229.013315 
L 214.168759 232.034892 
L 218.34945 232.034892 
L 218.34945 235.056468 
L 223.985007 235.056468 
L 223.985007 238.078045 
L 226.110581 238.078045 
L 226.110581 241.099622 
L 239.258736 241.099622 
L 239.258736 244.121198 
L 241.351388 244.121198 
L 241.351388 247.142775 
L 247.621487 247.142775 
L 247.621487 250.36579 
L 251.8905 250.36579 
L 251.911573 256.81182 
L 258.075374 256.81182 
L 258.075374 260.034835 
L 267.132982 260.034835 
L 267.132982 263.25785 
L 270.550987 263.25785 
L 270.550987 266.480865 
L 271.33421 266.480865 
L 271.33421 269.70388 
L 283.838212 269.70388 
L 283.838212 272.926895 
L 284.625015 272.926895 
L 284.625015 276.14991 
L 286.1302 276.14991 
L 286.1302 280.017528 
L 304.779872 280.017528 
L 304.779872 283.885146 
L 305.796091 283.885146 
L 305.796091 287.752764 
L 333.919714 287.752764 
L 333.919714 291.620382 
L 398.487273 291.620382 
L 398.487273 295.488 
L 398.487273 295.488 
" clip-path="url(#p1d095e32b0)" style="fill: none; stroke: #ff7f0e; stroke-width: 1.5; stroke-linecap: square"/>
   </g>
   <g id="patch_3">
    <path d="M 57.6 307.584 
L 57.6 41.472 
" style="fill: none; stroke: #000000; stroke-width: 0.8; stroke-linejoin: miter; stroke-linecap: square"/>
   </g>
   <g id="patch_4">
    <path d="M 414.72 307.584 
L 414.72 41.472 
" style="fill: none; stroke: #000000; stroke-width: 0.8; stroke-linejoin: miter; stroke-linecap: square"/>
   </g>
   <g id="patch_5">
    <path d="M 57.6 307.584 
L 414.72 307.584 
" style="fill: none; stroke: #000000; stroke-width: 0.8; stroke-linejoin: miter; stroke-linecap: square"/>
   </g>
   <g id="patch_6">
    <path d="M 57.6 41.472 
L 414.72 41.472 
" style="fill: none; stroke: #000000; stroke-width: 0.8; stroke-linejoin: miter; stroke-linecap: square"/>
   </g>
   <g id="text_15">
    <!-- Obesity effect on mortality when -->
    <g transform="translate(137.427188 22.034625) scale(0.12 -0.12)">
     <defs>
      <path id="DejaVuSans-4f" d="M 2522 4238 
Q 1834 4238 1429 3725 
Q 1025 3213 1025 2328 
Q 1025 1447 1429 934 
Q 1834 422 2522 422 
Q 3209 422 3611 934 
Q 4013 1447 4013 2328 
Q 4013 3213 3611 3725 
Q 3209 4238 2522 4238 
z
M 2522 4750 
Q 3503 4750 4090 4092 
Q 4678 3434 4678 2328 
Q 4678 1225 4090 567 
Q 3503 -91 2522 -91 
Q 1538 -91 948 565 
Q 359 1222 359 2328 
Q 359 3434 948 4092 
Q 1538 4750 2522 4750 
z
" transform="scale(0.015625)"/>
      <path id="DejaVuSans-62" d="M 3116 1747 
Q 3116 2381 2855 2742 
Q 2594 3103 2138 3103 
Q 1681 3103 1420 2742 
Q 1159 2381 1159 1747 
Q 1159 1113 1420 752 
Q 1681 391 2138 391 
Q 2594 391 2855 752 
Q 3116 1113 3116 1747 
z
M 1159 2969 
Q 1341 3281 1617 3432 
Q 1894 3584 2278 3584 
Q 2916 3584 3314 3078 
Q 3713 2572 3713 1747 
Q 3713 922 3314 415 
Q 2916 -91 2278 -91 
Q 1894 -91 1617 61 
Q 1341 213 1159 525 
L 1159 0 
L 581 0 
L 581 4863 
L 1159 4863 
L 1159 2969 
z
" transform="scale(0.015625)"/>
      <path id="DejaVuSans-65" d="M 3597 1894 
L 3597 1613 
L 953 1613 
Q 991 1019 1311 708 
Q 1631 397 2203 397 
Q 2534 397 2845 478 
Q 3156 559 3463 722 
L 3463 178 
Q 3153 47 2828 -22 
Q 2503 -91 2169 -91 
Q 1331 -91 842 396 
Q 353 884 353 1716 
Q 353 2575 817 3079 
Q 1281 3584 2069 3584 
Q 2775 3584 3186 3129 
Q 3597 2675 3597 1894 
z
M 3022 2063 
Q 3016 2534 2758 2815 
Q 2500 3097 2075 3097 
Q 1594 3097 1305 2825 
Q 1016 2553 972 2059 
L 3022 2063 
z
" transform="scale(0.015625)"/>
      <path id="DejaVuSans-73" d="M 2834 3397 
L 2834 2853 
Q 2591 2978 2328 3040 
Q 2066 3103 1784 3103 
Q 1356 3103 1142 2972 
Q 928 2841 928 2578 
Q 928 2378 1081 2264 
Q 1234 2150 1697 2047 
L 1894 2003 
Q 2506 1872 2764 1633 
Q 3022 1394 3022 966 
Q 3022 478 2636 193 
Q 2250 -91 1575 -91 
Q 1294 -91 989 -36 
Q 684 19 347 128 
L 347 722 
Q 666 556 975 473 
Q 1284 391 1588 391 
Q 1994 391 2212 530 
Q 2431 669 2431 922 
Q 2431 1156 2273 1281 
Q 2116 1406 1581 1522 
L 1381 1569 
Q 847 1681 609 1914 
Q 372 2147 372 2553 
Q 372 3047 722 3315 
Q 1072 3584 1716 3584 
Q 2034 3584 2315 3537 
Q 2597 3491 2834 3397 
z
" transform="scale(0.015625)"/>
      <path id="DejaVuSans-69" d="M 603 3500 
L 1178 3500 
L 1178 0 
L 603 0 
L 603 3500 
z
M 603 4863 
L 1178 4863 
L 1178 4134 
L 603 4134 
L 603 4863 
z
" transform="scale(0.015625)"/>
      <path id="DejaVuSans-74" d="M 1172 4494 
L 1172 3500 
L 2356 3500 
L 2356 3053 
L 1172 3053 
L 1172 1153 
Q 1172 725 1289 603 
Q 1406 481 1766 481 
L 2356 481 
L 2356 0 
L 1766 0 
Q 1100 0 847 248 
Q 594 497 594 1153 
L 594 3053 
L 172 3053 
L 172 3500 
L 594 3500 
L 594 4494 
L 1172 4494 
z
" transform="scale(0.015625)"/>
      <path id="DejaVuSans-79" d="M 2059 -325 
Q 1816 -950 1584 -1140 
Q 1353 -1331 966 -1331 
L 506 -1331 
L 506 -850 
L 844 -850 
Q 1081 -850 1212 -737 
Q 1344 -625 1503 -206 
L 1606 56 
L 191 3500 
L 800 3500 
L 1894 763 
L 2988 3500 
L 3597 3500 
L 2059 -325 
z
" transform="scale(0.015625)"/>
      <path id="DejaVuSans-20" transform="scale(0.015625)"/>
      <path id="DejaVuSans-66" d="M 2375 4863 
L 2375 4384 
L 1825 4384 
Q 1516 4384 1395 4259 
Q 1275 4134 1275 3809 
L 1275 3500 
L 2222 3500 
L 2222 3053 
L 1275 3053 
L 1275 0 
L 697 0 
L 697 3053 
L 147 3053 
L 147 3500 
L 697 3500 
L 697 3744 
Q 697 4328 969 4595 
Q 1241 4863 1831 4863 
L 2375 4863 
z
" transform="scale(0.015625)"/>
      <path id="DejaVuSans-63" d="M 3122 3366 
L 3122 2828 
Q 2878 2963 2633 3030 
Q 2388 3097 2138 3097 
Q 1578 3097 1268 2742 
Q 959 2388 959 1747 
Q 959 1106 1268 751 
Q 1578 397 2138 397 
Q 2388 397 2633 464 
Q 2878 531 3122 666 
L 3122 134 
Q 2881 22 2623 -34 
Q 2366 -91 2075 -91 
Q 1284 -91 818 406 
Q 353 903 353 1747 
Q 353 2603 823 3093 
Q 1294 3584 2113 3584 
Q 2378 3584 2631 3529 
Q 2884 3475 3122 3366 
z
" transform="scale(0.015625)"/>
      <path id="DejaVuSans-6f" d="M 1959 3097 
Q 1497 3097 1228 2736 
Q 959 2375 959 1747 
Q 959 1119 1226 758 
Q 1494 397 1959 397 
Q 2419 397 2687 759 
Q 2956 1122 2956 1747 
Q 2956 2369 2687 2733 
Q 2419 3097 1959 3097 
z
M 1959 3584 
Q 2709 3584 3137 3096 
Q 3566 2609 3566 1747 
Q 3566 888 3137 398 
Q 2709 -91 1959 -91 
Q 1206 -91 779 398 
Q 353 888 353 1747 
Q 353 2609 779 3096 
Q 1206 3584 1959 3584 
z
" transform="scale(0.015625)"/>
      <path id="DejaVuSans-6e" d="M 3513 2113 
L 3513 0 
L 2938 0 
L 2938 2094 
Q 2938 2591 2744 2837 
Q 2550 3084 2163 3084 
Q 1697 3084 1428 2787 
Q 1159 2491 1159 1978 
L 1159 0 
L 581 0 
L 581 3500 
L 1159 3500 
L 1159 2956 
Q 1366 3272 1645 3428 
Q 1925 3584 2291 3584 
Q 2894 3584 3203 3211 
Q 3513 2838 3513 2113 
z
" transform="scale(0.015625)"/>
      <path id="DejaVuSans-6d" d="M 3328 2828 
Q 3544 3216 3844 3400 
Q 4144 3584 4550 3584 
Q 5097 3584 5394 3201 
Q 5691 2819 5691 2113 
L 5691 0 
L 5113 0 
L 5113 2094 
Q 5113 2597 4934 2840 
Q 4756 3084 4391 3084 
Q 3944 3084 3684 2787 
Q 3425 2491 3425 1978 
L 3425 0 
L 2847 0 
L 2847 2094 
Q 2847 2600 2669 2842 
Q 2491 3084 2119 3084 
Q 1678 3084 1418 2786 
Q 1159 2488 1159 1978 
L 1159 0 
L 581 0 
L 581 3500 
L 1159 3500 
L 1159 2956 
Q 1356 3278 1631 3431 
Q 1906 3584 2284 3584 
Q 2666 3584 2933 3390 
Q 3200 3197 3328 2828 
z
" transform="scale(0.015625)"/>
      <path id="DejaVuSans-72" d="M 2631 2963 
Q 2534 3019 2420 3045 
Q 2306 3072 2169 3072 
Q 1681 3072 1420 2755 
Q 1159 2438 1159 1844 
L 1159 0 
L 581 0 
L 581 3500 
L 1159 3500 
L 1159 2956 
Q 1341 3275 1631 3429 
Q 1922 3584 2338 3584 
Q 2397 3584 2469 3576 
Q 2541 3569 2628 3553 
L 2631 2963 
z
" transform="scale(0.015625)"/>
      <path id="DejaVuSans-61" d="M 2194 1759 
Q 1497 1759 1228 1600 
Q 959 1441 959 1056 
Q 959 750 1161 570 
Q 1363 391 1709 391 
Q 2188 391 2477 730 
Q 2766 1069 2766 1631 
L 2766 1759 
L 2194 1759 
z
M 3341 1997 
L 3341 0 
L 2766 0 
L 2766 531 
Q 2569 213 2275 61 
Q 1981 -91 1556 -91 
Q 1019 -91 701 211 
Q 384 513 384 1019 
Q 384 1609 779 1909 
Q 1175 2209 1959 2209 
L 2766 2209 
L 2766 2266 
Q 2766 2663 2505 2880 
Q 2244 3097 1772 3097 
Q 1472 3097 1187 3025 
Q 903 2953 641 2809 
L 641 3341 
Q 956 3463 1253 3523 
Q 1550 3584 1831 3584 
Q 2591 3584 2966 3190 
Q 3341 2797 3341 1997 
z
" transform="scale(0.015625)"/>
      <path id="DejaVuSans-6c" d="M 603 4863 
L 1178 4863 
L 1178 0 
L 603 0 
L 603 4863 
z
" transform="scale(0.015625)"/>
      <path id="DejaVuSans-77" d="M 269 3500 
L 844 3500 
L 1563 769 
L 2278 3500 
L 2956 3500 
L 3675 769 
L 4391 3500 
L 4966 3500 
L 4050 0 
L 3372 0 
L 2619 2869 
L 1863 0 
L 1184 0 
L 269 3500 
z
" transform="scale(0.015625)"/>
      <path id="DejaVuSans-68" d="M 3513 2113 
L 3513 0 
L 2938 0 
L 2938 2094 
Q 2938 2591 2744 2837 
Q 2550 3084 2163 3084 
Q 1697 3084 1428 2787 
Q 1159 2491 1159 1978 
L 1159 0 
L 581 0 
L 581 4863 
L 1159 4863 
L 1159 2956 
Q 1366 3272 1645 3428 
Q 1925 3584 2291 3584 
Q 2894 3584 3203 3211 
Q 3513 2838 3513 2113 
z
" transform="scale(0.015625)"/>
     </defs>
     <use xlink:href="#DejaVuSans-4f"/>
     <use xlink:href="#DejaVuSans-62" x="78.710938"/>
     <use xlink:href="#DejaVuSans-65" x="142.1875"/>
     <use xlink:href="#DejaVuSans-73" x="203.710938"/>
     <use xlink:href="#DejaVuSans-69" x="255.810547"/>
     <use xlink:href="#DejaVuSans-74" x="283.59375"/>
     <use xlink:href="#DejaVuSans-79" x="322.802734"/>
     <use xlink:href="#DejaVuSans-20" x="381.982422"/>
     <use xlink:href="#DejaVuSans-65" x="413.769531"/>
     <use xlink:href="#DejaVuSans-66" x="475.292969"/>
     <use xlink:href="#DejaVuSans-66" x="510.498047"/>
     <use xlink:href="#DejaVuSans-65" x="545.703125"/>
     <use xlink:href="#DejaVuSans-63" x="607.226562"/>
     <use xlink:href="#DejaVuSans-74" x="662.207031"/>
     <use xlink:href="#DejaVuSans-20" x="701.416016"/>
     <use xlink:href="#DejaVuSans-6f" x="733.203125"/>
     <use xlink:href="#DejaVuSans-6e" x="794.384766"/>
     <use xlink:href="#DejaVuSans-20" x="857.763672"/>
     <use xlink:href="#DejaVuSans-6d" x="889.550781"/>
     <use xlink:href="#DejaVuSans-6f" x="986.962891"/>
     <use xlink:href="#DejaVuSans-72" x="1048.144531"/>
     <use xlink:href="#DejaVuSans-74" x="1089.257812"/>
     <use xlink:href="#DejaVuSans-61" x="1128.466797"/>
     <use xlink:href="#DejaVuSans-6c" x="1189.746094"/>
     <use xlink:href="#DejaVuSans-69" x="1217.529297"/>
     <use xlink:href="#DejaVuSans-74" x="1245.3125"/>
     <use xlink:href="#DejaVuSans-79" x="1284.521484"/>
     <use xlink:href="#DejaVuSans-20" x="1343.701172"/>
     <use xlink:href="#DejaVuSans-77" x="1375.488281"/>
     <use xlink:href="#DejaVuSans-68" x="1457.275391"/>
     <use xlink:href="#DejaVuSans-65" x="1520.654297"/>
     <use xlink:href="#DejaVuSans-6e" x="1582.177734"/>
    </g>
    <!-- Family History = 1 &amp; Smoking = 0 -->
    <g transform="translate(133.709063 35.472) scale(0.12 -0.12)">
     <defs>
      <path id="DejaVuSans-46" d="M 628 4666 
L 3309 4666 
L 3309 4134 
L 1259 4134 
L 1259 2759 
L 3109 2759 
L 3109 2228 
L 1259 2228 
L 1259 0 
L 628 0 
L 628 4666 
z
" transform="scale(0.015625)"/>
      <path id="DejaVuSans-48" d="M 628 4666 
L 1259 4666 
L 1259 2753 
L 3553 2753 
L 3553 4666 
L 4184 4666 
L 4184 0 
L 3553 0 
L 3553 2222 
L 1259 2222 
L 1259 0 
L 628 0 
L 628 4666 
z
" transform="scale(0.015625)"/>
      <path id="DejaVuSans-3d" d="M 678 2906 
L 4684 2906 
L 4684 2381 
L 678 2381 
L 678 2906 
z
M 678 1631 
L 4684 1631 
L 4684 1100 
L 678 1100 
L 678 1631 
z
" transform="scale(0.015625)"/>
      <path id="DejaVuSans-26" d="M 1556 2509 
Q 1272 2256 1139 2004 
Q 1006 1753 1006 1478 
Q 1006 1022 1337 719 
Q 1669 416 2169 416 
Q 2466 416 2725 514 
Q 2984 613 3213 813 
L 1556 2509 
z
M 1997 2859 
L 3584 1234 
Q 3769 1513 3872 1830 
Q 3975 2147 3994 2503 
L 4575 2503 
Q 4538 2091 4375 1687 
Q 4213 1284 3922 891 
L 4794 0 
L 4006 0 
L 3559 459 
Q 3234 181 2878 45 
Q 2522 -91 2113 -91 
Q 1359 -91 881 339 
Q 403 769 403 1441 
Q 403 1841 612 2192 
Q 822 2544 1241 2853 
Q 1091 3050 1012 3245 
Q 934 3441 934 3628 
Q 934 4134 1281 4442 
Q 1628 4750 2203 4750 
Q 2463 4750 2720 4694 
Q 2978 4638 3244 4525 
L 3244 3956 
Q 2972 4103 2725 4179 
Q 2478 4256 2266 4256 
Q 1938 4256 1733 4082 
Q 1528 3909 1528 3634 
Q 1528 3475 1620 3314 
Q 1713 3153 1997 2859 
z
" transform="scale(0.015625)"/>
      <path id="DejaVuSans-53" d="M 3425 4513 
L 3425 3897 
Q 3066 4069 2747 4153 
Q 2428 4238 2131 4238 
Q 1616 4238 1336 4038 
Q 1056 3838 1056 3469 
Q 1056 3159 1242 3001 
Q 1428 2844 1947 2747 
L 2328 2669 
Q 3034 2534 3370 2195 
Q 3706 1856 3706 1288 
Q 3706 609 3251 259 
Q 2797 -91 1919 -91 
Q 1588 -91 1214 -16 
Q 841 59 441 206 
L 441 856 
Q 825 641 1194 531 
Q 1563 422 1919 422 
Q 2459 422 2753 634 
Q 3047 847 3047 1241 
Q 3047 1584 2836 1778 
Q 2625 1972 2144 2069 
L 1759 2144 
Q 1053 2284 737 2584 
Q 422 2884 422 3419 
Q 422 4038 858 4394 
Q 1294 4750 2059 4750 
Q 2388 4750 2728 4690 
Q 3069 4631 3425 4513 
z
" transform="scale(0.015625)"/>
      <path id="DejaVuSans-6b" d="M 581 4863 
L 1159 4863 
L 1159 1991 
L 2875 3500 
L 3609 3500 
L 1753 1863 
L 3688 0 
L 2938 0 
L 1159 1709 
L 1159 0 
L 581 0 
L 581 4863 
z
" transform="scale(0.015625)"/>
      <path id="DejaVuSans-67" d="M 2906 1791 
Q 2906 2416 2648 2759 
Q 2391 3103 1925 3103 
Q 1463 3103 1205 2759 
Q 947 2416 947 1791 
Q 947 1169 1205 825 
Q 1463 481 1925 481 
Q 2391 481 2648 825 
Q 2906 1169 2906 1791 
z
M 3481 434 
Q 3481 -459 3084 -895 
Q 2688 -1331 1869 -1331 
Q 1566 -1331 1297 -1286 
Q 1028 -1241 775 -1147 
L 775 -588 
Q 1028 -725 1275 -790 
Q 1522 -856 1778 -856 
Q 2344 -856 2625 -561 
Q 2906 -266 2906 331 
L 2906 616 
Q 2728 306 2450 153 
Q 2172 0 1784 0 
Q 1141 0 747 490 
Q 353 981 353 1791 
Q 353 2603 747 3093 
Q 1141 3584 1784 3584 
Q 2172 3584 2450 3431 
Q 2728 3278 2906 2969 
L 2906 3500 
L 3481 3500 
L 3481 434 
z
" transform="scale(0.015625)"/>
     </defs>
     <use xlink:href="#DejaVuSans-46"/>
     <use xlink:href="#DejaVuSans-61" x="48.394531"/>
     <use xlink:href="#DejaVuSans-6d" x="109.673828"/>
     <use xlink:href="#DejaVuSans-69" x="207.085938"/>
     <use xlink:href="#DejaVuSans-6c" x="234.869141"/>
     <use xlink:href="#DejaVuSans-79" x="262.652344"/>
     <use xlink:href="#DejaVuSans-20" x="321.832031"/>
     <use xlink:href="#DejaVuSans-48" x="353.619141"/>
     <use xlink:href="#DejaVuSans-69" x="428.814453"/>
     <use xlink:href="#DejaVuSans-73" x="456.597656"/>
     <use xlink:href="#DejaVuSans-74" x="508.697266"/>
     <use xlink:href="#DejaVuSans-6f" x="547.90625"/>
     <use xlink:href="#DejaVuSans-72" x="609.087891"/>
     <use xlink:href="#DejaVuSans-79" x="650.201172"/>
     <use xlink:href="#DejaVuSans-20" x="709.380859"/>
     <use xlink:href="#DejaVuSans-3d" x="741.167969"/>
     <use xlink:href="#DejaVuSans-20" x="824.957031"/>
     <use xlink:href="#DejaVuSans-31" x="856.744141"/>
     <use xlink:href="#DejaVuSans-20" x="920.367188"/>
     <use xlink:href="#DejaVuSans-26" x="952.154297"/>
     <use xlink:href="#DejaVuSans-20" x="1030.132812"/>
     <use xlink:href="#DejaVuSans-53" x="1061.919922"/>
     <use xlink:href="#DejaVuSans-6d" x="1125.396484"/>
     <use xlink:href="#DejaVuSans-6f" x="1222.808594"/>
     <use xlink:href="#DejaVuSans-6b" x="1283.990234"/>
     <use xlink:href="#DejaVuSans-69" x="1341.900391"/>
     <use xlink:href="#DejaVuSans-6e" x="1369.683594"/>
     <use xlink:href="#DejaVuSans-67" x="1433.0625"/>
     <use xlink:href="#DejaVuSans-20" x="1496.539062"/>
     <use xlink:href="#DejaVuSans-3d" x="1528.326172"/>
     <use xlink:href="#DejaVuSans-20" x="1612.115234"/>
     <use xlink:href="#DejaVuSans-30" x="1643.902344"/>
    </g>
   </g>
   <g id="legend_1">
    <g id="patch_7">
     <path d="M 316.421562 78.82825 
L 407.72 78.82825 
Q 409.72 78.82825 409.72 76.82825 
L 409.72 48.472 
Q 409.72 46.472 407.72 46.472 
L 316.421562 46.472 
Q 314.421562 46.472 314.421562 48.472 
L 314.421562 76.82825 
Q 314.421562 78.82825 316.421562 78.82825 
z
" style="fill: #ffffff; opacity: 0.8; stroke: #cccccc; stroke-linejoin: miter"/>
    </g>
    <g id="line2d_15">
     <path d="M 318.421562 54.570437 
L 328.421562 54.570437 
L 328.421562 54.570437 
L 338.421562 54.570437 
L 338.421562 54.570437 
" style="fill: none; stroke: #1f77b4; stroke-width: 1.5; stroke-linecap: square"/>
    </g>
    <g id="text_16">
     <!-- Obesity = 1 -->
     <g transform="translate(346.421562 58.070437) scale(0.1 -0.1)">
      <use xlink:href="#DejaVuSans-4f"/>
      <use xlink:href="#DejaVuSans-62" x="78.710938"/>
      <use xlink:href="#DejaVuSans-65" x="142.1875"/>
      <use xlink:href="#DejaVuSans-73" x="203.710938"/>
      <use xlink:href="#DejaVuSans-69" x="255.810547"/>
      <use xlink:href="#DejaVuSans-74" x="283.59375"/>
      <use xlink:href="#DejaVuSans-79" x="322.802734"/>
      <use xlink:href="#DejaVuSans-20" x="381.982422"/>
      <use xlink:href="#DejaVuSans-3d" x="413.769531"/>
      <use xlink:href="#DejaVuSans-20" x="497.558594"/>
      <use xlink:href="#DejaVuSans-31" x="529.345703"/>
     </g>
    </g>
    <g id="line2d_16">
     <path d="M 318.421562 69.248562 
L 328.421562 69.248562 
L 328.421562 69.248562 
L 338.421562 69.248562 
L 338.421562 69.248562 
" style="fill: none; stroke: #ff7f0e; stroke-width: 1.5; stroke-linecap: square"/>
    </g>
    <g id="text_17">
     <!-- Obesity = 0 -->
     <g transform="translate(346.421562 72.748562) scale(0.1 -0.1)">
      <use xlink:href="#DejaVuSans-4f"/>
      <use xlink:href="#DejaVuSans-62" x="78.710938"/>
      <use xlink:href="#DejaVuSans-65" x="142.1875"/>
      <use xlink:href="#DejaVuSans-73" x="203.710938"/>
      <use xlink:href="#DejaVuSans-69" x="255.810547"/>
      <use xlink:href="#DejaVuSans-74" x="283.59375"/>
      <use xlink:href="#DejaVuSans-79" x="322.802734"/>
      <use xlink:href="#DejaVuSans-20" x="381.982422"/>
      <use xlink:href="#DejaVuSans-3d" x="413.769531"/>
      <use xlink:href="#DejaVuSans-20" x="497.558594"/>
      <use xlink:href="#DejaVuSans-30" x="529.345703"/>
     </g>
    </g>
   </g>
  </g>
 </g>
 <defs>
  <clipPath id="p1d095e32b0">
   <rect x="57.6" y="41.472" width="357.12" height="266.112"/>
  </clipPath>
 </defs>
</svg>
