<?xml version="1.0" encoding="utf-8" standalone="no"?>
<!DOCTYPE svg PUBLIC "-//W3C//DTD SVG 1.1//EN"
  "http://www.w3.org/Graphics/SVG/1.1/DTD/svg11.dtd">
<svg xmlns:xlink="http://www.w3.org/1999/xlink" width="460.8pt" height="345.6pt" viewBox="0 0 460.8 345.6" xmlns="http://www.w3.org/2000/svg" version="1.1">
 <metadata>
  <rdf:RDF xmlns:dc="http://purl.org/dc/elements/1.1/" xmlns:cc="http://creativecommons.org/ns#" xmlns:rdf="http://www.w3.org/1999/02/22-rdf-syntax-ns#">
   <cc:Work>
    <dc:type rdf:resource="http://purl.org/dc/dcmitype/StillImage"/>
    <dc:date>2025-01-13T14:23:09.277998</dc:date>
    <dc:format>image/svg+xml</dc:format>
    <dc:creator>
     <cc:Agent>
      <dc:title>Matplotlib v3.9.1.post1, https://matplotlib.org/</dc:title>
     </cc:Agent>
    </dc:creator>
   </cc:Work>
  </rdf:RDF>
 </metadata>
 <defs>
  <style type="text/css">*{stroke-linejoin: round; stroke-linecap: butt}</style>
 </defs>
 <g id="figure_1">
  <g id="patch_1">
   <path d="M 0 345.6 
L 460.8 345.6 
L 460.8 0 
L 0 0 
L 0 345.6 
z
" style="fill: none"/>
  </g>
  <g id="axes_1">
   <g id="patch_2">
    <path d="M 57.6 307.584 
L 414.72 307.584 
L 414.72 41.472 
L 57.6 41.472 
L 57.6 307.584 
z
" style="fill: none"/>
   </g>
   <g id="PolyCollection_1">
    <defs>
     <path id="m7b81c2e04f" d="M 73.832727 -292.032 
L 73.832727 -292.032 
L 73.858124 -292.032 
L 73.858124 -280.355125 
L 73.923026 -280.355125 
L 73.923026 -278.874269 
L 74.160487 -278.874269 
L 74.160487 -276.74414 
L 74.348629 -276.74414 
L 74.348629 -276.74414 
L 74.610465 -276.74414 
L 74.610465 -274.507076 
L 74.902677 -274.507076 
L 74.902677 -272.283504 
L 75.084741 -272.283504 
L 75.084741 -270.088279 
L 75.805346 -270.088279 
L 75.805346 -267.923265 
L 76.08687 -267.923265 
L 76.08687 -267.923265 
L 76.157609 -267.923265 
L 76.157609 -265.762735 
L 76.15894 -265.762735 
L 76.15894 -263.630569 
L 76.237362 -263.630569 
L 76.237362 -261.523809 
L 76.429012 -261.523809 
L 76.429012 -261.523809 
L 76.542949 -261.523809 
L 76.542949 -259.41726 
L 76.616052 -259.41726 
L 76.616052 -259.41726 
L 76.826238 -259.41726 
L 76.826238 -257.310042 
L 77.047709 -257.310042 
L 77.047709 -257.310042 
L 77.064144 -257.310042 
L 77.064144 -255.201146 
L 77.15872 -255.201146 
L 77.15872 -253.112353 
L 77.200691 -253.112353 
L 77.200691 -251.041794 
L 77.22937 -251.041794 
L 77.22937 -248.987904 
L 77.506417 -248.987904 
L 77.506417 -246.949358 
L 77.692272 -246.949358 
L 77.692272 -244.925021 
L 77.699538 -244.925021 
L 77.699538 -242.913908 
L 77.792271 -242.913908 
L 77.792271 -240.915166 
L 78.011526 -240.915166 
L 78.011526 -238.92804 
L 78.113538 -238.92804 
L 78.113538 -236.951867 
L 78.607995 -236.951867 
L 78.607995 -234.986054 
L 78.618693 -234.986054 
L 78.618693 -233.030073 
L 78.627095 -233.030073 
L 78.627095 -233.030073 
L 79.56368 -233.030073 
L 79.56368 -231.061903 
L 79.627115 -231.061903 
L 79.627115 -229.103122 
L 80.127355 -229.103122 
L 80.127355 -227.153301 
L 80.28396 -227.153301 
L 80.28396 -225.212055 
L 80.772888 -225.212055 
L 80.772888 -223.279032 
L 81.138387 -223.279032 
L 81.138387 -221.353913 
L 81.667263 -221.353913 
L 81.667263 -219.436406 
L 81.929728 -219.436406 
L 81.929728 -217.526245 
L 82.369657 -217.526245 
L 82.369657 -215.623183 
L 82.385422 -215.623183 
L 82.385422 -213.726995 
L 82.561205 -213.726995 
L 82.561205 -211.837474 
L 82.844824 -211.837474 
L 82.844824 -209.954428 
L 82.915761 -209.954428 
L 82.915761 -208.07768 
L 83.172727 -208.07768 
L 83.172727 -206.207064 
L 83.455732 -206.207064 
L 83.455732 -204.342429 
L 83.666636 -204.342429 
L 83.666636 -202.483634 
L 84.441542 -202.483634 
L 84.441542 -202.483634 
L 85.142689 -202.483634 
L 85.142689 -200.607461 
L 85.315117 -200.607461 
L 85.315117 -198.737173 
L 85.346247 -198.737173 
L 85.346247 -196.872644 
L 85.58281 -196.872644 
L 85.58281 -195.013754 
L 85.699427 -195.013754 
L 85.699427 -193.160394 
L 86.21472 -193.160394 
L 86.21472 -193.160394 
L 86.492793 -193.160394 
L 86.492793 -191.288076 
L 87.191727 -191.288076 
L 87.191727 -189.421387 
L 87.750047 -189.421387 
L 87.750047 -187.560225 
L 87.806227 -187.560225 
L 87.806227 -185.704498 
L 88.289123 -185.704498 
L 88.289123 -183.854119 
L 89.153159 -183.854119 
L 89.153159 -182.009008 
L 89.322801 -182.009008 
L 89.322801 -180.169091 
L 89.421727 -180.169091 
L 89.421727 -178.3343 
L 89.492987 -178.3343 
L 89.492987 -176.504571 
L 89.650444 -176.504571 
L 89.650444 -174.679848 
L 90.761906 -174.679848 
L 90.761906 -172.860075 
L 91.047527 -172.860075 
L 91.047527 -171.045205 
L 91.063787 -171.045205 
L 91.063787 -171.045205 
L 91.083246 -171.045205 
L 91.083246 -171.045205 
L 92.429316 -171.045205 
L 92.429316 -169.179237 
L 92.521824 -169.179237 
L 92.521824 -167.318706 
L 92.629923 -167.318706 
L 92.629923 -165.46356 
L 92.994069 -165.46356 
L 92.994069 -163.613751 
L 93.092175 -163.613751 
L 93.092175 -163.613751 
L 93.475566 -163.613751 
L 93.475566 -161.738789 
L 93.754315 -161.738789 
L 93.754315 -159.869429 
L 93.765435 -159.869429 
L 93.765435 -159.869429 
L 95.446358 -159.869429 
L 95.446358 -157.973509 
L 96.17098 -157.973509 
L 96.17098 -156.083486 
L 96.348856 -156.083486 
L 96.348856 -154.199319 
L 97.083066 -154.199319 
L 97.083066 -152.320973 
L 97.089096 -152.320973 
L 97.089096 -150.448418 
L 97.362837 -150.448418 
L 97.362837 -148.581629 
L 98.910057 -148.581629 
L 98.910057 -146.720586 
L 99.196508 -146.720586 
L 99.196508 -144.865276 
L 99.851067 -144.865276 
L 99.851067 -143.015689 
L 99.986653 -143.015689 
L 99.986653 -141.171821 
L 100.373988 -141.171821 
L 100.373988 -141.171821 
L 101.851942 -141.171821 
L 101.851942 -141.171821 
L 102.049697 -141.171821 
L 102.049697 -139.2569 
L 102.253871 -139.2569 
L 102.253871 -137.348657 
L 102.405962 -137.348657 
L 102.405962 -135.447087 
L 103.094806 -135.447087 
L 103.094806 -133.552194 
L 103.806469 -133.552194 
L 103.806469 -131.663988 
L 103.90815 -131.663988 
L 103.90815 -129.782485 
L 105.300827 -129.782485 
L 105.300827 -127.907708 
L 106.352135 -127.907708 
L 106.352135 -126.039689 
L 106.823901 -126.039689 
L 106.823901 -124.178464 
L 106.8525 -124.178464 
L 106.8525 -122.324079 
L 107.801796 -122.324079 
L 107.801796 -120.476586 
L 110.278484 -120.476586 
L 110.278484 -118.636044 
L 110.934592 -118.636044 
L 110.934592 -116.802524 
L 111.438423 -116.802524 
L 111.438423 -116.802524 
L 113.267718 -116.802524 
L 113.267718 -114.925387 
L 113.463508 -114.925387 
L 113.463508 -113.05619 
L 113.671489 -113.05619 
L 113.671489 -111.195026 
L 114.128791 -111.195026 
L 114.128791 -109.341999 
L 115.292191 -109.341999 
L 115.292191 -107.497228 
L 115.329435 -107.497228 
L 115.329435 -105.660842 
L 116.935138 -105.660842 
L 116.935138 -103.832987 
L 119.146936 -103.832987 
L 119.146936 -102.01382 
L 119.663968 -102.01382 
L 119.663968 -100.203518 
L 120.177237 -100.203518 
L 120.177237 -98.402273 
L 121.458699 -98.402273 
L 121.458699 -96.610295 
L 121.783347 -96.610295 
L 121.783347 -94.827818 
L 122.96165 -94.827818 
L 122.96165 -93.055094 
L 123.083873 -93.055094 
L 123.083873 -91.292403 
L 123.229299 -91.292403 
L 123.229299 -91.292403 
L 123.268832 -91.292403 
L 123.268832 -89.464199 
L 123.555148 -89.464199 
L 123.555148 -87.648391 
L 123.863063 -87.648391 
L 123.863063 -85.845388 
L 125.786283 -85.845388 
L 125.786283 -84.055643 
L 126.206278 -84.055643 
L 126.206278 -82.279665 
L 126.390136 -82.279665 
L 126.390136 -80.518019 
L 126.705684 -80.518019 
L 126.705684 -78.771341 
L 131.370114 -78.771341 
L 131.370114 -78.771341 
L 131.820625 -78.771341 
L 131.820625 -76.933559 
L 135.017244 -76.933559 
L 135.017244 -75.116002 
L 136.617111 -75.116002 
L 136.617111 -73.319739 
L 138.953664 -73.319739 
L 138.953664 -71.546003 
L 143.738611 -71.546003 
L 143.738611 -69.796226 
L 143.963254 -69.796226 
L 143.963254 -68.072083 
L 144.152413 -68.072083 
L 144.152413 -68.072083 
L 144.459076 -68.072083 
L 144.459076 -66.210374 
L 146.2405 -66.210374 
L 146.2405 -64.389296 
L 146.466183 -64.389296 
L 146.466183 -62.612507 
L 146.970843 -62.612507 
L 146.970843 -60.884573 
L 147.420355 -60.884573 
L 147.420355 -59.211296 
L 148.842557 -59.211296 
L 148.842557 -57.600217 
L 169.075622 -57.600217 
L 169.075622 -56.06141 
L 186.042539 -56.06141 
L 186.042539 -54.608838 
L 186.848712 -54.608838 
L 186.848712 -53.262816 
L 187.019254 -53.262816 
L 187.019254 -52.054934 
L 190.59961 -52.054934 
L 190.59961 -52.054934 
L 196.348413 -52.054934 
L 196.348413 -50.504248 
L 228.601822 -50.504248 
L 228.601822 -50.112 
L 228.601822 -50.112 
L 228.601822 -50.112 
L 228.601822 -65.093522 
L 196.348413 -65.093522 
L 196.348413 -68.275018 
L 190.59961 -68.275018 
L 190.59961 -68.275018 
L 187.019254 -68.275018 
L 187.019254 -71.448219 
L 186.848712 -71.448219 
L 186.848712 -74.516115 
L 186.042539 -74.516115 
L 186.042539 -77.498129 
L 169.075622 -77.498129 
L 169.075622 -80.408793 
L 148.842557 -80.408793 
L 148.842557 -83.258837 
L 147.420355 -83.258837 
L 147.420355 -86.056328 
L 146.970843 -86.056328 
L 146.970843 -88.807466 
L 146.466183 -88.807466 
L 146.466183 -91.517113 
L 146.2405 -91.517113 
L 146.2405 -94.189151 
L 144.459076 -94.189151 
L 144.459076 -96.826725 
L 144.152413 -96.826725 
L 144.152413 -96.826725 
L 143.963254 -96.826725 
L 143.963254 -99.30813 
L 143.738611 -99.30813 
L 143.738611 -101.767215 
L 138.953664 -101.767215 
L 138.953664 -104.205454 
L 136.617111 -104.205454 
L 136.617111 -106.624115 
L 135.017244 -106.624115 
L 135.017244 -109.024298 
L 131.820625 -109.024298 
L 131.820625 -111.406959 
L 131.370114 -111.406959 
L 131.370114 -111.406959 
L 126.705684 -111.406959 
L 126.705684 -113.689659 
L 126.390136 -113.689659 
L 126.390136 -115.959102 
L 126.206278 -115.959102 
L 126.206278 -118.215863 
L 125.786283 -118.215863 
L 125.786283 -120.460454 
L 123.863063 -120.460454 
L 123.863063 -122.693337 
L 123.555148 -122.693337 
L 123.555148 -124.914927 
L 123.268832 -124.914927 
L 123.268832 -127.1256 
L 123.229299 -127.1256 
L 123.229299 -127.1256 
L 123.083873 -127.1256 
L 123.083873 -129.266548 
L 122.96165 -129.266548 
L 122.96165 -131.398481 
L 121.783347 -131.398481 
L 121.783347 -133.521653 
L 121.458699 -133.521653 
L 121.458699 -135.6363 
L 120.177237 -135.6363 
L 120.177237 -137.742634 
L 119.663968 -137.742634 
L 119.663968 -139.840853 
L 119.146936 -139.840853 
L 119.146936 -141.931138 
L 116.935138 -141.931138 
L 116.935138 -144.013653 
L 115.329435 -144.013653 
L 115.329435 -146.08855 
L 115.292191 -146.08855 
L 115.292191 -148.155968 
L 114.128791 -148.155968 
L 114.128791 -150.216035 
L 113.671489 -150.216035 
L 113.671489 -152.268865 
L 113.463508 -152.268865 
L 113.463508 -154.314565 
L 113.267718 -154.314565 
L 113.267718 -156.353232 
L 111.438423 -156.353232 
L 111.438423 -156.353232 
L 110.934592 -156.353232 
L 110.934592 -158.347458 
L 110.278484 -158.347458 
L 110.278484 -160.335366 
L 107.801796 -160.335366 
L 107.801796 -162.317026 
L 106.8525 -162.317026 
L 106.8525 -164.292501 
L 106.823901 -164.292501 
L 106.823901 -166.261848 
L 106.352135 -166.261848 
L 106.352135 -168.225117 
L 105.300827 -168.225117 
L 105.300827 -170.182351 
L 103.90815 -170.182351 
L 103.90815 -172.133591 
L 103.806469 -172.133591 
L 103.806469 -174.078869 
L 103.094806 -174.078869 
L 103.094806 -176.018213 
L 102.405962 -176.018213 
L 102.405962 -177.951646 
L 102.253871 -177.951646 
L 102.253871 -179.879184 
L 102.049697 -179.879184 
L 102.049697 -181.800841 
L 101.851942 -181.800841 
L 101.851942 -181.800841 
L 100.373988 -181.800841 
L 100.373988 -181.800841 
L 99.986653 -181.800841 
L 99.986653 -183.662926 
L 99.851067 -183.662926 
L 99.851067 -185.519817 
L 99.196508 -185.519817 
L 99.196508 -187.371518 
L 98.910057 -187.371518 
L 98.910057 -189.218029 
L 97.362837 -189.218029 
L 97.362837 -191.059346 
L 97.089096 -191.059346 
L 97.089096 -192.895463 
L 97.083066 -192.895463 
L 97.083066 -194.726367 
L 96.348856 -194.726367 
L 96.348856 -196.552043 
L 96.17098 -196.552043 
L 96.17098 -198.372472 
L 95.446358 -198.372472 
L 95.446358 -200.187629 
L 93.765435 -200.187629 
L 93.765435 -200.187629 
L 93.754315 -200.187629 
L 93.754315 -201.976005 
L 93.475566 -201.976005 
L 93.475566 -203.75931 
L 93.092175 -203.75931 
L 93.092175 -203.75931 
L 92.994069 -203.75931 
L 92.994069 -205.517214 
L 92.629923 -205.517214 
L 92.629923 -207.27022 
L 92.521824 -207.27022 
L 92.521824 -209.018291 
L 92.429316 -209.018291 
L 92.429316 -210.761387 
L 91.083246 -210.761387 
L 91.083246 -210.761387 
L 91.063787 -210.761387 
L 91.063787 -210.761387 
L 91.047527 -210.761387 
L 91.047527 -212.462637 
L 90.761906 -212.462637 
L 90.761906 -214.159244 
L 89.650444 -214.159244 
L 89.650444 -215.851163 
L 89.492987 -215.851163 
L 89.492987 -217.538346 
L 89.421727 -217.538346 
L 89.421727 -219.220742 
L 89.322801 -219.220742 
L 89.322801 -220.898294 
L 89.153159 -220.898294 
L 89.153159 -222.570942 
L 88.289123 -222.570942 
L 88.289123 -224.23862 
L 87.806227 -224.23862 
L 87.806227 -225.901259 
L 87.750047 -225.901259 
L 87.750047 -227.558781 
L 87.191727 -227.558781 
L 87.191727 -229.211107 
L 86.492793 -229.211107 
L 86.492793 -230.858148 
L 86.21472 -230.858148 
L 86.21472 -230.858148 
L 85.699427 -230.858148 
L 85.699427 -232.484945 
L 85.58281 -232.484945 
L 85.58281 -234.106457 
L 85.346247 -234.106457 
L 85.346247 -235.722582 
L 85.315117 -235.722582 
L 85.315117 -237.333211 
L 85.142689 -237.333211 
L 85.142689 -238.938228 
L 84.441542 -238.938228 
L 84.441542 -238.938228 
L 83.666636 -238.938228 
L 83.666636 -240.523952 
L 83.455732 -240.523952 
L 83.455732 -242.103995 
L 83.172727 -242.103995 
L 83.172727 -243.678218 
L 82.915761 -243.678218 
L 82.915761 -245.246474 
L 82.844824 -245.246474 
L 82.844824 -246.808605 
L 82.561205 -246.808605 
L 82.561205 -248.364438 
L 82.385422 -248.364438 
L 82.385422 -249.91379 
L 82.369657 -249.91379 
L 82.369657 -251.456462 
L 81.929728 -251.456462 
L 81.929728 -252.992237 
L 81.667263 -252.992237 
L 81.667263 -254.520883 
L 81.138387 -254.520883 
L 81.138387 -256.042144 
L 80.772888 -256.042144 
L 80.772888 -257.555746 
L 80.28396 -257.555746 
L 80.28396 -259.061387 
L 80.127355 -259.061387 
L 80.127355 -260.558736 
L 79.627115 -260.558736 
L 79.627115 -262.047434 
L 79.56368 -262.047434 
L 79.56368 -263.527081 
L 78.627095 -263.527081 
L 78.627095 -263.527081 
L 78.618693 -263.527081 
L 78.618693 -264.98696 
L 78.607995 -264.98696 
L 78.607995 -266.437122 
L 78.113538 -266.437122 
L 78.113538 -267.877043 
L 78.011526 -267.877043 
L 78.011526 -269.306141 
L 77.792271 -269.306141 
L 77.792271 -270.723762 
L 77.699538 -270.723762 
L 77.699538 -272.129166 
L 77.692272 -272.129166 
L 77.692272 -273.521515 
L 77.506417 -273.521515 
L 77.506417 -274.899851 
L 77.22937 -274.899851 
L 77.22937 -276.263071 
L 77.200691 -276.263071 
L 77.200691 -277.609893 
L 77.15872 -277.609893 
L 77.15872 -278.938814 
L 77.064144 -278.938814 
L 77.064144 -280.248051 
L 77.047709 -280.248051 
L 77.047709 -280.248051 
L 76.826238 -280.248051 
L 76.826238 -281.527975 
L 76.616052 -281.527975 
L 76.616052 -281.527975 
L 76.542949 -281.527975 
L 76.542949 -282.77686 
L 76.429012 -282.77686 
L 76.429012 -282.77686 
L 76.237362 -282.77686 
L 76.237362 -283.992492 
L 76.15894 -283.992492 
L 76.15894 -285.178372 
L 76.157609 -285.178372 
L 76.157609 -286.329643 
L 76.08687 -286.329643 
L 76.08687 -286.329643 
L 75.805346 -286.329643 
L 75.805346 -287.434224 
L 75.084741 -287.434224 
L 75.084741 -288.489663 
L 74.902677 -288.489663 
L 74.902677 -289.483204 
L 74.610465 -289.483204 
L 74.610465 -290.394919 
L 74.348629 -290.394919 
L 74.348629 -290.394919 
L 74.160487 -290.394919 
L 74.160487 -291.187269 
L 73.923026 -291.187269 
L 73.923026 -291.794641 
L 73.858124 -291.794641 
L 73.858124 -292.032 
L 73.832727 -292.032 
z
" style="stroke: #1f77b4; stroke-opacity: 0.25"/>
    </defs>
    <g clip-path="url(#pb774fe7290)">
     <use xlink:href="#m7b81c2e04f" x="0" y="345.6" style="fill: #1f77b4; fill-opacity: 0.25; stroke: #1f77b4; stroke-opacity: 0.25"/>
    </g>
   </g>
   <g id="PolyCollection_2">
    <defs>
     <path id="m6413521c3c" d="M 73.832727 -292.032 
L 73.832727 -292.032 
L 74.111932 -292.032 
L 74.111932 -278.930139 
L 74.134212 -278.930139 
L 74.134212 -277.26808 
L 74.790096 -277.26808 
L 74.790096 -274.880371 
L 75.192445 -274.880371 
L 75.192445 -272.408509 
L 75.35761 -272.408509 
L 75.35761 -269.94552 
L 75.970417 -269.94552 
L 75.970417 -267.511389 
L 76.001399 -267.511389 
L 76.001399 -267.511389 
L 76.552787 -267.511389 
L 76.552787 -265.078147 
L 77.072603 -265.078147 
L 77.072603 -262.679384 
L 78.01087 -262.679384 
L 78.01087 -260.311847 
L 78.046301 -260.311847 
L 78.046301 -257.972486 
L 78.080033 -257.972486 
L 78.080033 -255.658608 
L 78.188821 -255.658608 
L 78.188821 -253.367884 
L 78.762945 -253.367884 
L 78.762945 -251.098311 
L 79.141445 -251.098311 
L 79.141445 -248.848162 
L 79.66812 -248.848162 
L 79.66812 -246.615947 
L 79.942548 -246.615947 
L 79.942548 -244.40037 
L 80.366557 -244.40037 
L 80.366557 -242.200299 
L 80.458473 -242.200299 
L 80.458473 -240.01474 
L 80.963248 -240.01474 
L 80.963248 -237.842817 
L 81.990354 -237.842817 
L 81.990354 -235.683751 
L 82.503096 -235.683751 
L 82.503096 -233.53685 
L 82.598198 -233.53685 
L 82.598198 -231.401493 
L 82.756648 -231.401493 
L 82.756648 -229.277124 
L 83.209765 -229.277124 
L 83.209765 -229.277124 
L 85.37549 -229.277124 
L 85.37549 -227.137224 
L 85.442687 -227.137224 
L 85.442687 -225.007938 
L 86.696227 -225.007938 
L 86.696227 -222.888801 
L 87.019011 -222.888801 
L 87.019011 -220.779393 
L 88.232211 -220.779393 
L 88.232211 -218.679332 
L 88.59802 -218.679332 
L 88.59802 -216.588271 
L 88.850767 -216.588271 
L 88.850767 -214.505892 
L 89.237908 -214.505892 
L 89.237908 -214.505892 
L 89.433948 -214.505892 
L 89.433948 -212.404892 
L 90.043943 -212.404892 
L 90.043943 -210.312493 
L 90.131585 -210.312493 
L 90.131585 -210.312493 
L 90.814031 -210.312493 
L 90.814031 -208.200501 
L 91.015767 -208.200501 
L 91.015767 -206.097055 
L 93.210166 -206.097055 
L 93.210166 -204.001892 
L 94.099924 -204.001892 
L 94.099924 -201.914774 
L 94.813506 -201.914774 
L 94.813506 -199.835479 
L 96.007787 -199.835479 
L 96.007787 -197.763807 
L 96.443049 -197.763807 
L 96.443049 -195.69957 
L 97.131975 -195.69957 
L 97.131975 -195.69957 
L 97.826866 -195.69957 
L 97.826866 -193.612828 
L 98.578727 -193.612828 
L 98.578727 -193.612828 
L 100.824985 -193.612828 
L 100.824985 -191.502809 
L 100.931894 -191.502809 
L 100.931894 -189.400624 
L 101.415933 -189.400624 
L 101.415933 -187.306099 
L 102.8166 -187.306099 
L 102.8166 -185.219072 
L 104.351722 -185.219072 
L 104.351722 -183.139396 
L 104.609698 -183.139396 
L 104.609698 -181.066937 
L 104.861912 -181.066937 
L 104.861912 -181.066937 
L 105.032587 -181.066937 
L 105.032587 -178.968336 
L 106.73616 -178.968336 
L 106.73616 -176.877176 
L 106.767779 -176.877176 
L 106.767779 -174.793332 
L 108.762715 -174.793332 
L 108.762715 -172.716696 
L 109.007501 -172.716696 
L 109.007501 -170.647167 
L 109.07375 -170.647167 
L 109.07375 -168.584653 
L 109.525221 -168.584653 
L 109.525221 -166.529071 
L 112.317088 -166.529071 
L 112.317088 -164.480349 
L 112.773668 -164.480349 
L 112.773668 -162.438421 
L 112.823744 -162.438421 
L 112.823744 -160.403227 
L 112.905788 -160.403227 
L 112.905788 -158.374718 
L 113.534951 -158.374718 
L 113.534951 -156.352848 
L 113.605067 -156.352848 
L 113.605067 -154.337582 
L 114.93972 -154.337582 
L 114.93972 -152.328887 
L 118.491911 -152.328887 
L 118.491911 -152.328887 
L 119.579253 -152.328887 
L 119.579253 -150.286857 
L 121.072613 -150.286857 
L 121.072613 -148.251874 
L 121.208802 -148.251874 
L 121.208802 -146.223916 
L 121.319732 -146.223916 
L 121.319732 -144.202967 
L 121.393678 -144.202967 
L 121.393678 -142.18902 
L 121.430742 -142.18902 
L 121.430742 -140.182073 
L 123.529944 -140.182073 
L 123.529944 -138.182131 
L 125.516146 -138.182131 
L 125.516146 -136.189208 
L 126.299324 -136.189208 
L 126.299324 -134.203323 
L 126.893994 -134.203323 
L 126.893994 -132.224504 
L 128.531393 -132.224504 
L 128.531393 -130.252785 
L 128.930094 -130.252785 
L 128.930094 -128.288208 
L 129.424719 -128.288208 
L 129.424719 -126.330822 
L 134.747173 -126.330822 
L 134.747173 -126.330822 
L 135.121518 -126.330822 
L 135.121518 -124.329991 
L 135.808964 -124.329991 
L 135.808964 -122.337209 
L 135.956179 -122.337209 
L 135.956179 -120.352547 
L 136.457215 -120.352547 
L 136.457215 -120.352547 
L 137.10853 -120.352547 
L 137.10853 -118.319617 
L 137.818007 -118.319617 
L 137.818007 -116.29588 
L 140.321341 -116.29588 
L 140.321341 -116.29588 
L 141.165077 -116.29588 
L 141.165077 -114.219223 
L 144.977627 -114.219223 
L 144.977627 -112.153065 
L 145.172259 -112.153065 
L 145.172259 -110.097529 
L 145.686842 -110.097529 
L 145.686842 -108.052757 
L 149.721581 -108.052757 
L 149.721581 -106.018913 
L 151.008781 -106.018913 
L 151.008781 -103.99618 
L 151.785147 -103.99618 
L 151.785147 -101.984765 
L 153.16072 -101.984765 
L 153.16072 -99.984899 
L 154.213813 -99.984899 
L 154.213813 -97.996841 
L 155.870475 -97.996841 
L 155.870475 -97.996841 
L 159.147952 -97.996841 
L 159.147952 -97.996841 
L 159.870401 -97.996841 
L 159.870401 -95.848117 
L 163.225896 -95.848117 
L 163.225896 -93.716039 
L 164.004082 -93.716039 
L 164.004082 -91.601008 
L 165.826881 -91.601008 
L 165.826881 -89.503482 
L 174.80463 -89.503482 
L 174.80463 -89.503482 
L 176.914636 -89.503482 
L 176.914636 -87.312378 
L 177.501203 -87.312378 
L 177.501203 -85.143538 
L 179.255425 -85.143538 
L 179.255425 -82.997709 
L 179.88149 -82.997709 
L 179.88149 -80.875762 
L 180.394692 -80.875762 
L 180.394692 -78.778709 
L 193.273227 -78.778709 
L 193.273227 -78.778709 
L 194.554602 -78.778709 
L 194.554602 -76.55489 
L 195.798444 -76.55489 
L 195.798444 -74.365828 
L 197.219184 -74.365828 
L 197.219184 -72.213408 
L 198.173907 -72.213408 
L 198.173907 -70.099894 
L 201.593453 -70.099894 
L 201.593453 -70.099894 
L 202.6451 -70.099894 
L 202.6451 -67.806983 
L 206.856179 -67.806983 
L 206.856179 -65.57644 
L 211.341827 -65.57644 
L 211.341827 -63.413575 
L 224.576347 -63.413575 
L 224.576347 -61.325256 
L 235.104563 -61.325256 
L 235.104563 -61.325256 
L 255.659735 -61.325256 
L 255.659735 -58.944494 
L 263.144408 -58.944494 
L 263.144408 -56.727135 
L 269.919047 -56.727135 
L 269.919047 -54.700554 
L 275.535375 -54.700554 
L 275.535375 -52.908431 
L 286.524088 -52.908431 
L 286.524088 -51.426327 
L 300.809517 -51.426327 
L 300.809517 -50.403066 
L 398.487273 -50.403066 
L 398.487273 -50.112 
L 398.487273 -50.112 
L 398.487273 -50.112 
L 398.487273 -65.444385 
L 300.809517 -65.444385 
L 300.809517 -69.901544 
L 286.524088 -69.901544 
L 286.524088 -74.194055 
L 275.535375 -74.194055 
L 275.535375 -78.272827 
L 269.919047 -78.272827 
L 269.919047 -82.17203 
L 263.144408 -82.17203 
L 263.144408 -85.920195 
L 255.659735 -85.920195 
L 255.659735 -89.537491 
L 235.104563 -89.537491 
L 235.104563 -89.537491 
L 224.576347 -89.537491 
L 224.576347 -92.825573 
L 211.341827 -92.825573 
L 211.341827 -96.051753 
L 206.856179 -96.051753 
L 206.856179 -99.22184 
L 202.6451 -99.22184 
L 202.6451 -102.3404 
L 201.593453 -102.3404 
L 201.593453 -102.3404 
L 198.173907 -102.3404 
L 198.173907 -105.260843 
L 197.219184 -105.260843 
L 197.219184 -108.148448 
L 195.798444 -108.148448 
L 195.798444 -111.005231 
L 194.554602 -111.005231 
L 194.554602 -113.83289 
L 193.273227 -113.83289 
L 193.273227 -113.83289 
L 180.394692 -113.83289 
L 180.394692 -116.523619 
L 179.88149 -116.523619 
L 179.88149 -119.193107 
L 179.255425 -119.193107 
L 179.255425 -121.842284 
L 177.501203 -121.842284 
L 177.501203 -124.47196 
L 176.914636 -124.47196 
L 176.914636 -127.082842 
L 174.80463 -127.082842 
L 174.80463 -127.082842 
L 165.826881 -127.082842 
L 165.826881 -129.595173 
L 164.004082 -129.595173 
L 164.004082 -132.0925 
L 163.225896 -132.0925 
L 163.225896 -134.575264 
L 159.870401 -134.575264 
L 159.870401 -137.04386 
L 159.147952 -137.04386 
L 159.147952 -137.04386 
L 155.870475 -137.04386 
L 155.870475 -137.04386 
L 154.213813 -137.04386 
L 154.213813 -139.371707 
L 153.16072 -139.371707 
L 153.16072 -141.689102 
L 151.785147 -141.689102 
L 151.785147 -143.99629 
L 151.008781 -143.99629 
L 151.008781 -146.293492 
L 149.721581 -146.293492 
L 149.721581 -148.58091 
L 145.686842 -148.58091 
L 145.686842 -150.858726 
L 145.172259 -150.858726 
L 145.172259 -153.127106 
L 144.977627 -153.127106 
L 144.977627 -155.386196 
L 141.165077 -155.386196 
L 141.165077 -157.63613 
L 140.321341 -157.63613 
L 140.321341 -157.63613 
L 137.818007 -157.63613 
L 137.818007 -159.832172 
L 137.10853 -159.832172 
L 137.10853 -162.020067 
L 136.457215 -162.020067 
L 136.457215 -162.020067 
L 135.956179 -162.020067 
L 135.956179 -164.158914 
L 135.808964 -164.158914 
L 135.808964 -166.290433 
L 135.121518 -166.290433 
L 135.121518 -168.414697 
L 134.747173 -168.414697 
L 134.747173 -168.414697 
L 129.424719 -168.414697 
L 129.424719 -170.494993 
L 128.930094 -170.494993 
L 128.930094 -172.568677 
L 128.531393 -172.568677 
L 128.531393 -174.635796 
L 126.893994 -174.635796 
L 126.893994 -176.696394 
L 126.299324 -176.696394 
L 126.299324 -178.750507 
L 125.516146 -178.750507 
L 125.516146 -180.798165 
L 123.529944 -180.798165 
L 123.529944 -182.839391 
L 121.430742 -182.839391 
L 121.430742 -184.874203 
L 121.393678 -184.874203 
L 121.393678 -186.902616 
L 121.319732 -186.902616 
L 121.319732 -188.924634 
L 121.208802 -188.924634 
L 121.208802 -190.94026 
L 121.072613 -190.94026 
L 121.072613 -192.949489 
L 119.579253 -192.949489 
L 119.579253 -194.952311 
L 118.491911 -194.952311 
L 118.491911 -194.952311 
L 114.93972 -194.952311 
L 114.93972 -196.921685 
L 113.605067 -196.921685 
L 113.605067 -198.884973 
L 113.534951 -198.884973 
L 113.534951 -200.84215 
L 112.905788 -200.84215 
L 112.905788 -202.793191 
L 112.823744 -202.793191 
L 112.823744 -204.738061 
L 112.773668 -204.738061 
L 112.773668 -206.676722 
L 112.317088 -206.676722 
L 112.317088 -208.60913 
L 109.525221 -208.60913 
L 109.525221 -210.535235 
L 109.07375 -210.535235 
L 109.07375 -212.454981 
L 109.007501 -212.454981 
L 109.007501 -214.368303 
L 108.762715 -214.368303 
L 108.762715 -216.275135 
L 106.767779 -216.275135 
L 106.767779 -218.175398 
L 106.73616 -218.175398 
L 106.73616 -220.069009 
L 105.032587 -220.069009 
L 105.032587 -221.955878 
L 104.861912 -221.955878 
L 104.861912 -221.955878 
L 104.609698 -221.955878 
L 104.609698 -223.815515 
L 104.351722 -223.815515 
L 104.351722 -225.668501 
L 102.8166 -225.668501 
L 102.8166 -227.514728 
L 101.415933 -227.514728 
L 101.415933 -229.354079 
L 100.931894 -229.354079 
L 100.931894 -231.186424 
L 100.824985 -231.186424 
L 100.824985 -233.011628 
L 98.578727 -233.011628 
L 98.578727 -233.011628 
L 97.826866 -233.011628 
L 97.826866 -234.811547 
L 97.131975 -234.811547 
L 97.131975 -234.811547 
L 96.443049 -234.811547 
L 96.443049 -236.586944 
L 96.007787 -236.586944 
L 96.007787 -238.35529 
L 94.813506 -238.35529 
L 94.813506 -240.116418 
L 94.099924 -240.116418 
L 94.099924 -241.870147 
L 93.210166 -241.870147 
L 93.210166 -243.616283 
L 91.015767 -243.616283 
L 91.015767 -245.354616 
L 90.814031 -245.354616 
L 90.814031 -247.084915 
L 90.131585 -247.084915 
L 90.131585 -247.084915 
L 90.043943 -247.084915 
L 90.043943 -248.791826 
L 89.433948 -248.791826 
L 89.433948 -250.490472 
L 89.237908 -250.490472 
L 89.237908 -250.490472 
L 88.850767 -250.490472 
L 88.850767 -252.166228 
L 88.59802 -252.166228 
L 88.59802 -253.833418 
L 88.232211 -253.833418 
L 88.232211 -255.491723 
L 87.019011 -255.491723 
L 87.019011 -257.140795 
L 86.696227 -257.140795 
L 86.696227 -258.780255 
L 85.442687 -258.780255 
L 85.442687 -260.409681 
L 85.37549 -260.409681 
L 85.37549 -262.02861 
L 83.209765 -262.02861 
L 83.209765 -262.02861 
L 82.756648 -262.02861 
L 82.756648 -263.624142 
L 82.598198 -263.624142 
L 82.598198 -265.208419 
L 82.503096 -265.208419 
L 82.503096 -266.780828 
L 81.990354 -266.780828 
L 81.990354 -268.340682 
L 80.963248 -268.340682 
L 80.963248 -269.887204 
L 80.458473 -269.887204 
L 80.458473 -271.419517 
L 80.366557 -271.419517 
L 80.366557 -272.936615 
L 79.942548 -272.936615 
L 79.942548 -274.437345 
L 79.66812 -274.437345 
L 79.66812 -275.920371 
L 79.141445 -275.920371 
L 79.141445 -277.384126 
L 78.762945 -277.384126 
L 78.762945 -278.826761 
L 78.188821 -278.826761 
L 78.188821 -280.246059 
L 78.080033 -280.246059 
L 78.080033 -281.639331 
L 78.046301 -281.639331 
L 78.046301 -283.003253 
L 78.01087 -283.003253 
L 78.01087 -284.333637 
L 77.072603 -284.333637 
L 77.072603 -285.625077 
L 76.552787 -285.625077 
L 76.552787 -286.870372 
L 76.001399 -286.870372 
L 76.001399 -286.870372 
L 75.970417 -286.870372 
L 75.970417 -288.05308 
L 75.35761 -288.05308 
L 75.35761 -289.166541 
L 75.192445 -289.166541 
L 75.192445 -290.188641 
L 74.790096 -290.188641 
L 74.790096 -291.081055 
L 74.134212 -291.081055 
L 74.134212 -291.764872 
L 74.111932 -291.764872 
L 74.111932 -292.032 
L 73.832727 -292.032 
z
" style="stroke: #ff7f0e; stroke-opacity: 0.25"/>
    </defs>
    <g clip-path="url(#pb774fe7290)">
     <use xlink:href="#m6413521c3c" x="0" y="345.6" style="fill: #ff7f0e; fill-opacity: 0.25; stroke: #ff7f0e; stroke-opacity: 0.25"/>
    </g>
   </g>
   <g id="matplotlib.axis_1">
    <g id="xtick_1">
     <g id="line2d_1">
      <defs>
       <path id="mb05f03569a" d="M 0 0 
L 0 3.5 
" style="stroke: #000000; stroke-width: 0.8"/>
      </defs>
      <g>
       <use xlink:href="#mb05f03569a" x="73.832727" y="307.584" style="stroke: #000000; stroke-width: 0.8"/>
      </g>
     </g>
     <g id="text_1">
      <!-- 0 -->
      <g transform="translate(70.651477 322.182437) scale(0.1 -0.1)">
       <defs>
        <path id="DejaVuSans-30" d="M 2034 4250 
Q 1547 4250 1301 3770 
Q 1056 3291 1056 2328 
Q 1056 1369 1301 889 
Q 1547 409 2034 409 
Q 2525 409 2770 889 
Q 3016 1369 3016 2328 
Q 3016 3291 2770 3770 
Q 2525 4250 2034 4250 
z
M 2034 4750 
Q 2819 4750 3233 4129 
Q 3647 3509 3647 2328 
Q 3647 1150 3233 529 
Q 2819 -91 2034 -91 
Q 1250 -91 836 529 
Q 422 1150 422 2328 
Q 422 3509 836 4129 
Q 1250 4750 2034 4750 
z
" transform="scale(0.015625)"/>
       </defs>
       <use xlink:href="#DejaVuSans-30"/>
      </g>
     </g>
    </g>
    <g id="xtick_2">
     <g id="line2d_2">
      <g>
       <use xlink:href="#mb05f03569a" x="142.363686" y="307.584" style="stroke: #000000; stroke-width: 0.8"/>
      </g>
     </g>
     <g id="text_2">
      <!-- 2 -->
      <g transform="translate(139.182436 322.182437) scale(0.1 -0.1)">
       <defs>
        <path id="DejaVuSans-32" d="M 1228 531 
L 3431 531 
L 3431 0 
L 469 0 
L 469 531 
Q 828 903 1448 1529 
Q 2069 2156 2228 2338 
Q 2531 2678 2651 2914 
Q 2772 3150 2772 3378 
Q 2772 3750 2511 3984 
Q 2250 4219 1831 4219 
Q 1534 4219 1204 4116 
Q 875 4013 500 3803 
L 500 4441 
Q 881 4594 1212 4672 
Q 1544 4750 1819 4750 
Q 2544 4750 2975 4387 
Q 3406 4025 3406 3419 
Q 3406 3131 3298 2873 
Q 3191 2616 2906 2266 
Q 2828 2175 2409 1742 
Q 1991 1309 1228 531 
z
" transform="scale(0.015625)"/>
       </defs>
       <use xlink:href="#DejaVuSans-32"/>
      </g>
     </g>
    </g>
    <g id="xtick_3">
     <g id="line2d_3">
      <g>
       <use xlink:href="#mb05f03569a" x="210.894646" y="307.584" style="stroke: #000000; stroke-width: 0.8"/>
      </g>
     </g>
     <g id="text_3">
      <!-- 4 -->
      <g transform="translate(207.713396 322.182437) scale(0.1 -0.1)">
       <defs>
        <path id="DejaVuSans-34" d="M 2419 4116 
L 825 1625 
L 2419 1625 
L 2419 4116 
z
M 2253 4666 
L 3047 4666 
L 3047 1625 
L 3713 1625 
L 3713 1100 
L 3047 1100 
L 3047 0 
L 2419 0 
L 2419 1100 
L 313 1100 
L 313 1709 
L 2253 4666 
z
" transform="scale(0.015625)"/>
       </defs>
       <use xlink:href="#DejaVuSans-34"/>
      </g>
     </g>
    </g>
    <g id="xtick_4">
     <g id="line2d_4">
      <g>
       <use xlink:href="#mb05f03569a" x="279.425605" y="307.584" style="stroke: #000000; stroke-width: 0.8"/>
      </g>
     </g>
     <g id="text_4">
      <!-- 6 -->
      <g transform="translate(276.244355 322.182437) scale(0.1 -0.1)">
       <defs>
        <path id="DejaVuSans-36" d="M 2113 2584 
Q 1688 2584 1439 2293 
Q 1191 2003 1191 1497 
Q 1191 994 1439 701 
Q 1688 409 2113 409 
Q 2538 409 2786 701 
Q 3034 994 3034 1497 
Q 3034 2003 2786 2293 
Q 2538 2584 2113 2584 
z
M 3366 4563 
L 3366 3988 
Q 3128 4100 2886 4159 
Q 2644 4219 2406 4219 
Q 1781 4219 1451 3797 
Q 1122 3375 1075 2522 
Q 1259 2794 1537 2939 
Q 1816 3084 2150 3084 
Q 2853 3084 3261 2657 
Q 3669 2231 3669 1497 
Q 3669 778 3244 343 
Q 2819 -91 2113 -91 
Q 1303 -91 875 529 
Q 447 1150 447 2328 
Q 447 3434 972 4092 
Q 1497 4750 2381 4750 
Q 2619 4750 2861 4703 
Q 3103 4656 3366 4563 
z
" transform="scale(0.015625)"/>
       </defs>
       <use xlink:href="#DejaVuSans-36"/>
      </g>
     </g>
    </g>
    <g id="xtick_5">
     <g id="line2d_5">
      <g>
       <use xlink:href="#mb05f03569a" x="347.956564" y="307.584" style="stroke: #000000; stroke-width: 0.8"/>
      </g>
     </g>
     <g id="text_5">
      <!-- 8 -->
      <g transform="translate(344.775314 322.182437) scale(0.1 -0.1)">
       <defs>
        <path id="DejaVuSans-38" d="M 2034 2216 
Q 1584 2216 1326 1975 
Q 1069 1734 1069 1313 
Q 1069 891 1326 650 
Q 1584 409 2034 409 
Q 2484 409 2743 651 
Q 3003 894 3003 1313 
Q 3003 1734 2745 1975 
Q 2488 2216 2034 2216 
z
M 1403 2484 
Q 997 2584 770 2862 
Q 544 3141 544 3541 
Q 544 4100 942 4425 
Q 1341 4750 2034 4750 
Q 2731 4750 3128 4425 
Q 3525 4100 3525 3541 
Q 3525 3141 3298 2862 
Q 3072 2584 2669 2484 
Q 3125 2378 3379 2068 
Q 3634 1759 3634 1313 
Q 3634 634 3220 271 
Q 2806 -91 2034 -91 
Q 1263 -91 848 271 
Q 434 634 434 1313 
Q 434 1759 690 2068 
Q 947 2378 1403 2484 
z
M 1172 3481 
Q 1172 3119 1398 2916 
Q 1625 2713 2034 2713 
Q 2441 2713 2670 2916 
Q 2900 3119 2900 3481 
Q 2900 3844 2670 4047 
Q 2441 4250 2034 4250 
Q 1625 4250 1398 4047 
Q 1172 3844 1172 3481 
z
" transform="scale(0.015625)"/>
       </defs>
       <use xlink:href="#DejaVuSans-38"/>
      </g>
     </g>
    </g>
    <g id="text_6">
     <!-- $t$ -->
     <g transform="translate(234.16 335.860562) scale(0.1 -0.1)">
      <defs>
       <path id="DejaVuSans-Oblique-74" d="M 2706 3500 
L 2619 3053 
L 1472 3053 
L 1100 1153 
Q 1081 1047 1072 975 
Q 1063 903 1063 863 
Q 1063 663 1183 572 
Q 1303 481 1569 481 
L 2150 481 
L 2053 0 
L 1503 0 
Q 991 0 739 200 
Q 488 400 488 806 
Q 488 878 497 964 
Q 506 1050 525 1153 
L 897 3053 
L 409 3053 
L 500 3500 
L 978 3500 
L 1172 4494 
L 1747 4494 
L 1556 3500 
L 2706 3500 
z
" transform="scale(0.015625)"/>
      </defs>
      <use xlink:href="#DejaVuSans-Oblique-74" transform="translate(0 0.78125)"/>
     </g>
    </g>
   </g>
   <g id="matplotlib.axis_2">
    <g id="ytick_1">
     <g id="line2d_6">
      <defs>
       <path id="m52290cbe8b" d="M 0 0 
L -3.5 0 
" style="stroke: #000000; stroke-width: 0.8"/>
      </defs>
      <g>
       <use xlink:href="#m52290cbe8b" x="57.6" y="295.488" style="stroke: #000000; stroke-width: 0.8"/>
      </g>
     </g>
     <g id="text_7">
      <!-- 0.0 -->
      <g transform="translate(34.696875 299.287219) scale(0.1 -0.1)">
       <defs>
        <path id="DejaVuSans-2e" d="M 684 794 
L 1344 794 
L 1344 0 
L 684 0 
L 684 794 
z
" transform="scale(0.015625)"/>
       </defs>
       <use xlink:href="#DejaVuSans-30"/>
       <use xlink:href="#DejaVuSans-2e" x="63.623047"/>
       <use xlink:href="#DejaVuSans-30" x="95.410156"/>
      </g>
     </g>
    </g>
    <g id="ytick_2">
     <g id="line2d_7">
      <g>
       <use xlink:href="#m52290cbe8b" x="57.6" y="247.104" style="stroke: #000000; stroke-width: 0.8"/>
      </g>
     </g>
     <g id="text_8">
      <!-- 0.2 -->
      <g transform="translate(34.696875 250.903219) scale(0.1 -0.1)">
       <use xlink:href="#DejaVuSans-30"/>
       <use xlink:href="#DejaVuSans-2e" x="63.623047"/>
       <use xlink:href="#DejaVuSans-32" x="95.410156"/>
      </g>
     </g>
    </g>
    <g id="ytick_3">
     <g id="line2d_8">
      <g>
       <use xlink:href="#m52290cbe8b" x="57.6" y="198.72" style="stroke: #000000; stroke-width: 0.8"/>
      </g>
     </g>
     <g id="text_9">
      <!-- 0.4 -->
      <g transform="translate(34.696875 202.519219) scale(0.1 -0.1)">
       <use xlink:href="#DejaVuSans-30"/>
       <use xlink:href="#DejaVuSans-2e" x="63.623047"/>
       <use xlink:href="#DejaVuSans-34" x="95.410156"/>
      </g>
     </g>
    </g>
    <g id="ytick_4">
     <g id="line2d_9">
      <g>
       <use xlink:href="#m52290cbe8b" x="57.6" y="150.336" style="stroke: #000000; stroke-width: 0.8"/>
      </g>
     </g>
     <g id="text_10">
      <!-- 0.6 -->
      <g transform="translate(34.696875 154.135219) scale(0.1 -0.1)">
       <use xlink:href="#DejaVuSans-30"/>
       <use xlink:href="#DejaVuSans-2e" x="63.623047"/>
       <use xlink:href="#DejaVuSans-36" x="95.410156"/>
      </g>
     </g>
    </g>
    <g id="ytick_5">
     <g id="line2d_10">
      <g>
       <use xlink:href="#m52290cbe8b" x="57.6" y="101.952" style="stroke: #000000; stroke-width: 0.8"/>
      </g>
     </g>
     <g id="text_11">
      <!-- 0.8 -->
      <g transform="translate(34.696875 105.751219) scale(0.1 -0.1)">
       <use xlink:href="#DejaVuSans-30"/>
       <use xlink:href="#DejaVuSans-2e" x="63.623047"/>
       <use xlink:href="#DejaVuSans-38" x="95.410156"/>
      </g>
     </g>
    </g>
    <g id="ytick_6">
     <g id="line2d_11">
      <g>
       <use xlink:href="#m52290cbe8b" x="57.6" y="53.568" style="stroke: #000000; stroke-width: 0.8"/>
      </g>
     </g>
     <g id="text_12">
      <!-- 1.0 -->
      <g transform="translate(34.696875 57.367219) scale(0.1 -0.1)">
       <defs>
        <path id="DejaVuSans-31" d="M 794 531 
L 1825 531 
L 1825 4091 
L 703 3866 
L 703 4441 
L 1819 4666 
L 2450 4666 
L 2450 531 
L 3481 531 
L 3481 0 
L 794 0 
L 794 531 
z
" transform="scale(0.015625)"/>
       </defs>
       <use xlink:href="#DejaVuSans-31"/>
       <use xlink:href="#DejaVuSans-2e" x="63.623047"/>
       <use xlink:href="#DejaVuSans-30" x="95.410156"/>
      </g>
     </g>
    </g>
    <g id="text_13">
     <!-- $S(t)$ -->
     <g transform="translate(28.617188 183.578) rotate(-90) scale(0.1 -0.1)">
      <defs>
       <path id="DejaVuSans-Oblique-53" d="M 3859 4513 
L 3738 3897 
Q 3422 4066 3111 4152 
Q 2800 4238 2509 4238 
Q 1944 4238 1609 3991 
Q 1275 3744 1275 3334 
Q 1275 3109 1398 2989 
Q 1522 2869 2034 2731 
L 2413 2638 
Q 3053 2472 3303 2217 
Q 3553 1963 3553 1503 
Q 3553 797 2998 353 
Q 2444 -91 1538 -91 
Q 1166 -91 791 -17 
Q 416 56 38 206 
L 166 856 
Q 513 641 861 531 
Q 1209 422 1556 422 
Q 2147 422 2503 684 
Q 2859 947 2859 1369 
Q 2859 1650 2717 1795 
Q 2575 1941 2106 2059 
L 1728 2156 
Q 1081 2325 845 2545 
Q 609 2766 609 3163 
Q 609 3859 1145 4304 
Q 1681 4750 2541 4750 
Q 2875 4750 3203 4690 
Q 3531 4631 3859 4513 
z
" transform="scale(0.015625)"/>
       <path id="DejaVuSans-28" d="M 1984 4856 
Q 1566 4138 1362 3434 
Q 1159 2731 1159 2009 
Q 1159 1288 1364 580 
Q 1569 -128 1984 -844 
L 1484 -844 
Q 1016 -109 783 600 
Q 550 1309 550 2009 
Q 550 2706 781 3412 
Q 1013 4119 1484 4856 
L 1984 4856 
z
" transform="scale(0.015625)"/>
       <path id="DejaVuSans-29" d="M 513 4856 
L 1013 4856 
Q 1481 4119 1714 3412 
Q 1947 2706 1947 2009 
Q 1947 1309 1714 600 
Q 1481 -109 1013 -844 
L 513 -844 
Q 928 -128 1133 580 
Q 1338 1288 1338 2009 
Q 1338 2731 1133 3434 
Q 928 4138 513 4856 
z
" transform="scale(0.015625)"/>
      </defs>
      <use xlink:href="#DejaVuSans-Oblique-53" transform="translate(0 0.125)"/>
      <use xlink:href="#DejaVuSans-28" transform="translate(63.476562 0.125)"/>
      <use xlink:href="#DejaVuSans-Oblique-74" transform="translate(102.490234 0.125)"/>
      <use xlink:href="#DejaVuSans-29" transform="translate(141.699219 0.125)"/>
     </g>
    </g>
   </g>
   <g id="line2d_12">
    <path d="M 73.832727 53.568 
L 73.858124 53.568 
L 73.923026 56.928 
L 74.160487 56.928 
L 74.160487 58.608 
L 74.610465 58.608 
L 74.610465 60.3 
L 74.902677 60.3 
L 74.902677 61.992 
L 75.084741 61.992 
L 75.084741 63.684 
L 75.805346 63.684 
L 75.805346 65.376 
L 76.157609 65.376 
L 76.237362 70.4896 
L 76.542949 70.4896 
L 76.542949 72.207145 
L 76.616052 72.207145 
L 76.826238 72.207145 
L 76.826238 73.938004 
L 77.064144 73.938004 
L 77.15872 77.426981 
L 77.200691 77.426981 
L 77.22937 80.915957 
L 77.506417 80.915957 
L 77.506417 82.660445 
L 77.692272 82.660445 
L 77.792271 87.89391 
L 78.011526 87.89391 
L 78.113538 91.382886 
L 78.607995 91.382886 
L 78.618693 94.871862 
L 78.627095 94.871862 
L 79.56368 94.871862 
L 79.627115 98.391444 
L 80.127355 98.391444 
L 80.127355 100.151234 
L 80.28396 100.151234 
L 80.28396 101.911025 
L 80.772888 101.911025 
L 80.772888 103.670816 
L 81.138387 103.670816 
L 81.138387 105.430606 
L 81.667263 105.430606 
L 81.667263 107.190397 
L 81.929728 107.190397 
L 81.929728 108.950188 
L 82.369657 108.950188 
L 82.385422 112.469769 
L 82.561205 112.469769 
L 82.561205 114.22956 
L 82.844824 114.22956 
L 82.915761 117.749141 
L 83.172727 117.749141 
L 83.172727 119.508932 
L 83.455732 119.508932 
L 83.455732 121.268722 
L 83.666636 121.268722 
L 83.666636 123.028513 
L 85.142689 123.028513 
L 85.142689 124.806446 
L 85.315117 124.806446 
L 85.346247 128.362312 
L 85.58281 128.362312 
L 85.58281 130.140245 
L 85.699427 130.140245 
L 85.699427 131.918177 
L 86.492793 131.918177 
L 86.492793 133.715648 
L 87.191727 133.715648 
L 87.191727 135.513119 
L 87.750047 135.513119 
L 87.806227 139.10806 
L 88.289123 139.10806 
L 88.289123 140.90553 
L 89.153159 140.90553 
L 89.153159 142.703001 
L 89.322801 142.703001 
L 89.421727 146.297942 
L 89.492987 146.297942 
L 89.492987 148.095413 
L 89.650444 148.095413 
L 89.650444 149.892883 
L 90.761906 149.892883 
L 90.761906 151.690354 
L 91.047527 151.690354 
L 91.047527 153.487824 
L 91.083246 153.487824 
L 92.429316 153.487824 
L 92.521824 157.176141 
L 92.629923 157.176141 
L 92.629923 159.020299 
L 92.994069 159.020299 
L 92.994069 160.864457 
L 93.092175 160.864457 
L 93.475566 160.864457 
L 93.475566 162.734228 
L 93.754315 162.734228 
L 93.754315 164.604 
L 93.765435 164.604 
L 95.446358 164.604 
L 95.446358 166.500869 
L 96.17098 166.500869 
L 96.17098 168.397739 
L 96.348856 168.397739 
L 96.348856 170.294608 
L 97.083066 170.294608 
L 97.089096 174.088348 
L 97.362837 174.088348 
L 97.362837 175.985217 
L 98.910057 175.985217 
L 98.910057 177.882087 
L 99.196508 177.882087 
L 99.196508 179.778956 
L 99.851067 179.778956 
L 99.851067 181.675826 
L 99.986653 181.675826 
L 99.986653 183.572695 
L 102.049697 183.572695 
L 102.049697 185.536122 
L 102.253871 185.536122 
L 102.253871 187.499548 
L 102.405962 187.499548 
L 102.405962 189.462975 
L 103.094806 189.462975 
L 103.094806 191.426401 
L 103.806469 191.426401 
L 103.90815 195.353254 
L 105.300827 195.353254 
L 105.300827 197.31668 
L 106.352135 197.31668 
L 106.352135 199.280107 
L 106.823901 199.280107 
L 106.8525 203.206959 
L 107.801796 203.206959 
L 107.801796 205.170386 
L 110.278484 205.170386 
L 110.278484 207.133812 
L 110.934592 207.133812 
L 110.934592 209.097239 
L 113.267718 209.097239 
L 113.267718 211.106326 
L 113.463508 211.106326 
L 113.463508 213.115414 
L 113.671489 213.115414 
L 113.671489 215.124501 
L 114.128791 215.124501 
L 114.128791 217.133588 
L 115.292191 217.133588 
L 115.329435 221.151763 
L 116.935138 221.151763 
L 116.935138 223.160851 
L 119.146936 223.160851 
L 119.146936 225.169938 
L 119.663968 225.169938 
L 119.663968 227.179026 
L 120.177237 227.179026 
L 120.177237 229.188113 
L 121.458699 229.188113 
L 121.458699 231.197201 
L 121.783347 231.197201 
L 121.783347 233.206288 
L 122.96165 233.206288 
L 122.96165 235.215376 
L 123.083873 235.215376 
L 123.083873 237.224463 
L 123.268832 237.224463 
L 123.268832 239.305304 
L 123.555148 239.305304 
L 123.555148 241.386144 
L 123.863063 241.386144 
L 123.863063 243.466985 
L 125.786283 243.466985 
L 125.786283 245.547826 
L 126.206278 245.547826 
L 126.206278 247.628666 
L 126.390136 247.628666 
L 126.390136 249.709507 
L 126.705684 249.709507 
L 126.705684 251.790347 
L 131.820625 251.790347 
L 131.820625 253.97523 
L 135.017244 253.97523 
L 135.017244 256.160113 
L 136.617111 256.160113 
L 136.617111 258.344995 
L 138.953664 258.344995 
L 138.953664 260.529878 
L 143.738611 260.529878 
L 143.738611 262.714761 
L 143.963254 262.714761 
L 143.963254 264.899643 
L 144.459076 264.899643 
L 144.459076 267.252594 
L 146.2405 267.252594 
L 146.2405 269.605544 
L 146.466183 269.605544 
L 146.466183 271.958495 
L 146.970843 271.958495 
L 146.970843 274.311445 
L 147.420355 274.311445 
L 147.420355 276.664396 
L 148.842557 276.664396 
L 148.842557 279.017346 
L 169.075622 279.017346 
L 169.075622 281.370297 
L 186.042539 281.370297 
L 186.042539 283.723247 
L 186.848712 283.723247 
L 186.848712 286.076198 
L 187.019254 286.076198 
L 187.019254 288.429148 
L 196.348413 288.429148 
L 196.348413 291.958574 
L 228.601822 291.958574 
L 228.601822 295.488 
L 228.601822 295.488 
" clip-path="url(#pb774fe7290)" style="fill: none; stroke: #1f77b4; stroke-width: 1.5; stroke-linecap: square"/>
   </g>
   <g id="line2d_13">
    <path d="M 73.832727 53.568 
L 74.111932 53.568 
L 74.134212 57.348 
L 74.790096 57.348 
L 74.790096 59.238 
L 75.192445 59.238 
L 75.192445 61.128 
L 75.35761 61.128 
L 75.35761 63.018 
L 75.970417 63.018 
L 75.970417 64.908 
L 76.001399 64.908 
L 76.552787 64.908 
L 76.552787 66.81362 
L 77.072603 66.81362 
L 77.072603 68.71924 
L 78.01087 68.71924 
L 78.080033 74.436099 
L 78.188821 74.436099 
L 78.188821 76.341719 
L 78.762945 76.341719 
L 78.762945 78.247339 
L 79.141445 78.247339 
L 79.141445 80.152959 
L 79.66812 80.152959 
L 79.66812 82.058579 
L 79.942548 82.058579 
L 79.942548 83.964198 
L 80.366557 83.964198 
L 80.458473 87.775438 
L 80.963248 87.775438 
L 80.963248 89.681058 
L 81.990354 89.681058 
L 81.990354 91.586678 
L 82.503096 91.586678 
L 82.598198 95.397917 
L 82.756648 95.397917 
L 82.756648 97.303537 
L 85.37549 97.303537 
L 85.442687 101.151779 
L 86.696227 101.151779 
L 86.696227 103.0759 
L 87.019011 103.0759 
L 87.019011 105.000021 
L 88.232211 105.000021 
L 88.232211 106.924142 
L 88.59802 106.924142 
L 88.59802 108.848263 
L 88.850767 108.848263 
L 88.850767 110.772384 
L 89.433948 110.772384 
L 89.433948 112.716759 
L 90.043943 112.716759 
L 90.043943 114.661134 
L 90.131585 114.661134 
L 90.814031 114.661134 
L 90.814031 116.626643 
L 91.015767 116.626643 
L 91.015767 118.592153 
L 93.210166 118.592153 
L 93.210166 120.557662 
L 94.099924 120.557662 
L 94.099924 122.523172 
L 94.813506 122.523172 
L 94.813506 124.488681 
L 96.007787 124.488681 
L 96.007787 126.45419 
L 96.443049 126.45419 
L 96.443049 128.4197 
L 97.826866 128.4197 
L 97.826866 130.408608 
L 100.824985 130.408608 
L 100.931894 134.434935 
L 101.415933 134.434935 
L 101.415933 136.448098 
L 102.8166 136.448098 
L 102.8166 138.461261 
L 104.351722 138.461261 
L 104.351722 140.474425 
L 104.609698 140.474425 
L 104.609698 142.487588 
L 105.032587 142.487588 
L 105.032587 144.527594 
L 106.73616 144.527594 
L 106.767779 148.607605 
L 108.762715 148.607605 
L 108.762715 150.64761 
L 109.007501 150.64761 
L 109.07375 154.727621 
L 109.525221 154.727621 
L 109.525221 156.767627 
L 112.317088 156.767627 
L 112.317088 158.807632 
L 112.773668 158.807632 
L 112.823744 162.887643 
L 112.905788 162.887643 
L 112.905788 164.927649 
L 113.534951 164.927649 
L 113.605067 169.007659 
L 114.93972 169.007659 
L 114.93972 171.047665 
L 119.579253 171.047665 
L 119.579253 173.121671 
L 121.072613 173.121671 
L 121.072613 175.195676 
L 121.208802 175.195676 
L 121.319732 179.343687 
L 121.393678 179.343687 
L 121.430742 183.491698 
L 123.529944 183.491698 
L 123.529944 185.565704 
L 125.516146 185.565704 
L 125.516146 187.63971 
L 126.299324 187.63971 
L 126.299324 189.713715 
L 126.893994 189.713715 
L 126.893994 191.787721 
L 128.531393 191.787721 
L 128.531393 193.861726 
L 128.930094 193.861726 
L 128.930094 195.935732 
L 129.424719 195.935732 
L 129.424719 198.009738 
L 135.121518 198.009738 
L 135.121518 200.12883 
L 135.808964 200.12883 
L 135.808964 202.247923 
L 135.956179 202.247923 
L 135.956179 204.367016 
L 137.10853 204.367016 
L 137.10853 206.536563 
L 137.818007 206.536563 
L 137.818007 208.70611 
L 141.165077 208.70611 
L 141.165077 210.931287 
L 144.977627 210.931287 
L 144.977627 213.156463 
L 145.172259 213.156463 
L 145.172259 215.38164 
L 145.686842 215.38164 
L 145.686842 217.606817 
L 149.721581 217.606817 
L 149.721581 219.831993 
L 151.008781 219.831993 
L 151.008781 222.05717 
L 151.785147 222.05717 
L 151.785147 224.282347 
L 153.16072 224.282347 
L 153.16072 226.507523 
L 154.213813 226.507523 
L 154.213813 228.7327 
L 159.870401 228.7327 
L 159.870401 231.116818 
L 163.225896 231.116818 
L 163.225896 233.500936 
L 164.004082 233.500936 
L 164.004082 235.885054 
L 165.826881 235.885054 
L 165.826881 238.269171 
L 176.914636 238.269171 
L 176.914636 240.756947 
L 177.501203 240.756947 
L 177.501203 243.244722 
L 179.255425 243.244722 
L 179.255425 245.732497 
L 179.88149 245.732497 
L 179.88149 248.220272 
L 180.394692 248.220272 
L 180.394692 250.708047 
L 194.554602 250.708047 
L 194.554602 253.342162 
L 195.798444 253.342162 
L 195.798444 255.976277 
L 197.219184 255.976277 
L 197.219184 258.610392 
L 198.173907 258.610392 
L 198.173907 261.244507 
L 202.6451 261.244507 
L 202.6451 264.098131 
L 206.856179 264.098131 
L 206.856179 266.951756 
L 211.341827 266.951756 
L 211.341827 269.80538 
L 224.576347 269.80538 
L 224.576347 272.659004 
L 255.659735 272.659004 
L 255.659735 275.92029 
L 263.144408 275.92029 
L 263.144408 279.181575 
L 269.919047 279.181575 
L 269.919047 282.44286 
L 275.535375 282.44286 
L 275.535375 285.704145 
L 286.524088 285.704145 
L 286.524088 288.96543 
L 300.809517 288.96543 
L 300.809517 292.226715 
L 398.487273 292.226715 
L 398.487273 295.488 
L 398.487273 295.488 
" clip-path="url(#pb774fe7290)" style="fill: none; stroke: #ff7f0e; stroke-width: 1.5; stroke-linecap: square"/>
   </g>
   <g id="patch_3">
    <path d="M 57.6 307.584 
L 57.6 41.472 
" style="fill: none; stroke: #000000; stroke-width: 0.8; stroke-linejoin: miter; stroke-linecap: square"/>
   </g>
   <g id="patch_4">
    <path d="M 414.72 307.584 
L 414.72 41.472 
" style="fill: none; stroke: #000000; stroke-width: 0.8; stroke-linejoin: miter; stroke-linecap: square"/>
   </g>
   <g id="patch_5">
    <path d="M 57.6 307.584 
L 414.72 307.584 
" style="fill: none; stroke: #000000; stroke-width: 0.8; stroke-linejoin: miter; stroke-linecap: square"/>
   </g>
   <g id="patch_6">
    <path d="M 57.6 41.472 
L 414.72 41.472 
" style="fill: none; stroke: #000000; stroke-width: 0.8; stroke-linejoin: miter; stroke-linecap: square"/>
   </g>
   <g id="text_14">
    <!-- Obesity effect on mortality when -->
    <g transform="translate(137.427188 22.034625) scale(0.12 -0.12)">
     <defs>
      <path id="DejaVuSans-4f" d="M 2522 4238 
Q 1834 4238 1429 3725 
Q 1025 3213 1025 2328 
Q 1025 1447 1429 934 
Q 1834 422 2522 422 
Q 3209 422 3611 934 
Q 4013 1447 4013 2328 
Q 4013 3213 3611 3725 
Q 3209 4238 2522 4238 
z
M 2522 4750 
Q 3503 4750 4090 4092 
Q 4678 3434 4678 2328 
Q 4678 1225 4090 567 
Q 3503 -91 2522 -91 
Q 1538 -91 948 565 
Q 359 1222 359 2328 
Q 359 3434 948 4092 
Q 1538 4750 2522 4750 
z
" transform="scale(0.015625)"/>
      <path id="DejaVuSans-62" d="M 3116 1747 
Q 3116 2381 2855 2742 
Q 2594 3103 2138 3103 
Q 1681 3103 1420 2742 
Q 1159 2381 1159 1747 
Q 1159 1113 1420 752 
Q 1681 391 2138 391 
Q 2594 391 2855 752 
Q 3116 1113 3116 1747 
z
M 1159 2969 
Q 1341 3281 1617 3432 
Q 1894 3584 2278 3584 
Q 2916 3584 3314 3078 
Q 3713 2572 3713 1747 
Q 3713 922 3314 415 
Q 2916 -91 2278 -91 
Q 1894 -91 1617 61 
Q 1341 213 1159 525 
L 1159 0 
L 581 0 
L 581 4863 
L 1159 4863 
L 1159 2969 
z
" transform="scale(0.015625)"/>
      <path id="DejaVuSans-65" d="M 3597 1894 
L 3597 1613 
L 953 1613 
Q 991 1019 1311 708 
Q 1631 397 2203 397 
Q 2534 397 2845 478 
Q 3156 559 3463 722 
L 3463 178 
Q 3153 47 2828 -22 
Q 2503 -91 2169 -91 
Q 1331 -91 842 396 
Q 353 884 353 1716 
Q 353 2575 817 3079 
Q 1281 3584 2069 3584 
Q 2775 3584 3186 3129 
Q 3597 2675 3597 1894 
z
M 3022 2063 
Q 3016 2534 2758 2815 
Q 2500 3097 2075 3097 
Q 1594 3097 1305 2825 
Q 1016 2553 972 2059 
L 3022 2063 
z
" transform="scale(0.015625)"/>
      <path id="DejaVuSans-73" d="M 2834 3397 
L 2834 2853 
Q 2591 2978 2328 3040 
Q 2066 3103 1784 3103 
Q 1356 3103 1142 2972 
Q 928 2841 928 2578 
Q 928 2378 1081 2264 
Q 1234 2150 1697 2047 
L 1894 2003 
Q 2506 1872 2764 1633 
Q 3022 1394 3022 966 
Q 3022 478 2636 193 
Q 2250 -91 1575 -91 
Q 1294 -91 989 -36 
Q 684 19 347 128 
L 347 722 
Q 666 556 975 473 
Q 1284 391 1588 391 
Q 1994 391 2212 530 
Q 2431 669 2431 922 
Q 2431 1156 2273 1281 
Q 2116 1406 1581 1522 
L 1381 1569 
Q 847 1681 609 1914 
Q 372 2147 372 2553 
Q 372 3047 722 3315 
Q 1072 3584 1716 3584 
Q 2034 3584 2315 3537 
Q 2597 3491 2834 3397 
z
" transform="scale(0.015625)"/>
      <path id="DejaVuSans-69" d="M 603 3500 
L 1178 3500 
L 1178 0 
L 603 0 
L 603 3500 
z
M 603 4863 
L 1178 4863 
L 1178 4134 
L 603 4134 
L 603 4863 
z
" transform="scale(0.015625)"/>
      <path id="DejaVuSans-74" d="M 1172 4494 
L 1172 3500 
L 2356 3500 
L 2356 3053 
L 1172 3053 
L 1172 1153 
Q 1172 725 1289 603 
Q 1406 481 1766 481 
L 2356 481 
L 2356 0 
L 1766 0 
Q 1100 0 847 248 
Q 594 497 594 1153 
L 594 3053 
L 172 3053 
L 172 3500 
L 594 3500 
L 594 4494 
L 1172 4494 
z
" transform="scale(0.015625)"/>
      <path id="DejaVuSans-79" d="M 2059 -325 
Q 1816 -950 1584 -1140 
Q 1353 -1331 966 -1331 
L 506 -1331 
L 506 -850 
L 844 -850 
Q 1081 -850 1212 -737 
Q 1344 -625 1503 -206 
L 1606 56 
L 191 3500 
L 800 3500 
L 1894 763 
L 2988 3500 
L 3597 3500 
L 2059 -325 
z
" transform="scale(0.015625)"/>
      <path id="DejaVuSans-20" transform="scale(0.015625)"/>
      <path id="DejaVuSans-66" d="M 2375 4863 
L 2375 4384 
L 1825 4384 
Q 1516 4384 1395 4259 
Q 1275 4134 1275 3809 
L 1275 3500 
L 2222 3500 
L 2222 3053 
L 1275 3053 
L 1275 0 
L 697 0 
L 697 3053 
L 147 3053 
L 147 3500 
L 697 3500 
L 697 3744 
Q 697 4328 969 4595 
Q 1241 4863 1831 4863 
L 2375 4863 
z
" transform="scale(0.015625)"/>
      <path id="DejaVuSans-63" d="M 3122 3366 
L 3122 2828 
Q 2878 2963 2633 3030 
Q 2388 3097 2138 3097 
Q 1578 3097 1268 2742 
Q 959 2388 959 1747 
Q 959 1106 1268 751 
Q 1578 397 2138 397 
Q 2388 397 2633 464 
Q 2878 531 3122 666 
L 3122 134 
Q 2881 22 2623 -34 
Q 2366 -91 2075 -91 
Q 1284 -91 818 406 
Q 353 903 353 1747 
Q 353 2603 823 3093 
Q 1294 3584 2113 3584 
Q 2378 3584 2631 3529 
Q 2884 3475 3122 3366 
z
" transform="scale(0.015625)"/>
      <path id="DejaVuSans-6f" d="M 1959 3097 
Q 1497 3097 1228 2736 
Q 959 2375 959 1747 
Q 959 1119 1226 758 
Q 1494 397 1959 397 
Q 2419 397 2687 759 
Q 2956 1122 2956 1747 
Q 2956 2369 2687 2733 
Q 2419 3097 1959 3097 
z
M 1959 3584 
Q 2709 3584 3137 3096 
Q 3566 2609 3566 1747 
Q 3566 888 3137 398 
Q 2709 -91 1959 -91 
Q 1206 -91 779 398 
Q 353 888 353 1747 
Q 353 2609 779 3096 
Q 1206 3584 1959 3584 
z
" transform="scale(0.015625)"/>
      <path id="DejaVuSans-6e" d="M 3513 2113 
L 3513 0 
L 2938 0 
L 2938 2094 
Q 2938 2591 2744 2837 
Q 2550 3084 2163 3084 
Q 1697 3084 1428 2787 
Q 1159 2491 1159 1978 
L 1159 0 
L 581 0 
L 581 3500 
L 1159 3500 
L 1159 2956 
Q 1366 3272 1645 3428 
Q 1925 3584 2291 3584 
Q 2894 3584 3203 3211 
Q 3513 2838 3513 2113 
z
" transform="scale(0.015625)"/>
      <path id="DejaVuSans-6d" d="M 3328 2828 
Q 3544 3216 3844 3400 
Q 4144 3584 4550 3584 
Q 5097 3584 5394 3201 
Q 5691 2819 5691 2113 
L 5691 0 
L 5113 0 
L 5113 2094 
Q 5113 2597 4934 2840 
Q 4756 3084 4391 3084 
Q 3944 3084 3684 2787 
Q 3425 2491 3425 1978 
L 3425 0 
L 2847 0 
L 2847 2094 
Q 2847 2600 2669 2842 
Q 2491 3084 2119 3084 
Q 1678 3084 1418 2786 
Q 1159 2488 1159 1978 
L 1159 0 
L 581 0 
L 581 3500 
L 1159 3500 
L 1159 2956 
Q 1356 3278 1631 3431 
Q 1906 3584 2284 3584 
Q 2666 3584 2933 3390 
Q 3200 3197 3328 2828 
z
" transform="scale(0.015625)"/>
      <path id="DejaVuSans-72" d="M 2631 2963 
Q 2534 3019 2420 3045 
Q 2306 3072 2169 3072 
Q 1681 3072 1420 2755 
Q 1159 2438 1159 1844 
L 1159 0 
L 581 0 
L 581 3500 
L 1159 3500 
L 1159 2956 
Q 1341 3275 1631 3429 
Q 1922 3584 2338 3584 
Q 2397 3584 2469 3576 
Q 2541 3569 2628 3553 
L 2631 2963 
z
" transform="scale(0.015625)"/>
      <path id="DejaVuSans-61" d="M 2194 1759 
Q 1497 1759 1228 1600 
Q 959 1441 959 1056 
Q 959 750 1161 570 
Q 1363 391 1709 391 
Q 2188 391 2477 730 
Q 2766 1069 2766 1631 
L 2766 1759 
L 2194 1759 
z
M 3341 1997 
L 3341 0 
L 2766 0 
L 2766 531 
Q 2569 213 2275 61 
Q 1981 -91 1556 -91 
Q 1019 -91 701 211 
Q 384 513 384 1019 
Q 384 1609 779 1909 
Q 1175 2209 1959 2209 
L 2766 2209 
L 2766 2266 
Q 2766 2663 2505 2880 
Q 2244 3097 1772 3097 
Q 1472 3097 1187 3025 
Q 903 2953 641 2809 
L 641 3341 
Q 956 3463 1253 3523 
Q 1550 3584 1831 3584 
Q 2591 3584 2966 3190 
Q 3341 2797 3341 1997 
z
" transform="scale(0.015625)"/>
      <path id="DejaVuSans-6c" d="M 603 4863 
L 1178 4863 
L 1178 0 
L 603 0 
L 603 4863 
z
" transform="scale(0.015625)"/>
      <path id="DejaVuSans-77" d="M 269 3500 
L 844 3500 
L 1563 769 
L 2278 3500 
L 2956 3500 
L 3675 769 
L 4391 3500 
L 4966 3500 
L 4050 0 
L 3372 0 
L 2619 2869 
L 1863 0 
L 1184 0 
L 269 3500 
z
" transform="scale(0.015625)"/>
      <path id="DejaVuSans-68" d="M 3513 2113 
L 3513 0 
L 2938 0 
L 2938 2094 
Q 2938 2591 2744 2837 
Q 2550 3084 2163 3084 
Q 1697 3084 1428 2787 
Q 1159 2491 1159 1978 
L 1159 0 
L 581 0 
L 581 4863 
L 1159 4863 
L 1159 2956 
Q 1366 3272 1645 3428 
Q 1925 3584 2291 3584 
Q 2894 3584 3203 3211 
Q 3513 2838 3513 2113 
z
" transform="scale(0.015625)"/>
     </defs>
     <use xlink:href="#DejaVuSans-4f"/>
     <use xlink:href="#DejaVuSans-62" x="78.710938"/>
     <use xlink:href="#DejaVuSans-65" x="142.1875"/>
     <use xlink:href="#DejaVuSans-73" x="203.710938"/>
     <use xlink:href="#DejaVuSans-69" x="255.810547"/>
     <use xlink:href="#DejaVuSans-74" x="283.59375"/>
     <use xlink:href="#DejaVuSans-79" x="322.802734"/>
     <use xlink:href="#DejaVuSans-20" x="381.982422"/>
     <use xlink:href="#DejaVuSans-65" x="413.769531"/>
     <use xlink:href="#DejaVuSans-66" x="475.292969"/>
     <use xlink:href="#DejaVuSans-66" x="510.498047"/>
     <use xlink:href="#DejaVuSans-65" x="545.703125"/>
     <use xlink:href="#DejaVuSans-63" x="607.226562"/>
     <use xlink:href="#DejaVuSans-74" x="662.207031"/>
     <use xlink:href="#DejaVuSans-20" x="701.416016"/>
     <use xlink:href="#DejaVuSans-6f" x="733.203125"/>
     <use xlink:href="#DejaVuSans-6e" x="794.384766"/>
     <use xlink:href="#DejaVuSans-20" x="857.763672"/>
     <use xlink:href="#DejaVuSans-6d" x="889.550781"/>
     <use xlink:href="#DejaVuSans-6f" x="986.962891"/>
     <use xlink:href="#DejaVuSans-72" x="1048.144531"/>
     <use xlink:href="#DejaVuSans-74" x="1089.257812"/>
     <use xlink:href="#DejaVuSans-61" x="1128.466797"/>
     <use xlink:href="#DejaVuSans-6c" x="1189.746094"/>
     <use xlink:href="#DejaVuSans-69" x="1217.529297"/>
     <use xlink:href="#DejaVuSans-74" x="1245.3125"/>
     <use xlink:href="#DejaVuSans-79" x="1284.521484"/>
     <use xlink:href="#DejaVuSans-20" x="1343.701172"/>
     <use xlink:href="#DejaVuSans-77" x="1375.488281"/>
     <use xlink:href="#DejaVuSans-68" x="1457.275391"/>
     <use xlink:href="#DejaVuSans-65" x="1520.654297"/>
     <use xlink:href="#DejaVuSans-6e" x="1582.177734"/>
    </g>
    <!-- Family History = 1 &amp; Smoking = 1 -->
    <g transform="translate(133.709063 35.472) scale(0.12 -0.12)">
     <defs>
      <path id="DejaVuSans-46" d="M 628 4666 
L 3309 4666 
L 3309 4134 
L 1259 4134 
L 1259 2759 
L 3109 2759 
L 3109 2228 
L 1259 2228 
L 1259 0 
L 628 0 
L 628 4666 
z
" transform="scale(0.015625)"/>
      <path id="DejaVuSans-48" d="M 628 4666 
L 1259 4666 
L 1259 2753 
L 3553 2753 
L 3553 4666 
L 4184 4666 
L 4184 0 
L 3553 0 
L 3553 2222 
L 1259 2222 
L 1259 0 
L 628 0 
L 628 4666 
z
" transform="scale(0.015625)"/>
      <path id="DejaVuSans-3d" d="M 678 2906 
L 4684 2906 
L 4684 2381 
L 678 2381 
L 678 2906 
z
M 678 1631 
L 4684 1631 
L 4684 1100 
L 678 1100 
L 678 1631 
z
" transform="scale(0.015625)"/>
      <path id="DejaVuSans-26" d="M 1556 2509 
Q 1272 2256 1139 2004 
Q 1006 1753 1006 1478 
Q 1006 1022 1337 719 
Q 1669 416 2169 416 
Q 2466 416 2725 514 
Q 2984 613 3213 813 
L 1556 2509 
z
M 1997 2859 
L 3584 1234 
Q 3769 1513 3872 1830 
Q 3975 2147 3994 2503 
L 4575 2503 
Q 4538 2091 4375 1687 
Q 4213 1284 3922 891 
L 4794 0 
L 4006 0 
L 3559 459 
Q 3234 181 2878 45 
Q 2522 -91 2113 -91 
Q 1359 -91 881 339 
Q 403 769 403 1441 
Q 403 1841 612 2192 
Q 822 2544 1241 2853 
Q 1091 3050 1012 3245 
Q 934 3441 934 3628 
Q 934 4134 1281 4442 
Q 1628 4750 2203 4750 
Q 2463 4750 2720 4694 
Q 2978 4638 3244 4525 
L 3244 3956 
Q 2972 4103 2725 4179 
Q 2478 4256 2266 4256 
Q 1938 4256 1733 4082 
Q 1528 3909 1528 3634 
Q 1528 3475 1620 3314 
Q 1713 3153 1997 2859 
z
" transform="scale(0.015625)"/>
      <path id="DejaVuSans-53" d="M 3425 4513 
L 3425 3897 
Q 3066 4069 2747 4153 
Q 2428 4238 2131 4238 
Q 1616 4238 1336 4038 
Q 1056 3838 1056 3469 
Q 1056 3159 1242 3001 
Q 1428 2844 1947 2747 
L 2328 2669 
Q 3034 2534 3370 2195 
Q 3706 1856 3706 1288 
Q 3706 609 3251 259 
Q 2797 -91 1919 -91 
Q 1588 -91 1214 -16 
Q 841 59 441 206 
L 441 856 
Q 825 641 1194 531 
Q 1563 422 1919 422 
Q 2459 422 2753 634 
Q 3047 847 3047 1241 
Q 3047 1584 2836 1778 
Q 2625 1972 2144 2069 
L 1759 2144 
Q 1053 2284 737 2584 
Q 422 2884 422 3419 
Q 422 4038 858 4394 
Q 1294 4750 2059 4750 
Q 2388 4750 2728 4690 
Q 3069 4631 3425 4513 
z
" transform="scale(0.015625)"/>
      <path id="DejaVuSans-6b" d="M 581 4863 
L 1159 4863 
L 1159 1991 
L 2875 3500 
L 3609 3500 
L 1753 1863 
L 3688 0 
L 2938 0 
L 1159 1709 
L 1159 0 
L 581 0 
L 581 4863 
z
" transform="scale(0.015625)"/>
      <path id="DejaVuSans-67" d="M 2906 1791 
Q 2906 2416 2648 2759 
Q 2391 3103 1925 3103 
Q 1463 3103 1205 2759 
Q 947 2416 947 1791 
Q 947 1169 1205 825 
Q 1463 481 1925 481 
Q 2391 481 2648 825 
Q 2906 1169 2906 1791 
z
M 3481 434 
Q 3481 -459 3084 -895 
Q 2688 -1331 1869 -1331 
Q 1566 -1331 1297 -1286 
Q 1028 -1241 775 -1147 
L 775 -588 
Q 1028 -725 1275 -790 
Q 1522 -856 1778 -856 
Q 2344 -856 2625 -561 
Q 2906 -266 2906 331 
L 2906 616 
Q 2728 306 2450 153 
Q 2172 0 1784 0 
Q 1141 0 747 490 
Q 353 981 353 1791 
Q 353 2603 747 3093 
Q 1141 3584 1784 3584 
Q 2172 3584 2450 3431 
Q 2728 3278 2906 2969 
L 2906 3500 
L 3481 3500 
L 3481 434 
z
" transform="scale(0.015625)"/>
     </defs>
     <use xlink:href="#DejaVuSans-46"/>
     <use xlink:href="#DejaVuSans-61" x="48.394531"/>
     <use xlink:href="#DejaVuSans-6d" x="109.673828"/>
     <use xlink:href="#DejaVuSans-69" x="207.085938"/>
     <use xlink:href="#DejaVuSans-6c" x="234.869141"/>
     <use xlink:href="#DejaVuSans-79" x="262.652344"/>
     <use xlink:href="#DejaVuSans-20" x="321.832031"/>
     <use xlink:href="#DejaVuSans-48" x="353.619141"/>
     <use xlink:href="#DejaVuSans-69" x="428.814453"/>
     <use xlink:href="#DejaVuSans-73" x="456.597656"/>
     <use xlink:href="#DejaVuSans-74" x="508.697266"/>
     <use xlink:href="#DejaVuSans-6f" x="547.90625"/>
     <use xlink:href="#DejaVuSans-72" x="609.087891"/>
     <use xlink:href="#DejaVuSans-79" x="650.201172"/>
     <use xlink:href="#DejaVuSans-20" x="709.380859"/>
     <use xlink:href="#DejaVuSans-3d" x="741.167969"/>
     <use xlink:href="#DejaVuSans-20" x="824.957031"/>
     <use xlink:href="#DejaVuSans-31" x="856.744141"/>
     <use xlink:href="#DejaVuSans-20" x="920.367188"/>
     <use xlink:href="#DejaVuSans-26" x="952.154297"/>
     <use xlink:href="#DejaVuSans-20" x="1030.132812"/>
     <use xlink:href="#DejaVuSans-53" x="1061.919922"/>
     <use xlink:href="#DejaVuSans-6d" x="1125.396484"/>
     <use xlink:href="#DejaVuSans-6f" x="1222.808594"/>
     <use xlink:href="#DejaVuSans-6b" x="1283.990234"/>
     <use xlink:href="#DejaVuSans-69" x="1341.900391"/>
     <use xlink:href="#DejaVuSans-6e" x="1369.683594"/>
     <use xlink:href="#DejaVuSans-67" x="1433.0625"/>
     <use xlink:href="#DejaVuSans-20" x="1496.539062"/>
     <use xlink:href="#DejaVuSans-3d" x="1528.326172"/>
     <use xlink:href="#DejaVuSans-20" x="1612.115234"/>
     <use xlink:href="#DejaVuSans-31" x="1643.902344"/>
    </g>
   </g>
   <g id="legend_1">
    <g id="patch_7">
     <path d="M 316.421562 78.82825 
L 407.72 78.82825 
Q 409.72 78.82825 409.72 76.82825 
L 409.72 48.472 
Q 409.72 46.472 407.72 46.472 
L 316.421562 46.472 
Q 314.421562 46.472 314.421562 48.472 
L 314.421562 76.82825 
Q 314.421562 78.82825 316.421562 78.82825 
z
" style="fill: #ffffff; opacity: 0.8; stroke: #cccccc; stroke-linejoin: miter"/>
    </g>
    <g id="line2d_14">
     <path d="M 318.421562 54.570437 
L 328.421562 54.570437 
L 328.421562 54.570437 
L 338.421562 54.570437 
L 338.421562 54.570437 
" style="fill: none; stroke: #1f77b4; stroke-width: 1.5; stroke-linecap: square"/>
    </g>
    <g id="text_15">
     <!-- Obesity = 1 -->
     <g transform="translate(346.421562 58.070437) scale(0.1 -0.1)">
      <use xlink:href="#DejaVuSans-4f"/>
      <use xlink:href="#DejaVuSans-62" x="78.710938"/>
      <use xlink:href="#DejaVuSans-65" x="142.1875"/>
      <use xlink:href="#DejaVuSans-73" x="203.710938"/>
      <use xlink:href="#DejaVuSans-69" x="255.810547"/>
      <use xlink:href="#DejaVuSans-74" x="283.59375"/>
      <use xlink:href="#DejaVuSans-79" x="322.802734"/>
      <use xlink:href="#DejaVuSans-20" x="381.982422"/>
      <use xlink:href="#DejaVuSans-3d" x="413.769531"/>
      <use xlink:href="#DejaVuSans-20" x="497.558594"/>
      <use xlink:href="#DejaVuSans-31" x="529.345703"/>
     </g>
    </g>
    <g id="line2d_15">
     <path d="M 318.421562 69.248562 
L 328.421562 69.248562 
L 328.421562 69.248562 
L 338.421562 69.248562 
L 338.421562 69.248562 
" style="fill: none; stroke: #ff7f0e; stroke-width: 1.5; stroke-linecap: square"/>
    </g>
    <g id="text_16">
     <!-- Obesity = 0 -->
     <g transform="translate(346.421562 72.748562) scale(0.1 -0.1)">
      <use xlink:href="#DejaVuSans-4f"/>
      <use xlink:href="#DejaVuSans-62" x="78.710938"/>
      <use xlink:href="#DejaVuSans-65" x="142.1875"/>
      <use xlink:href="#DejaVuSans-73" x="203.710938"/>
      <use xlink:href="#DejaVuSans-69" x="255.810547"/>
      <use xlink:href="#DejaVuSans-74" x="283.59375"/>
      <use xlink:href="#DejaVuSans-79" x="322.802734"/>
      <use xlink:href="#DejaVuSans-20" x="381.982422"/>
      <use xlink:href="#DejaVuSans-3d" x="413.769531"/>
      <use xlink:href="#DejaVuSans-20" x="497.558594"/>
      <use xlink:href="#DejaVuSans-30" x="529.345703"/>
     </g>
    </g>
   </g>
  </g>
 </g>
 <defs>
  <clipPath id="pb774fe7290">
   <rect x="57.6" y="41.472" width="357.12" height="266.112"/>
  </clipPath>
 </defs>
</svg>
